<?xml version="1.0" encoding="utf-8"?>
<!-- Generator: Adobe Illustrator 17.0.0, SVG Export Plug-In . SVG Version: 6.00 Build 0)  -->
<svg version="1.2" baseProfile="tiny" id="Layer_1" xmlns="http://www.w3.org/2000/svg" xmlns:xlink="http://www.w3.org/1999/xlink"
	 x="0px" y="0px" width="36.758px" height="20.469px" viewBox="0 0 36.758 20.469" xml:space="preserve">
<path fill="#3C3C3C" d="M11.489,11.473c0.037,0.41-0.039,0.78-0.227,1.114c-0.188,0.332-0.462,0.641-0.82,0.927
	c-0.359,0.284-0.786,0.542-1.282,0.771s-1.027,0.443-1.595,0.644c0.11,0.714,0.286,1.346,0.525,1.898
	c0.239,0.553,0.603,0.985,1.091,1.296c-0.329,0.179-0.653,0.341-0.973,0.485c-0.275,0.129-0.566,0.246-0.872,0.354
	c-0.306,0.109-0.579,0.173-0.818,0.194C6.29,19.177,6.102,19.1,5.954,18.924c-0.148-0.176-0.273-0.423-0.377-0.741
	c-0.103-0.318-0.186-0.695-0.249-1.132c-0.063-0.436-0.116-0.9-0.161-1.389c-0.245,0.079-0.492,0.151-0.738,0.213
	c-0.247,0.063-0.488,0.129-0.723,0.195c-0.216,0.02-0.371-0.014-0.465-0.104c-0.094-0.089-0.148-0.207-0.161-0.355
	c-0.014-0.159,0.009-0.347,0.07-0.558c0.06-0.213,0.129-0.409,0.204-0.588c0.095-0.215,0.202-0.431,0.32-0.649
	c0.211-0.077,0.422-0.156,0.633-0.238c0.21-0.082,0.421-0.167,0.631-0.255c-0.059-0.396-0.12-0.784-0.183-1.163
	c-0.063-0.379-0.144-0.736-0.244-1.072c-0.147,0.152-0.296,0.311-0.447,0.48c-0.151,0.168-0.3,0.34-0.444,0.514
	c-0.398-0.332-0.699-0.674-0.903-1.029C2.516,10.7,2.397,10.34,2.364,9.975C2.315,9.44,2.422,8.902,2.683,8.362
	S3.31,7.297,3.78,6.79c0.47-0.508,1.021-0.986,1.652-1.433C6.063,4.911,6.725,4.514,7.417,4.17C8.109,3.826,8.803,3.542,9.5,3.318
	c0.697-0.224,1.348-0.364,1.951-0.419c0.637-0.058,1.104-0.013,1.398,0.132c0.294,0.146,0.457,0.384,0.487,0.714
	c0.031,0.341-0.065,0.769-0.288,1.283c-0.224,0.514-0.54,1.099-0.952,1.756c-0.476,0.066-0.999,0.189-1.569,0.367
	c-0.491,0.158-1.055,0.394-1.693,0.704C8.198,8.166,7.513,8.583,6.78,9.109c0.227,0.095,0.355,0.302,0.383,0.62
	C7.171,9.81,7.183,9.977,7.2,10.235c0.017,0.256,0.033,0.528,0.048,0.813c0.018,0.331,0.04,0.696,0.065,1.096
	c0.412-0.255,0.828-0.552,1.245-0.889c0.417-0.336,0.846-0.732,1.287-1.185c0.548,0.1,0.952,0.276,1.21,0.527
	C11.315,10.851,11.459,11.142,11.489,11.473z"/>
<path fill="#3C3C3C" d="M14.624,9.397c0.216-0.02,0.411,0.008,0.585,0.084c0.173,0.076,0.324,0.18,0.45,0.312
	c0.126,0.132,0.234,0.278,0.323,0.436s0.164,0.309,0.222,0.454c0.134-0.047,0.271-0.088,0.411-0.124
	c0.141-0.036,0.273-0.059,0.399-0.071c0.205-0.018,0.379,0.003,0.522,0.065c0.143,0.061,0.224,0.194,0.243,0.399
	c0.07,0.774,0.101,1.432,0.093,1.972c-0.009,0.541,0.008,1.032,0.048,1.477c0.024,0.262,0.063,0.508,0.118,0.739
	c0.055,0.229,0.14,0.462,0.253,0.7c0.113,0.237,0.259,0.479,0.436,0.726c0.178,0.248,0.405,0.509,0.682,0.782
	c-0.207,0.123-0.415,0.232-0.623,0.332c-0.188,0.087-0.396,0.168-0.624,0.247c-0.228,0.077-0.462,0.128-0.701,0.149
	c-0.228,0.02-0.416-0.022-0.563-0.129c-0.148-0.107-0.273-0.259-0.378-0.456c-0.104-0.198-0.192-0.436-0.263-0.717
	c-0.072-0.28-0.134-0.591-0.188-0.931c-0.215,0.548-0.427,0.987-0.639,1.316c-0.211,0.33-0.42,0.583-0.628,0.763
	s-0.415,0.301-0.621,0.367c-0.207,0.064-0.401,0.105-0.583,0.121c-0.319,0.029-0.605-0.026-0.859-0.164
	c-0.254-0.137-0.47-0.336-0.648-0.595c-0.179-0.26-0.322-0.57-0.43-0.934c-0.107-0.363-0.181-0.756-0.218-1.176
	c-0.058-0.638-0.033-1.309,0.076-2.014c0.108-0.704,0.293-1.352,0.555-1.945c0.262-0.592,0.607-1.091,1.035-1.497
	C13.539,9.679,14.043,9.45,14.624,9.397z M15.581,13.116c-0.02-0.216-0.059-0.453-0.116-0.713c-0.074-0.303-0.183-0.614-0.326-0.935
	c-0.21,0.226-0.39,0.521-0.54,0.884c-0.151,0.365-0.272,0.743-0.362,1.135c-0.091,0.393-0.15,0.783-0.178,1.17
	c-0.028,0.387-0.03,0.717-0.005,0.99c0.02,0.217,0.055,0.388,0.107,0.516s0.123,0.186,0.214,0.178c0.114-0.01,0.247-0.09,0.4-0.243
	c0.152-0.152,0.296-0.368,0.432-0.65c0.135-0.282,0.242-0.619,0.322-1.011C15.609,14.047,15.626,13.606,15.581,13.116z"/>
<path fill="#3C3C3C" d="M28.732,7.679c0.034-0.003,0.115,0.032,0.243,0.108c0.127,0.074,0.262,0.171,0.405,0.29
	c0.143,0.119,0.273,0.248,0.388,0.386c0.117,0.14,0.181,0.276,0.193,0.413c0.012,0.138-0.052,0.258-0.192,0.363
	c-0.14,0.104-0.409,0.174-0.807,0.21l-0.734,0.067c0.011,0.39,0.031,0.787,0.056,1.192c0.025,0.405,0.056,0.813,0.093,1.222
	c0.077,0.855,0.198,1.676,0.362,2.464c0.163,0.79,0.391,1.458,0.681,2.005c-0.25,0.161-0.501,0.309-0.752,0.447
	c-0.22,0.112-0.454,0.215-0.703,0.313c-0.25,0.097-0.488,0.157-0.715,0.177c-0.239,0.022-0.444-0.017-0.613-0.117
	c-0.17-0.1-0.269-0.303-0.296-0.611c-0.036-0.387-0.06-0.847-0.074-1.38c-0.014-0.532-0.025-1.099-0.034-1.701
	c-0.009-0.603-0.019-1.225-0.031-1.866c-0.013-0.642-0.03-1.271-0.051-1.889C25.97,9.8,25.81,9.82,25.674,9.832
	s-0.255,0.028-0.357,0.049c-0.125,0.023-0.227,0.038-0.307,0.045c-0.068,0.006-0.147-0.009-0.237-0.046
	c-0.089-0.038-0.175-0.094-0.256-0.166c-0.081-0.073-0.154-0.161-0.221-0.264c-0.066-0.104-0.106-0.217-0.118-0.342
	c-0.011-0.126,0.011-0.26,0.066-0.402c0.363-0.056,0.691-0.103,0.986-0.142c0.295-0.038,0.572-0.08,0.833-0.127l-0.02-0.222
	c-0.068-0.751-0.168-1.405-0.298-1.961c-0.131-0.557-0.311-0.957-0.54-1.199c0.508-0.219,0.962-0.346,1.361-0.382
	c0.99-0.09,1.535,0.417,1.636,1.522c0.01,0.114,0.014,0.321,0.013,0.619c-0.001,0.299-0.005,0.667-0.011,1.103
	c0.1-0.032,0.192-0.069,0.273-0.111C28.559,7.763,28.644,7.721,28.732,7.679z"/>
<path fill="#3C3C3C" d="M29.509,2.753c-0.043-0.468,0.083-0.812,0.379-1.034c0.295-0.223,0.666-0.353,1.11-0.394
	c0.364-0.033,0.742-0.015,1.133,0.052c0.391,0.069,0.742,0.169,1.053,0.301c-0.123,0.172-0.208,0.43-0.257,0.773
	s-0.086,0.704-0.108,1.085c-0.025,0.37-0.042,0.773-0.055,1.211c-0.011,0.438-0.022,0.889-0.032,1.354
	c-0.009,0.466-0.007,0.936,0.008,1.411c0.014,0.475,0.04,0.924,0.078,1.344c0.042,0.456,0.099,0.867,0.173,1.233
	c0.073,0.367,0.173,0.671,0.298,0.912c-0.141,0.105-0.287,0.198-0.44,0.28c-0.131,0.069-0.283,0.138-0.455,0.205
	s-0.349,0.109-0.531,0.126c-0.194,0.017-0.383-0.007-0.567-0.077c-0.185-0.07-0.344-0.212-0.479-0.43
	c-0.204-1.106-0.393-2.18-0.567-3.22c-0.076-0.44-0.15-0.895-0.228-1.365c-0.077-0.469-0.148-0.93-0.211-1.384
	c-0.065-0.453-0.124-0.884-0.178-1.292C29.578,3.435,29.537,3.072,29.509,2.753z M32.627,16.625
	c-0.286,0.026-0.532-0.001-0.739-0.079c-0.209-0.078-0.386-0.192-0.531-0.339c-0.146-0.148-0.256-0.328-0.333-0.539
	c-0.077-0.211-0.125-0.431-0.146-0.657c-0.026-0.274-0.01-0.551,0.045-0.832c0.055-0.279,0.143-0.535,0.266-0.764
	c0.123-0.229,0.281-0.422,0.473-0.576c0.192-0.156,0.414-0.245,0.664-0.267c0.273-0.025,0.518,0.007,0.732,0.096
	c0.215,0.089,0.396,0.221,0.543,0.391s0.266,0.366,0.354,0.588c0.089,0.222,0.145,0.457,0.168,0.708
	c0.024,0.262,0.01,0.522-0.041,0.779c-0.052,0.257-0.14,0.491-0.263,0.703c-0.125,0.211-0.286,0.391-0.485,0.536
	C33.135,16.515,32.9,16.601,32.627,16.625z"/>
<g>
	<path fill="#3C3C3C" d="M23.671,14.696c0.408-0.017,0.723,0.081,0.945,0.297c0.221,0.216,0.35,0.445,0.387,0.688
		c0.032,0.212-0.011,0.415-0.128,0.611s-0.282,0.377-0.494,0.544c-0.213,0.167-0.465,0.31-0.755,0.429
		c-0.29,0.119-0.594,0.202-0.912,0.25c-0.371,0.055-0.746,0.055-1.127-0.002c-0.381-0.057-0.733-0.185-1.055-0.386
		s-0.603-0.486-0.842-0.856c-0.239-0.37-0.401-0.84-0.487-1.411c-0.092-0.613-0.095-1.254-0.011-1.92
		c0.085-0.667,0.246-1.285,0.485-1.857c0.239-0.571,0.548-1.055,0.927-1.452c0.378-0.397,0.811-0.632,1.298-0.705
		c0.327-0.049,0.625-0.047,0.892,0.005c0.268,0.052,0.494,0.139,0.68,0.263c0.186,0.123,0.336,0.277,0.45,0.459
		c0.114,0.184,0.186,0.381,0.218,0.592c0.041,0.276,0.014,0.528-0.081,0.759s-1.186-0.072-1.754,0.224
		c-0.568,0.296-1.313,1.334-1.227,2.721c0.087,1.387,1.163,2.28,2.086,1.51C23.405,15.224,23.567,15.09,23.671,14.696z"/>
</g>
</svg>
