<?xml version="1.0" encoding="utf-8"?>
<!-- Generator: Adobe Illustrator 17.0.0, SVG Export Plug-In . SVG Version: 6.00 Build 0)  -->
<!DOCTYPE svg PUBLIC "-//W3C//DTD SVG 1.1//EN" "http://www.w3.org/Graphics/SVG/1.1/DTD/svg11.dtd">
<svg version="1.1" id="Layer_1" xmlns="http://www.w3.org/2000/svg" xmlns:xlink="http://www.w3.org/1999/xlink" x="0px" y="0px"
	 width="362.85px" height="161.591px" viewBox="11.06 0 362.85 161.591" enable-background="new 11.06 0 362.85 161.591"
	 xml:space="preserve">
<line fill="none" stroke="#B3B3B3" stroke-width="0.5" stroke-miterlimit="10" x1="23.455" y1="59.766" x2="373.955" y2="59.766"/>
<line fill="none" stroke="#B3B3B3" stroke-width="0.5" stroke-miterlimit="10" x1="23.455" y1="87.796" x2="373.955" y2="87.796"/>
<line fill="none" stroke="#B3B3B3" stroke-width="0.5" stroke-miterlimit="10" x1="23.455" y1="115.796" x2="373.955" y2="115.796"/>
<g>
	<rect x="198.048" y="138.538" fill="#FF81F5" stroke="#F6F6CC" stroke-miterlimit="10" width="35.072" height="5.665"/>
	<rect x="198.048" y="132.873" fill="#FF81F5" stroke="#F6F6CC" stroke-miterlimit="10" width="35.072" height="5.665"/>
</g>
<g>
	<rect x="127.903" y="138.538" fill="#FF81A0" stroke="#F6F6CC" stroke-miterlimit="10" width="35.072" height="5.665"/>
	<rect x="127.903" y="132.873" fill="#FF81A0" stroke="#F6F6CC" stroke-miterlimit="10" width="35.072" height="5.665"/>
</g>
<g>
	<rect x="92.831" y="138.538" fill="#FF8A80" stroke="#F6F6CC" stroke-miterlimit="10" width="35.072" height="5.665"/>
	<rect x="92.831" y="132.873" fill="#FF8A80" stroke="#F6F6CC" stroke-miterlimit="10" width="35.072" height="5.665"/>
</g>
<g>
	<rect x="22.686" y="138.538" fill="#FFDF80" stroke="#F6F6CC" stroke-miterlimit="10" width="35.072" height="5.665"/>
	<rect x="22.686" y="132.873" fill="#FFDF80" stroke="#F6F6CC" stroke-miterlimit="10" width="35.072" height="5.665"/>
</g>
<g>
	<rect x="162.975" y="138.538" fill="#FF81CB" stroke="#F6F6CC" stroke-miterlimit="10" width="35.072" height="5.665"/>
	<rect x="162.975" y="132.873" fill="#FF81CB" stroke="#F6F6CC" stroke-miterlimit="10" width="35.072" height="5.665"/>
	<rect x="162.975" y="127.208" fill="#FF81CB" stroke="#F6F6CC" stroke-miterlimit="10" width="35.072" height="5.665"/>
	<rect x="162.975" y="121.543" fill="#FF81CB" stroke="#F6F6CC" stroke-miterlimit="10" width="35.072" height="5.665"/>
	<rect x="162.975" y="115.878" fill="#FF81CB" stroke="#F6F6CC" stroke-miterlimit="10" width="35.072" height="5.665"/>
	<rect x="162.975" y="110.213" fill="#FF81CB" stroke="#F6F6CC" stroke-miterlimit="10" width="35.072" height="5.665"/>
	<rect x="162.975" y="104.548" fill="#FF81CB" stroke="#F6F6CC" stroke-miterlimit="10" width="35.072" height="5.665"/>
</g>
<g>
	<rect x="338.338" y="138.538" fill="#81A0FF" stroke="#F6F6CC" stroke-miterlimit="10" width="35.072" height="5.665"/>
	<rect x="338.338" y="132.873" fill="#81A0FF" stroke="#F6F6CC" stroke-miterlimit="10" width="35.072" height="5.665"/>
	<rect x="338.338" y="127.208" fill="#81A0FF" stroke="#F6F6CC" stroke-miterlimit="10" width="35.072" height="5.665"/>
	<rect x="338.338" y="121.543" fill="#81A0FF" stroke="#F6F6CC" stroke-miterlimit="10" width="35.072" height="5.665"/>
	<rect x="338.338" y="115.878" fill="#81A0FF" stroke="#F6F6CC" stroke-miterlimit="10" width="35.072" height="5.665"/>
	<rect x="338.338" y="110.213" fill="#81A0FF" stroke="#F6F6CC" stroke-miterlimit="10" width="35.072" height="5.665"/>
	<rect x="338.338" y="104.548" fill="#81A0FF" stroke="#F6F6CC" stroke-miterlimit="10" width="35.072" height="5.665"/>
</g>
<g>
	<rect x="57.758" y="138.538" fill="#FFB581" stroke="#F6F6CC" stroke-miterlimit="10" width="35.072" height="5.665"/>
	<rect x="57.758" y="132.873" fill="#FFB581" stroke="#F6F6CC" stroke-miterlimit="10" width="35.072" height="5.665"/>
	<rect x="57.758" y="127.208" fill="#FFB581" stroke="#F6F6CC" stroke-miterlimit="10" width="35.072" height="5.665"/>
	<rect x="57.758" y="121.543" fill="#FFB581" stroke="#F6F6CC" stroke-miterlimit="10" width="35.072" height="5.665"/>
	<rect x="57.758" y="115.878" fill="#FFB581" stroke="#F6F6CC" stroke-miterlimit="10" width="35.072" height="5.665"/>
	<rect x="57.758" y="110.213" fill="#FFB581" stroke="#F6F6CC" stroke-miterlimit="10" width="35.072" height="5.665"/>
	<rect x="57.758" y="104.548" fill="#FFB581" stroke="#F6F6CC" stroke-miterlimit="10" width="35.072" height="5.665"/>
	<rect x="57.758" y="98.883" fill="#FFB581" stroke="#F6F6CC" stroke-miterlimit="10" width="35.072" height="5.665"/>
	<rect x="57.758" y="93.218" fill="#FFB581" stroke="#F6F6CC" stroke-miterlimit="10" width="35.072" height="5.665"/>
	<rect x="57.758" y="87.553" fill="#FFB581" stroke="#F6F6CC" stroke-miterlimit="10" width="35.072" height="5.665"/>
	<rect x="57.758" y="81.888" fill="#FFB581" stroke="#F6F6CC" stroke-miterlimit="10" width="35.072" height="5.665"/>
	<rect x="57.758" y="76.223" fill="#FFB581" stroke="#F6F6CC" stroke-miterlimit="10" width="35.072" height="5.665"/>
	<rect x="57.758" y="70.558" fill="#FFB581" stroke="#F6F6CC" stroke-miterlimit="10" width="35.072" height="5.665"/>
	<rect x="57.758" y="64.894" fill="#FFB581" stroke="#F6F6CC" stroke-miterlimit="10" width="35.072" height="5.665"/>
</g>
<g>
	<rect x="233.12" y="138.538" fill="#DF81FF" stroke="#F6F6CC" stroke-miterlimit="10" width="35.072" height="5.665"/>
	<rect x="233.12" y="132.873" fill="#DF81FF" stroke="#F6F6CC" stroke-miterlimit="10" width="35.072" height="5.665"/>
	<rect x="233.12" y="127.208" fill="#DF81FF" stroke="#F6F6CC" stroke-miterlimit="10" width="35.072" height="5.665"/>
	<rect x="233.12" y="121.543" fill="#DF81FF" stroke="#F6F6CC" stroke-miterlimit="10" width="35.072" height="5.665"/>
	<rect x="233.12" y="115.878" fill="#DF81FF" stroke="#F6F6CC" stroke-miterlimit="10" width="35.072" height="5.665"/>
	<rect x="233.12" y="110.213" fill="#DF81FF" stroke="#F6F6CC" stroke-miterlimit="10" width="35.072" height="5.665"/>
	<rect x="233.12" y="104.548" fill="#DF81FF" stroke="#F6F6CC" stroke-miterlimit="10" width="35.072" height="5.665"/>
	<rect x="233.12" y="98.883" fill="#DF81FF" stroke="#F6F6CC" stroke-miterlimit="10" width="35.072" height="5.665"/>
	<rect x="233.12" y="93.218" fill="#DF81FF" stroke="#F6F6CC" stroke-miterlimit="10" width="35.072" height="5.665"/>
	<rect x="233.12" y="87.553" fill="#DF81FF" stroke="#F6F6CC" stroke-miterlimit="10" width="35.072" height="5.665"/>
	<rect x="233.12" y="81.888" fill="#DF81FF" stroke="#F6F6CC" stroke-miterlimit="10" width="35.072" height="5.665"/>
	<rect x="233.12" y="76.223" fill="#DF81FF" stroke="#F6F6CC" stroke-miterlimit="10" width="35.072" height="5.665"/>
	<rect x="233.12" y="70.558" fill="#DF81FF" stroke="#F6F6CC" stroke-miterlimit="10" width="35.072" height="5.665"/>
	<rect x="233.12" y="64.894" fill="#DF81FF" stroke="#F6F6CC" stroke-miterlimit="10" width="35.072" height="5.665"/>
	<rect x="233.12" y="59.229" fill="#DF81FF" stroke="#F6F6CC" stroke-miterlimit="10" width="35.072" height="5.665"/>
</g>
<g>
	<rect x="268.193" y="138.538" fill="#B681FF" stroke="#F6F6CC" stroke-miterlimit="10" width="35.072" height="5.665"/>
	<rect x="268.193" y="132.873" fill="#B681FF" stroke="#F6F6CC" stroke-miterlimit="10" width="35.072" height="5.665"/>
	<rect x="268.193" y="127.208" fill="#B681FF" stroke="#F6F6CC" stroke-miterlimit="10" width="35.072" height="5.665"/>
	<rect x="268.193" y="121.543" fill="#B681FF" stroke="#F6F6CC" stroke-miterlimit="10" width="35.072" height="5.665"/>
	<rect x="268.193" y="115.878" fill="#B681FF" stroke="#F6F6CC" stroke-miterlimit="10" width="35.072" height="5.665"/>
	<rect x="268.193" y="110.213" fill="#B681FF" stroke="#F6F6CC" stroke-miterlimit="10" width="35.072" height="5.665"/>
	<rect x="268.193" y="104.548" fill="#B681FF" stroke="#F6F6CC" stroke-miterlimit="10" width="35.072" height="5.665"/>
	<rect x="268.193" y="98.883" fill="#B681FF" stroke="#F6F6CC" stroke-miterlimit="10" width="35.072" height="5.665"/>
	<rect x="268.193" y="93.218" fill="#B681FF" stroke="#F6F6CC" stroke-miterlimit="10" width="35.072" height="5.665"/>
	<rect x="268.193" y="87.553" fill="#B681FF" stroke="#F6F6CC" stroke-miterlimit="10" width="35.072" height="5.665"/>
	<rect x="268.193" y="81.888" fill="#B681FF" stroke="#F6F6CC" stroke-miterlimit="10" width="35.072" height="5.665"/>
	<rect x="268.193" y="76.223" fill="#B681FF" stroke="#F6F6CC" stroke-miterlimit="10" width="35.072" height="5.665"/>
	<rect x="268.193" y="70.558" fill="#B681FF" stroke="#F6F6CC" stroke-miterlimit="10" width="35.072" height="5.665"/>
	<rect x="268.193" y="64.894" fill="#B681FF" stroke="#F6F6CC" stroke-miterlimit="10" width="35.072" height="5.665"/>
	<rect x="268.193" y="59.229" fill="#B681FF" stroke="#F6F6CC" stroke-miterlimit="10" width="35.072" height="5.665"/>
	<rect x="268.193" y="53.564" fill="#B681FF" stroke="#F6F6CC" stroke-miterlimit="10" width="35.072" height="5.665"/>
	<rect x="268.193" y="47.899" fill="#B681FF" stroke="#F6F6CC" stroke-miterlimit="10" width="35.072" height="5.665"/>
	<rect x="268.193" y="42.234" fill="#B681FF" stroke="#F6F6CC" stroke-miterlimit="10" width="35.072" height="5.665"/>
	<rect x="268.193" y="36.569" fill="#B681FF" stroke="#F6F6CC" stroke-miterlimit="10" width="35.072" height="5.665"/>
	<rect x="268.193" y="30.904" fill="#B681FF" stroke="#F6F6CC" stroke-miterlimit="10" width="35.072" height="5.665"/>
</g>
<g>
	<rect x="303.265" y="138.538" fill="#9288FF" stroke="#F6F6CC" stroke-miterlimit="10" width="35.072" height="5.665"/>
	<rect x="303.265" y="132.873" fill="#9288FF" stroke="#F6F6CC" stroke-miterlimit="10" width="35.072" height="5.665"/>
	<rect x="303.265" y="127.208" fill="#9288FF" stroke="#F6F6CC" stroke-miterlimit="10" width="35.072" height="5.665"/>
	<rect x="303.265" y="121.543" fill="#9288FF" stroke="#F6F6CC" stroke-miterlimit="10" width="35.072" height="5.665"/>
	<rect x="303.265" y="115.878" fill="#9288FF" stroke="#F6F6CC" stroke-miterlimit="10" width="35.072" height="5.665"/>
	<rect x="303.265" y="110.213" fill="#9288FF" stroke="#F6F6CC" stroke-miterlimit="10" width="35.072" height="5.665"/>
	<rect x="303.265" y="104.548" fill="#9288FF" stroke="#F6F6CC" stroke-miterlimit="10" width="35.072" height="5.665"/>
	<rect x="303.265" y="98.883" fill="#9288FF" stroke="#F6F6CC" stroke-miterlimit="10" width="35.072" height="5.665"/>
	<rect x="303.265" y="93.218" fill="#9288FF" stroke="#F6F6CC" stroke-miterlimit="10" width="35.072" height="5.665"/>
	<rect x="303.265" y="87.553" fill="#9288FF" stroke="#F6F6CC" stroke-miterlimit="10" width="35.072" height="5.665"/>
	<rect x="303.265" y="81.888" fill="#9288FF" stroke="#F6F6CC" stroke-miterlimit="10" width="35.072" height="5.665"/>
	<rect x="303.265" y="76.223" fill="#9288FF" stroke="#F6F6CC" stroke-miterlimit="10" width="35.072" height="5.665"/>
	<rect x="303.265" y="70.558" fill="#9288FF" stroke="#F6F6CC" stroke-miterlimit="10" width="35.072" height="5.665"/>
	<rect x="303.265" y="64.894" fill="#9288FF" stroke="#F6F6CC" stroke-miterlimit="10" width="35.072" height="5.665"/>
	<rect x="303.265" y="59.229" fill="#9288FF" stroke="#F6F6CC" stroke-miterlimit="10" width="35.072" height="5.665"/>
	<rect x="303.265" y="53.564" fill="#9288FF" stroke="#F6F6CC" stroke-miterlimit="10" width="35.072" height="5.665"/>
	<rect x="303.265" y="47.899" fill="#9288FF" stroke="#F6F6CC" stroke-miterlimit="10" width="35.072" height="5.665"/>
	<rect x="303.265" y="42.234" fill="#9288FF" stroke="#F6F6CC" stroke-miterlimit="10" width="35.072" height="5.665"/>
	<rect x="303.265" y="36.569" fill="#9288FF" stroke="#F6F6CC" stroke-miterlimit="10" width="35.072" height="5.665"/>
	<rect x="303.265" y="30.904" fill="#9288FF" stroke="#F6F6CC" stroke-miterlimit="10" width="35.072" height="5.665"/>
	<rect x="303.265" y="25.239" fill="#9288FF" stroke="#F6F6CC" stroke-miterlimit="10" width="35.072" height="5.665"/>
	<rect x="303.265" y="19.574" fill="#9288FF" stroke="#F6F6CC" stroke-miterlimit="10" width="35.072" height="5.665"/>
	<rect x="303.265" y="13.909" fill="#9288FF" stroke="#F6F6CC" stroke-miterlimit="10" width="35.072" height="5.665"/>
	<rect x="303.265" y="8.244" fill="#9288FF" stroke="#F6F6CC" stroke-miterlimit="10" width="35.072" height="5.665"/>
</g>
<rect x="6.999" y="111.591" fill="none" width="13.002" height="14.848"/>
<g>
	<path fill="#4D4D4D" d="M19.625,116.768v2.312c0,1.303-0.561,2.087-2.003,2.087c-1.415,0-2.017-0.784-2.017-2.129v-1.106h0.77
		v1.162c0,0.953,0.393,1.415,1.247,1.415c0.896,0,1.205-0.547,1.205-1.429v-2.312c0-1.093-0.561-1.387-1.219-1.387
		c-0.616,0-1.219,0.364-1.219,1.303v0.168H15.66v-5.267h3.768v0.658h-3.054v3.264h0.014c0.252-0.532,0.827-0.784,1.443-0.784
		C18.757,114.723,19.625,115.2,19.625,116.768z"/>
</g>
<rect x="6.999" y="82.191" fill="none" width="13.002" height="14.848"/>
<g>
	<path fill="#222222" d="M13.506,83.347h-0.014l-1.107,1.289h-0.014v-0.868l1.303-1.583h0.616v9.497h-0.785L13.506,83.347
		L13.506,83.347z"/>
	<path fill="#222222" d="M15.367,89.427V84.44c0-1.316,0.659-2.339,2.115-2.339c1.471,0,2.129,1.022,2.129,2.339v4.987
		c0,1.303-0.659,2.339-2.129,2.339C16.026,91.766,15.367,90.73,15.367,89.427z M18.813,89.539v-5.21c0-0.883-0.42-1.569-1.331-1.569
		c-0.896,0-1.317,0.687-1.317,1.569v5.21c0,0.869,0.42,1.569,1.317,1.569C18.393,91.108,18.813,90.408,18.813,89.539z"/>
</g>
<rect x="7.284" y="53.917" fill="none" width="13.002" height="14.848"/>
<g>
	<path fill="#222222" d="M14.043,55.073H14.03l-1.107,1.289h-0.014v-0.868l1.303-1.583h0.616v9.497h-0.785V55.073z"/>
	<path fill="#222222" d="M19.911,59.094v2.312c0,1.303-0.561,2.087-2.003,2.087c-1.415,0-2.017-0.784-2.017-2.129v-1.106h0.77v1.162
		c0,0.953,0.393,1.415,1.247,1.415c0.896,0,1.205-0.547,1.205-1.429v-2.312c0-1.093-0.561-1.387-1.219-1.387
		c-0.616,0-1.219,0.364-1.219,1.303v0.168h-0.729v-5.267h3.768v0.658H16.66v3.264h0.014c0.252-0.532,0.827-0.784,1.443-0.784
		C19.042,57.049,19.911,57.525,19.911,59.094z"/>
</g>
<rect x="7.284" y="25.479" fill="none" width="13.002" height="14.848"/>
<g>
	<path fill="#222222" d="M11.061,33.43c0-1.022,0.35-1.541,1.148-2.423l1.009-1.106c0.56-0.617,0.854-1.135,0.854-1.85v-0.826
		c0-0.883-0.435-1.177-1.093-1.177s-1.106,0.351-1.106,1.261v1.106h-0.785v-1.093c0-1.274,0.714-1.933,1.919-1.933
		c1.219,0,1.863,0.574,1.863,1.835v0.896c0,0.799-0.294,1.387-1.051,2.228l-1.134,1.246c-0.546,0.603-0.854,0.911-0.854,1.835v0.883
		h3.025v0.658H11.06L11.061,33.43L11.061,33.43z"/>
</g>
<g>
	<path fill="#222222" d="M15.583,32.716v-4.987c0-1.316,0.659-2.339,2.115-2.339c1.471,0,2.129,1.022,2.129,2.339v4.987
		c0,1.303-0.659,2.339-2.129,2.339C16.242,35.055,15.583,34.019,15.583,32.716z M19.029,32.827v-5.21
		c0-0.883-0.42-1.569-1.331-1.569c-0.896,0-1.317,0.687-1.317,1.569v5.21c0,0.869,0.42,1.569,1.317,1.569
		C18.609,34.397,19.029,33.696,19.029,32.827z"/>
</g>
<g>
	<path fill="#222222" d="M30.724,152.835H30.71l-1.107,1.289H29.59v-0.868l1.303-1.583h0.616v9.497h-0.785
		C30.724,161.17,30.724,152.835,30.724,152.835z"/>
</g>
<g>
	<path fill="#222222" d="M36.648,153.927v5.043c0,1.527-0.756,2.283-2.073,2.283c-1.331,0-1.989-0.714-1.989-2.129v-0.631h0.756
		v0.687c0,0.98,0.42,1.415,1.219,1.415c0.784,0,1.303-0.435,1.303-1.513v-2.27H35.85c-0.238,0.435-0.729,0.841-1.555,0.841
		c-1.149,0-1.807-0.7-1.807-2.199v-1.639c0-1.472,0.687-2.228,2.073-2.228S36.648,152.457,36.648,153.927z M33.272,153.773v1.724
		c0,1.051,0.435,1.499,1.275,1.499c0.714,0,1.303-0.49,1.317-1.457v-1.723c0-1.023-0.477-1.569-1.303-1.569
		C33.734,152.247,33.272,152.709,33.272,153.773z"/>
</g>
<g>
	<path fill="#222222" d="M37.402,159.629c0-1.022,0.35-1.541,1.148-2.423l1.009-1.106c0.56-0.617,0.854-1.135,0.854-1.85v-0.826
		c0-0.883-0.435-1.177-1.093-1.177s-1.106,0.351-1.106,1.261v1.106H37.43v-1.093c0-1.274,0.714-1.933,1.919-1.933
		c1.219,0,1.863,0.574,1.863,1.835v0.896c0,0.799-0.294,1.387-1.051,2.228l-1.134,1.246c-0.546,0.603-0.854,0.911-0.854,1.835v0.883
		h3.025v0.658h-3.796V159.629z"/>
</g>
<g>
	<path fill="#222222" d="M41.923,158.915v-4.987c0-1.316,0.659-2.339,2.115-2.339c1.471,0,2.129,1.022,2.129,2.339v4.987
		c0,1.303-0.659,2.339-2.129,2.339C42.582,161.254,41.923,160.217,41.923,158.915z M45.369,159.026v-5.21
		c0-0.883-0.42-1.569-1.331-1.569c-0.896,0-1.317,0.687-1.317,1.569v5.21c0,0.869,0.42,1.569,1.317,1.569
		C44.949,160.595,45.369,159.895,45.369,159.026z"/>
</g>
<g>
	<path fill="#222222" d="M50.62,159.377c0,1.163-0.574,1.877-1.891,1.877c-1.247,0-1.849-0.756-1.849-1.933v-0.785h0.729v0.812
		c0,0.785,0.35,1.261,1.121,1.261c0.812,0,1.148-0.406,1.148-1.19v-0.252c0-0.589-0.196-0.911-0.953-1.513l-0.812-0.645
		c-0.798-0.631-1.176-1.106-1.176-1.934v-0.224c0-1.009,0.56-1.709,1.779-1.709c1.274,0,1.821,0.658,1.821,1.863v0.574h-0.728
		v-0.603c0-0.799-0.322-1.19-1.093-1.19c-0.729,0-1.051,0.406-1.051,1.036v0.225c0,0.532,0.196,0.798,0.896,1.345l0.812,0.645
		c0.953,0.756,1.247,1.19,1.247,2.072C50.62,159.109,50.62,159.377,50.62,159.377z"/>
</g>
<g>
	<path fill="#222222" d="M65.691,152.835h-0.014l-1.107,1.289h-0.014v-0.868l1.303-1.583h0.616v9.497H65.69L65.691,152.835
		L65.691,152.835z"/>
</g>
<g>
	<path fill="#222222" d="M71.615,153.927v5.043c0,1.527-0.756,2.283-2.073,2.283c-1.331,0-1.989-0.714-1.989-2.129v-0.631h0.756
		v0.687c0,0.98,0.42,1.415,1.219,1.415c0.784,0,1.303-0.435,1.303-1.513v-2.27h-0.014c-0.238,0.435-0.729,0.841-1.555,0.841
		c-1.149,0-1.807-0.7-1.807-2.199v-1.639c0-1.472,0.687-2.228,2.073-2.228S71.615,152.457,71.615,153.927z M68.239,153.773v1.724
		c0,1.051,0.435,1.499,1.275,1.499c0.714,0,1.303-0.49,1.317-1.457v-1.723c0-1.023-0.477-1.569-1.303-1.569
		C68.701,152.247,68.239,152.709,68.239,153.773z"/>
</g>
<g>
	<path fill="#222222" d="M76.319,153.591v0.98c0,0.868-0.49,1.345-1.149,1.527c0.743,0.153,1.233,0.672,1.233,1.639v1.499
		c0,1.246-0.588,2.017-2.031,2.017c-1.429,0-2.031-0.742-2.031-2.087v-1.232h0.785v1.288c0,0.925,0.378,1.373,1.247,1.373
		s1.233-0.504,1.233-1.373v-1.541c0-0.798-0.42-1.232-1.233-1.232h-0.574v-0.645h0.546c0.784,0,1.205-0.434,1.205-1.162v-1.051
		c0-0.938-0.392-1.345-1.148-1.345c-0.812,0-1.177,0.462-1.177,1.289v0.966h-0.771v-0.91c0-1.232,0.616-2.003,1.989-2.003
		C75.703,151.588,76.319,152.26,76.319,153.591z"/>
</g>
<g>
	<path fill="#222222" d="M77.17,158.915v-4.987c0-1.316,0.659-2.339,2.115-2.339c1.471,0,2.129,1.022,2.129,2.339v4.987
		c0,1.303-0.659,2.339-2.129,2.339C77.829,161.254,77.17,160.217,77.17,158.915z M80.616,159.026v-5.21
		c0-0.883-0.42-1.569-1.331-1.569c-0.896,0-1.317,0.687-1.317,1.569v5.21c0,0.869,0.42,1.569,1.317,1.569
		C80.196,160.595,80.616,159.895,80.616,159.026z"/>
</g>
<g>
	<path fill="#222222" d="M85.866,159.377c0,1.163-0.574,1.877-1.891,1.877c-1.247,0-1.849-0.756-1.849-1.933v-0.785h0.729v0.812
		c0,0.785,0.35,1.261,1.121,1.261c0.812,0,1.148-0.406,1.148-1.19v-0.252c0-0.589-0.196-0.911-0.953-1.513l-0.812-0.645
		c-0.798-0.631-1.176-1.106-1.176-1.934v-0.224c0-1.009,0.56-1.709,1.779-1.709c1.274,0,1.821,0.658,1.821,1.863v0.574h-0.728
		v-0.603c0-0.799-0.322-1.19-1.093-1.19c-0.729,0-1.051,0.406-1.051,1.036v0.225c0,0.532,0.196,0.798,0.896,1.345l0.812,0.645
		c0.953,0.756,1.247,1.19,1.247,2.072V159.377z"/>
</g>
<g>
	<path fill="#222222" d="M100.722,152.835h-0.014l-1.107,1.289h-0.014v-0.868l1.303-1.583h0.616v9.497h-0.784V152.835z"/>
</g>
<g>
	<path fill="#222222" d="M106.645,153.927v5.043c0,1.527-0.756,2.283-2.073,2.283c-1.331,0-1.989-0.714-1.989-2.129v-0.631h0.756
		v0.687c0,0.98,0.42,1.415,1.219,1.415c0.784,0,1.303-0.435,1.303-1.513v-2.27h-0.014c-0.238,0.435-0.729,0.841-1.555,0.841
		c-1.149,0-1.807-0.7-1.807-2.199v-1.639c0-1.472,0.687-2.228,2.073-2.228S106.645,152.457,106.645,153.927z M103.269,153.773v1.724
		c0,1.051,0.435,1.499,1.275,1.499c0.714,0,1.303-0.49,1.317-1.457v-1.723c0-1.023-0.477-1.569-1.303-1.569
		C103.732,152.247,103.269,152.709,103.269,153.773z"/>
</g>
<g>
	<path fill="#222222" d="M107.175,158.69l2.914-7.018h0.84v6.892h0.714v0.631h-0.714v1.975h-0.784v-1.975h-2.97V158.69z
		 M107.917,158.564h2.241v-5.393h-0.014L107.917,158.564z"/>
</g>
<g>
	<path fill="#222222" d="M112.285,158.915v-4.987c0-1.316,0.659-2.339,2.115-2.339c1.471,0,2.129,1.022,2.129,2.339v4.987
		c0,1.303-0.659,2.339-2.129,2.339C112.943,161.254,112.285,160.217,112.285,158.915z M115.73,159.026v-5.21
		c0-0.883-0.42-1.569-1.331-1.569c-0.896,0-1.317,0.687-1.317,1.569v5.21c0,0.869,0.42,1.569,1.317,1.569
		C115.31,160.595,115.73,159.895,115.73,159.026z"/>
</g>
<g>
	<path fill="#222222" d="M120.98,159.377c0,1.163-0.574,1.877-1.891,1.877c-1.247,0-1.849-0.756-1.849-1.933v-0.785h0.729v0.812
		c0,0.785,0.35,1.261,1.121,1.261c0.812,0,1.148-0.406,1.148-1.19v-0.252c0-0.589-0.196-0.911-0.953-1.513l-0.812-0.645
		c-0.798-0.631-1.176-1.106-1.176-1.934v-0.224c0-1.009,0.56-1.709,1.779-1.709c1.274,0,1.821,0.658,1.821,1.863v0.574h-0.728
		v-0.603c0-0.799-0.322-1.19-1.093-1.19c-0.729,0-1.051,0.406-1.051,1.036v0.225c0,0.532,0.196,0.798,0.896,1.345l0.812,0.645
		c0.953,0.756,1.247,1.19,1.247,2.072V159.377z"/>
</g>
<g>
	<path fill="#222222" d="M135.836,152.835h-0.014l-1.107,1.289h-0.014v-0.868l1.303-1.583h0.616v9.497h-0.785v-8.335H135.836z"/>
</g>
<g>
	<path fill="#222222" d="M141.76,153.927v5.043c0,1.527-0.756,2.283-2.073,2.283c-1.331,0-1.989-0.714-1.989-2.129v-0.631h0.756
		v0.687c0,0.98,0.42,1.415,1.219,1.415c0.784,0,1.303-0.435,1.303-1.513v-2.27h-0.014c-0.238,0.435-0.729,0.841-1.555,0.841
		c-1.149,0-1.807-0.7-1.807-2.199v-1.639c0-1.472,0.687-2.228,2.073-2.228S141.76,152.457,141.76,153.927z M138.384,153.773v1.724
		c0,1.051,0.435,1.499,1.275,1.499c0.714,0,1.303-0.49,1.317-1.457v-1.723c0-1.023-0.477-1.569-1.303-1.569
		C138.846,152.247,138.384,152.709,138.384,153.773z"/>
</g>
<g>
	<path fill="#222222" d="M146.618,156.855v2.312c0,1.303-0.561,2.087-2.003,2.087c-1.415,0-2.017-0.784-2.017-2.129v-1.106h0.77
		v1.162c0,0.953,0.393,1.415,1.247,1.415c0.896,0,1.205-0.547,1.205-1.429v-2.312c0-1.093-0.561-1.387-1.219-1.387
		c-0.616,0-1.219,0.364-1.219,1.303v0.168h-0.729v-5.267h3.768v0.658h-3.054v3.264h0.014c0.252-0.532,0.827-0.784,1.443-0.784
		C145.749,154.81,146.618,155.287,146.618,156.855z"/>
</g>
<g>
	<path fill="#222222" d="M147.385,158.915v-4.987c0-1.316,0.659-2.339,2.115-2.339c1.471,0,2.129,1.022,2.129,2.339v4.987
		c0,1.303-0.659,2.339-2.129,2.339C148.044,161.254,147.385,160.217,147.385,158.915z M150.831,159.026v-5.21
		c0-0.883-0.42-1.569-1.331-1.569c-0.896,0-1.317,0.687-1.317,1.569v5.21c0,0.869,0.42,1.569,1.317,1.569
		C150.411,160.595,150.831,159.895,150.831,159.026z"/>
</g>
<g>
	<path fill="#222222" d="M156.081,159.377c0,1.163-0.574,1.877-1.891,1.877c-1.247,0-1.849-0.756-1.849-1.933v-0.785h0.729v0.812
		c0,0.785,0.35,1.261,1.121,1.261c0.812,0,1.148-0.406,1.148-1.19v-0.252c0-0.589-0.196-0.911-0.953-1.513l-0.812-0.645
		c-0.798-0.631-1.176-1.106-1.176-1.934v-0.224c0-1.009,0.56-1.709,1.779-1.709c1.274,0,1.821,0.658,1.821,1.863v0.574h-0.728
		v-0.603c0-0.799-0.322-1.19-1.093-1.19c-0.729,0-1.051,0.406-1.051,1.036v0.225c0,0.532,0.196,0.798,0.896,1.345l0.812,0.645
		c0.953,0.756,1.247,1.19,1.247,2.072V159.377z"/>
</g>
<g>
	<path fill="#222222" d="M170.838,152.835h-0.014l-1.107,1.289h-0.014v-0.868l1.303-1.583h0.616v9.497h-0.785v-8.335H170.838z"/>
</g>
<g>
	<path fill="#222222" d="M176.762,153.927v5.043c0,1.527-0.756,2.283-2.073,2.283c-1.331,0-1.989-0.714-1.989-2.129v-0.631h0.756
		v0.687c0,0.98,0.42,1.415,1.219,1.415c0.784,0,1.303-0.435,1.303-1.513v-2.27h-0.014c-0.238,0.435-0.729,0.841-1.555,0.841
		c-1.149,0-1.807-0.7-1.807-2.199v-1.639c0-1.472,0.687-2.228,2.073-2.228S176.762,152.457,176.762,153.927z M173.386,153.773v1.724
		c0,1.051,0.435,1.499,1.275,1.499c0.714,0,1.303-0.49,1.317-1.457v-1.723c0-1.023-0.477-1.569-1.303-1.569
		C173.849,152.247,173.386,152.709,173.386,153.773z"/>
</g>
<g>
	<path fill="#222222" d="M177.544,158.915v-5.029c0-1.484,0.756-2.297,2.073-2.297c1.331,0,1.933,0.714,1.933,2.129v0.631h-0.756
		v-0.687c0-0.98-0.378-1.415-1.163-1.415c-0.799,0-1.289,0.49-1.289,1.526v2.256h0.014c0.224-0.463,0.714-0.841,1.471-0.841
		c1.219,0,1.877,0.7,1.877,2.199v1.639c0,1.472-0.686,2.228-2.087,2.228C178.245,161.254,177.544,160.385,177.544,158.915z
		 M180.906,159.083v-1.737c0-1.051-0.42-1.499-1.261-1.499c-0.714,0-1.303,0.49-1.303,1.457v1.737c0,1.022,0.448,1.555,1.275,1.555
		C180.457,160.595,180.906,160.147,180.906,159.083z"/>
</g>
<g>
	<path fill="#222222" d="M182.388,158.915v-4.987c0-1.316,0.659-2.339,2.115-2.339c1.471,0,2.129,1.022,2.129,2.339v4.987
		c0,1.303-0.659,2.339-2.129,2.339C183.047,161.254,182.388,160.217,182.388,158.915z M185.834,159.026v-5.21
		c0-0.883-0.42-1.569-1.331-1.569c-0.896,0-1.317,0.687-1.317,1.569v5.21c0,0.869,0.42,1.569,1.317,1.569
		C185.414,160.595,185.834,159.895,185.834,159.026z"/>
</g>
<g>
	<path fill="#222222" d="M191.084,159.377c0,1.163-0.574,1.877-1.891,1.877c-1.247,0-1.849-0.756-1.849-1.933v-0.785h0.729v0.812
		c0,0.785,0.35,1.261,1.12,1.261c0.812,0,1.148-0.406,1.148-1.19v-0.252c0-0.589-0.196-0.911-0.952-1.513l-0.812-0.645
		c-0.799-0.631-1.177-1.106-1.177-1.934v-0.224c0-1.009,0.561-1.709,1.779-1.709c1.274,0,1.82,0.658,1.82,1.863v0.574h-0.728v-0.603
		c0-0.799-0.322-1.19-1.093-1.19c-0.729,0-1.051,0.406-1.051,1.036v0.225c0,0.532,0.196,0.798,0.896,1.345l0.812,0.645
		c0.952,0.756,1.246,1.19,1.246,2.072v0.268L191.084,159.377L191.084,159.377z"/>
</g>
<g>
	<path fill="#222222" d="M206.296,152.835h-0.014l-1.107,1.289h-0.014v-0.868l1.303-1.583h0.616v9.497h-0.784L206.296,152.835
		L206.296,152.835z"/>
</g>
<g>
	<path fill="#222222" d="M212.22,153.927v5.043c0,1.527-0.757,2.283-2.073,2.283c-1.331,0-1.989-0.714-1.989-2.129v-0.631h0.757
		v0.687c0,0.98,0.42,1.415,1.219,1.415c0.784,0,1.303-0.435,1.303-1.513v-2.27h-0.015c-0.238,0.435-0.729,0.841-1.555,0.841
		c-1.148,0-1.807-0.7-1.807-2.199v-1.639c0-1.472,0.687-2.228,2.073-2.228S212.22,152.457,212.22,153.927z M208.844,153.773v1.724
		c0,1.051,0.435,1.499,1.274,1.499c0.715,0,1.303-0.49,1.317-1.457v-1.723c0-1.023-0.477-1.569-1.303-1.569
		C209.306,152.247,208.844,152.709,208.844,153.773z"/>
</g>
<g>
	<path fill="#222222" d="M212.525,151.672h3.642v1.177l-2.227,8.32h-0.799l2.256-8.404v-0.448h-2.872V151.672z"/>
</g>
<g>
	<path fill="#222222" d="M216.726,158.915v-4.987c0-1.316,0.658-2.339,2.115-2.339c1.471,0,2.129,1.022,2.129,2.339v4.987
		c0,1.303-0.658,2.339-2.129,2.339C217.384,161.254,216.726,160.217,216.726,158.915z M220.171,159.026v-5.21
		c0-0.883-0.42-1.569-1.33-1.569c-0.896,0-1.317,0.687-1.317,1.569v5.21c0,0.869,0.421,1.569,1.317,1.569
		C219.751,160.595,220.171,159.895,220.171,159.026z"/>
</g>
<g>
	<path fill="#222222" d="M225.421,159.377c0,1.163-0.574,1.877-1.891,1.877c-1.247,0-1.849-0.756-1.849-1.933v-0.785h0.729v0.812
		c0,0.785,0.35,1.261,1.12,1.261c0.812,0,1.148-0.406,1.148-1.19v-0.252c0-0.589-0.196-0.911-0.952-1.513l-0.812-0.645
		c-0.799-0.631-1.177-1.106-1.177-1.934v-0.224c0-1.009,0.561-1.709,1.779-1.709c1.274,0,1.82,0.658,1.82,1.863v0.574h-0.728v-0.603
		c0-0.799-0.322-1.19-1.093-1.19c-0.729,0-1.051,0.406-1.051,1.036v0.225c0,0.532,0.196,0.798,0.896,1.345l0.812,0.645
		c0.952,0.756,1.246,1.19,1.246,2.072v0.268L225.421,159.377L225.421,159.377z"/>
</g>
<g>
	<path fill="#222222" d="M240.941,152.835h-0.014l-1.107,1.289h-0.014v-0.868l1.303-1.583h0.616v9.497h-0.784L240.941,152.835
		L240.941,152.835z"/>
</g>
<g>
	<path fill="#222222" d="M246.865,153.927v5.043c0,1.527-0.757,2.283-2.073,2.283c-1.331,0-1.989-0.714-1.989-2.129v-0.631h0.757
		v0.687c0,0.98,0.42,1.415,1.219,1.415c0.784,0,1.303-0.435,1.303-1.513v-2.27h-0.015c-0.238,0.435-0.729,0.841-1.555,0.841
		c-1.148,0-1.807-0.7-1.807-2.199v-1.639c0-1.472,0.687-2.228,2.073-2.228S246.865,152.457,246.865,153.927z M243.489,153.773v1.724
		c0,1.051,0.435,1.499,1.274,1.499c0.715,0,1.303-0.49,1.317-1.457v-1.723c0-1.023-0.477-1.569-1.303-1.569
		C243.951,152.247,243.489,152.709,243.489,153.773z"/>
</g>
<g>
	<path fill="#222222" d="M247.619,159.054v-1.232c0-0.925,0.35-1.625,1.162-1.934c-0.7-0.294-0.966-0.938-0.966-1.751v-0.49
		c0-1.274,0.616-2.059,1.933-2.059c1.331,0,1.947,0.784,1.947,2.059v0.49c0,0.812-0.28,1.457-0.98,1.751
		c0.812,0.309,1.177,1.009,1.177,1.934v1.232c0,1.274-0.645,2.199-2.144,2.199S247.619,160.329,247.619,159.054z M251.093,159.083
		v-1.373c0-0.854-0.393-1.484-1.345-1.484c-0.938,0-1.331,0.63-1.331,1.484v1.373c0,0.854,0.393,1.513,1.331,1.513
		C250.7,160.595,251.093,159.937,251.093,159.083z M250.938,154.179v-0.546c0-0.841-0.336-1.387-1.19-1.387
		s-1.177,0.546-1.177,1.387v0.546c0,0.799,0.267,1.387,1.177,1.387C250.673,155.566,250.938,154.978,250.938,154.179z"/>
</g>
<g>
	<path fill="#222222" d="M252.644,158.915v-4.987c0-1.316,0.659-2.339,2.115-2.339c1.471,0,2.13,1.022,2.13,2.339v4.987
		c0,1.303-0.659,2.339-2.13,2.339C253.304,161.254,252.644,160.217,252.644,158.915z M256.091,159.026v-5.21
		c0-0.883-0.42-1.569-1.331-1.569c-0.896,0-1.316,0.687-1.316,1.569v5.21c0,0.869,0.42,1.569,1.316,1.569
		C255.671,160.595,256.091,159.895,256.091,159.026z"/>
</g>
<g>
	<path fill="#222222" d="M261.341,159.377c0,1.163-0.574,1.877-1.891,1.877c-1.247,0-1.85-0.756-1.85-1.933v-0.785h0.729v0.812
		c0,0.785,0.351,1.261,1.121,1.261c0.812,0,1.148-0.406,1.148-1.19v-0.252c0-0.589-0.196-0.911-0.953-1.513l-0.812-0.645
		c-0.798-0.631-1.176-1.106-1.176-1.934v-0.224c0-1.009,0.56-1.709,1.778-1.709c1.274,0,1.821,0.658,1.821,1.863v0.574h-0.729
		v-0.603c0-0.799-0.322-1.19-1.093-1.19c-0.729,0-1.051,0.406-1.051,1.036v0.225c0,0.532,0.196,0.798,0.896,1.345l0.812,0.645
		c0.953,0.756,1.247,1.19,1.247,2.072v0.268L261.341,159.377L261.341,159.377z"/>
</g>
<g>
	<path fill="#222222" d="M276.056,152.835h-0.014l-1.106,1.289h-0.014v-0.868l1.303-1.583h0.616v9.497h-0.785V152.835z"/>
</g>
<g>
	<path fill="#222222" d="M281.979,153.927v5.043c0,1.527-0.756,2.283-2.073,2.283c-1.33,0-1.988-0.714-1.988-2.129v-0.631h0.756
		v0.687c0,0.98,0.42,1.415,1.219,1.415c0.784,0,1.303-0.435,1.303-1.513v-2.27h-0.014c-0.238,0.435-0.729,0.841-1.555,0.841
		c-1.149,0-1.808-0.7-1.808-2.199v-1.639c0-1.472,0.687-2.228,2.073-2.228S281.979,152.457,281.979,153.927z M278.603,153.773v1.724
		c0,1.051,0.435,1.499,1.275,1.499c0.714,0,1.303-0.49,1.316-1.457v-1.723c0-1.023-0.477-1.569-1.303-1.569
		S278.603,152.709,278.603,153.773z"/>
</g>
<g>
	<path fill="#222222" d="M286.893,153.927v5.043c0,1.527-0.756,2.283-2.073,2.283c-1.33,0-1.988-0.714-1.988-2.129v-0.631h0.756
		v0.687c0,0.98,0.42,1.415,1.219,1.415c0.784,0,1.303-0.435,1.303-1.513v-2.27h-0.014c-0.238,0.435-0.729,0.841-1.555,0.841
		c-1.149,0-1.808-0.7-1.808-2.199v-1.639c0-1.472,0.687-2.228,2.073-2.228S286.893,152.457,286.893,153.927z M283.518,153.773v1.724
		c0,1.051,0.435,1.499,1.275,1.499c0.714,0,1.303-0.49,1.316-1.457v-1.723c0-1.023-0.477-1.569-1.303-1.569
		S283.518,152.709,283.518,153.773z"/>
</g>
<g>
	<path fill="#222222" d="M287.676,158.915v-4.987c0-1.316,0.658-2.339,2.115-2.339c1.471,0,2.129,1.022,2.129,2.339v4.987
		c0,1.303-0.658,2.339-2.129,2.339C288.334,161.254,287.676,160.217,287.676,158.915z M291.121,159.026v-5.21
		c0-0.883-0.42-1.569-1.33-1.569c-0.896,0-1.317,0.687-1.317,1.569v5.21c0,0.869,0.421,1.569,1.317,1.569
		C290.701,160.595,291.121,159.895,291.121,159.026z"/>
</g>
<g>
	<path fill="#222222" d="M296.371,159.377c0,1.163-0.574,1.877-1.891,1.877c-1.247,0-1.849-0.756-1.849-1.933v-0.785h0.729v0.812
		c0,0.785,0.35,1.261,1.12,1.261c0.812,0,1.148-0.406,1.148-1.19v-0.252c0-0.589-0.196-0.911-0.952-1.513l-0.812-0.645
		c-0.799-0.631-1.177-1.106-1.177-1.934v-0.224c0-1.009,0.561-1.709,1.779-1.709c1.274,0,1.82,0.658,1.82,1.863v0.574h-0.728v-0.603
		c0-0.799-0.322-1.19-1.093-1.19c-0.729,0-1.051,0.406-1.051,1.036v0.225c0,0.532,0.196,0.798,0.896,1.345l0.812,0.645
		c0.952,0.756,1.246,1.19,1.246,2.072v0.268L296.371,159.377L296.371,159.377z"/>
</g>
<g>
	<path fill="#222222" d="M309.146,159.629c0-1.022,0.351-1.541,1.148-2.423l1.009-1.106c0.561-0.617,0.854-1.135,0.854-1.85v-0.826
		c0-0.883-0.435-1.177-1.093-1.177s-1.106,0.351-1.106,1.261v1.106h-0.784v-1.093c0-1.274,0.714-1.933,1.919-1.933
		c1.219,0,1.863,0.574,1.863,1.835v0.896c0,0.799-0.295,1.387-1.051,2.228l-1.135,1.246c-0.546,0.603-0.854,0.911-0.854,1.835v0.883
		h3.025v0.658h-3.796L309.146,159.629L309.146,159.629z"/>
</g>
<g>
	<path fill="#222222" d="M313.669,158.915v-4.987c0-1.316,0.658-2.339,2.115-2.339c1.471,0,2.129,1.022,2.129,2.339v4.987
		c0,1.303-0.658,2.339-2.129,2.339C314.327,161.254,313.669,160.217,313.669,158.915z M317.114,159.026v-5.21
		c0-0.883-0.42-1.569-1.33-1.569c-0.896,0-1.317,0.687-1.317,1.569v5.21c0,0.869,0.421,1.569,1.317,1.569
		C316.694,160.595,317.114,159.895,317.114,159.026z"/>
</g>
<g>
	<path fill="#222222" d="M318.694,158.915v-4.987c0-1.316,0.659-2.339,2.115-2.339c1.471,0,2.13,1.022,2.13,2.339v4.987
		c0,1.303-0.659,2.339-2.13,2.339C319.353,161.254,318.694,160.217,318.694,158.915z M322.141,159.026v-5.21
		c0-0.883-0.42-1.569-1.331-1.569c-0.896,0-1.316,0.687-1.316,1.569v5.21c0,0.869,0.42,1.569,1.316,1.569
		C321.721,160.595,322.141,159.895,322.141,159.026z"/>
</g>
<g>
	<path fill="#222222" d="M323.721,158.915v-4.987c0-1.316,0.658-2.339,2.115-2.339c1.471,0,2.129,1.022,2.129,2.339v4.987
		c0,1.303-0.658,2.339-2.129,2.339C324.379,161.254,323.721,160.217,323.721,158.915z M327.166,159.026v-5.21
		c0-0.883-0.42-1.569-1.33-1.569c-0.896,0-1.317,0.687-1.317,1.569v5.21c0,0.869,0.421,1.569,1.317,1.569
		C326.746,160.595,327.166,159.895,327.166,159.026z"/>
</g>
<g>
	<path fill="#222222" d="M332.416,159.377c0,1.163-0.574,1.877-1.891,1.877c-1.247,0-1.849-0.756-1.849-1.933v-0.785h0.729v0.812
		c0,0.785,0.35,1.261,1.12,1.261c0.812,0,1.148-0.406,1.148-1.19v-0.252c0-0.589-0.196-0.911-0.952-1.513l-0.812-0.645
		c-0.799-0.631-1.177-1.106-1.177-1.934v-0.224c0-1.009,0.561-1.709,1.779-1.709c1.274,0,1.82,0.658,1.82,1.863v0.574h-0.728v-0.603
		c0-0.799-0.322-1.19-1.093-1.19c-0.729,0-1.051,0.406-1.051,1.036v0.225c0,0.532,0.196,0.798,0.896,1.345l0.812,0.645
		c0.952,0.756,1.246,1.19,1.246,2.072v0.268L332.416,159.377L332.416,159.377z"/>
</g>
<g>
	<path fill="#222222" d="M345.311,159.629c0-1.022,0.35-1.541,1.148-2.423l1.009-1.106c0.56-0.617,0.854-1.135,0.854-1.85v-0.826
		c0-0.883-0.435-1.177-1.093-1.177s-1.106,0.351-1.106,1.261v1.106h-0.785v-1.093c0-1.274,0.715-1.933,1.919-1.933
		c1.219,0,1.863,0.574,1.863,1.835v0.896c0,0.799-0.294,1.387-1.051,2.228l-1.134,1.246c-0.547,0.603-0.854,0.911-0.854,1.835v0.883
		h3.025v0.658h-3.796L345.311,159.629L345.311,159.629z"/>
</g>
<g>
	<path fill="#222222" d="M349.833,158.915v-4.987c0-1.316,0.659-2.339,2.115-2.339c1.471,0,2.13,1.022,2.13,2.339v4.987
		c0,1.303-0.659,2.339-2.13,2.339C350.492,161.254,349.833,160.217,349.833,158.915z M353.279,159.026v-5.21
		c0-0.883-0.42-1.569-1.331-1.569c-0.896,0-1.316,0.687-1.316,1.569v5.21c0,0.869,0.42,1.569,1.316,1.569
		C352.859,160.595,353.279,159.895,353.279,159.026z"/>
</g>
<g>
	<path fill="#222222" d="M355.84,152.835h-0.014l-1.107,1.289h-0.014v-0.868l1.303-1.583h0.616v9.497h-0.784V152.835z"/>
</g>
<g>
	<path fill="#222222" d="M357.701,158.915v-4.987c0-1.316,0.658-2.339,2.115-2.339c1.471,0,2.129,1.022,2.129,2.339v4.987
		c0,1.303-0.658,2.339-2.129,2.339C358.359,161.254,357.701,160.217,357.701,158.915z M361.146,159.026v-5.21
		c0-0.883-0.42-1.569-1.33-1.569c-0.896,0-1.317,0.687-1.317,1.569v5.21c0,0.869,0.421,1.569,1.317,1.569
		C360.727,160.595,361.146,159.895,361.146,159.026z"/>
</g>
<g>
	<path fill="#222222" d="M366.396,159.377c0,1.163-0.574,1.877-1.891,1.877c-1.247,0-1.849-0.756-1.849-1.933v-0.785h0.729v0.812
		c0,0.785,0.35,1.261,1.12,1.261c0.812,0,1.148-0.406,1.148-1.19v-0.252c0-0.589-0.196-0.911-0.952-1.513l-0.812-0.645
		c-0.799-0.631-1.177-1.106-1.177-1.934v-0.224c0-1.009,0.561-1.709,1.779-1.709c1.274,0,1.82,0.658,1.82,1.863v0.574h-0.728v-0.603
		c0-0.799-0.322-1.19-1.093-1.19c-0.729,0-1.051,0.406-1.051,1.036v0.225c0,0.532,0.196,0.798,0.896,1.345l0.812,0.645
		c0.952,0.756,1.246,1.19,1.246,2.072v0.268L366.396,159.377L366.396,159.377z"/>
</g>
<line fill="none" stroke="#464646" stroke-width="0.5" stroke-miterlimit="10" x1="23.499" y1="147.591" x2="373.5" y2="147.591"/>
<rect x="23.784" y="0" fill="none" width="165.167" height="16.153"/>
<g enable-background="new    ">
	<path fill="#222222" d="M24.271-0.004h2.683c1.909,0,2.593,0.883,2.593,2.503v1.44c0,1.009-0.378,1.675-1.242,1.927
		c1.044,0.198,1.566,0.882,1.566,1.999v1.836c0,1.621-0.774,2.503-2.665,2.503h-2.935C24.271,12.204,24.271-0.004,24.271-0.004z
		 M25.855,1.293v4.015h0.972c0.828,0,1.224-0.414,1.224-1.206v-1.62c0-0.793-0.396-1.188-1.26-1.188L25.855,1.293L25.855,1.293z
		 M27.026,10.907c0.846,0,1.278-0.414,1.278-1.188V7.703c0-0.774-0.396-1.171-1.296-1.171h-1.152v4.375H27.026z"/>
</g>
<g enable-background="new    ">
	<path fill="#222222" d="M34.388,12.204v-0.882h-0.054c-0.252,0.468-0.756,1.008-1.674,1.008c-1.387,0-2.106-0.774-2.106-2.503
		V9.035c0-1.656,0.936-2.106,2.25-2.701c1.296-0.558,1.584-0.846,1.584-1.332V4.426c0-0.864-0.252-1.296-1.026-1.296
		c-0.792,0-1.116,0.432-1.116,1.26v1.009h-1.422v-0.9c0-1.603,0.756-2.629,2.593-2.629c1.8,0,2.502,0.954,2.502,2.7v7.635
		L34.388,12.204L34.388,12.204z M34.388,9.774v-3.08c-0.162,0.198-0.378,0.36-1.242,0.792c-0.774,0.414-1.081,0.685-1.081,1.585
		v0.702c0,0.828,0.288,1.314,1.098,1.314C33.974,11.088,34.388,10.602,34.388,9.774z"/>
</g>
<g enable-background="new    ">
	<path fill="#222222" d="M36.834-0.004h1.53v12.208h-1.53V-0.004z"/>
</g>
<g>
	<path fill="#222222" d="M39.318-0.004h1.53v12.208h-1.53V-0.004z"/>
</g>
<g enable-background="new    ">
	<path fill="#222222" d="M47.258,9.396c0,1.765-0.919,2.935-2.737,2.935c-1.837,0-2.755-1.17-2.755-2.935V4.804
		c0-1.782,0.918-2.935,2.755-2.935c1.818,0,2.737,1.152,2.737,2.935V9.396z M45.745,9.629v-5.06c0-0.882-0.414-1.439-1.225-1.439
		c-0.828,0-1.242,0.558-1.242,1.439v5.06c0,0.883,0.414,1.44,1.242,1.44C45.331,11.069,45.745,10.512,45.745,9.629z"/>
</g>
<g enable-background="new    ">
	<path fill="#222222" d="M53.647,9.396c0,1.765-0.918,2.935-2.737,2.935c-1.837,0-2.755-1.17-2.755-2.935V4.804
		c0-1.782,0.918-2.935,2.755-2.935c1.818,0,2.737,1.152,2.737,2.935V9.396z M52.135,9.629v-5.06c0-0.882-0.414-1.439-1.224-1.439
		c-0.828,0-1.243,0.558-1.243,1.439v5.06c0,0.883,0.415,1.44,1.243,1.44C51.721,11.069,52.135,10.512,52.135,9.629z"/>
</g>
<g enable-background="new    ">
	<path fill="#222222" d="M58.398,4.426c0-0.828-0.288-1.296-1.099-1.296c-0.774,0-1.188,0.485-1.188,1.313v7.761h-1.53V1.995h1.53
		v1.026h0.019c0.27-0.612,0.773-1.152,1.818-1.152c1.278,0,1.98,0.774,1.98,2.503v7.832h-1.53
		C58.398,12.204,58.398,4.426,58.398,4.426z"/>
</g>
<g enable-background="new    ">
	<path fill="#222222" d="M62.376,12.204l2.359-12.208h1.854l2.376,12.208h-1.621l-0.468-2.557h-2.539l-0.45,2.557H62.376z
		 M64.573,8.351h2.07l-1.026-5.743h-0.018L64.573,8.351z"/>
</g>
<g enable-background="new    ">
	<path fill="#222222" d="M74.779,12.204h-1.53v-1.026h-0.036c-0.252,0.559-0.702,1.152-1.747,1.152
		c-1.314,0-2.088-0.774-2.088-2.503V4.372c0-1.729,0.792-2.503,2.053-2.503c1.044,0,1.512,0.558,1.782,1.116h0.036v-2.989h1.53
		V12.204z M70.908,9.774c0,0.828,0.288,1.314,1.134,1.314c0.756,0,1.17-0.468,1.207-1.225V4.48c0-0.828-0.414-1.35-1.207-1.35
		c-0.81,0-1.134,0.468-1.134,1.313V9.774z"/>
</g>
<g enable-background="new    ">
	<path fill="#222222" d="M81.097,12.204h-1.53v-1.026h-0.036c-0.252,0.559-0.702,1.152-1.747,1.152
		c-1.314,0-2.088-0.774-2.088-2.503V4.372c0-1.729,0.792-2.503,2.053-2.503c1.044,0,1.512,0.558,1.782,1.116h0.036v-2.989h1.53
		V12.204z M77.226,9.774c0,0.828,0.288,1.314,1.134,1.314c0.756,0,1.17-0.468,1.207-1.225V4.48c0-0.828-0.414-1.35-1.207-1.35
		c-0.81,0-1.134,0.468-1.134,1.313V9.774z"/>
</g>
<g enable-background="new    ">
	<path fill="#222222" d="M82.049-0.004h1.53v1.243h-1.53V-0.004z M82.049,1.995h1.53v10.209h-1.53V1.995z"/>
</g>
<g enable-background="new    ">
	<path fill="#222222" d="M84.173,1.995h0.757v-1.999h1.53v1.999h1.314v1.17H86.46v7.112c0,0.504,0.18,0.702,0.721,0.702h0.594v1.225
		h-0.756c-1.566,0-2.089-0.559-2.089-1.999v-7.04h-0.757C84.173,3.165,84.173,1.995,84.173,1.995z"/>
</g>
<g enable-background="new    ">
	<path fill="#222222" d="M88.476-0.004h1.53v1.243h-1.53V-0.004z M88.476,1.995h1.53v10.209h-1.53V1.995z"/>
</g>
<g enable-background="new    ">
	<path fill="#222222" d="M96.415,9.396c0,1.765-0.918,2.935-2.737,2.935c-1.837,0-2.755-1.17-2.755-2.935V4.804
		c0-1.782,0.918-2.935,2.755-2.935c1.818,0,2.737,1.152,2.737,2.935V9.396z M94.902,9.629v-5.06c0-0.882-0.414-1.439-1.224-1.439
		c-0.828,0-1.243,0.558-1.243,1.439v5.06c0,0.883,0.415,1.44,1.243,1.44C94.488,11.069,94.902,10.512,94.902,9.629z"/>
</g>
<g enable-background="new    ">
	<path fill="#222222" d="M101.166,4.426c0-0.828-0.288-1.296-1.098-1.296c-0.774,0-1.188,0.485-1.188,1.313v7.761h-1.53V1.995h1.53
		v1.026h0.018c0.27-0.612,0.774-1.152,1.818-1.152c1.278,0,1.981,0.774,1.981,2.503v7.832h-1.531V4.426z"/>
</g>
<g enable-background="new    ">
	<path fill="#222222" d="M108.69,9.755c0,1.585-0.792,2.575-2.593,2.575c-1.729,0-2.575-1.008-2.575-2.646V8.639h1.405v1.116
		c0,0.847,0.359,1.314,1.152,1.314c0.828,0,1.17-0.414,1.17-1.206V9.558c0-0.612-0.271-0.99-1.206-1.711l-0.883-0.702
		c-1.044-0.828-1.566-1.477-1.566-2.646V4.228c0-1.387,0.792-2.358,2.521-2.358c1.801,0,2.485,0.937,2.485,2.574v0.631h-1.368V4.372
		c0-0.828-0.343-1.242-1.117-1.242c-0.756,0-1.08,0.414-1.08,1.062v0.217c0,0.576,0.252,0.899,1.045,1.494l0.864,0.685
		c1.313,1.044,1.746,1.548,1.746,2.826C108.69,9.414,108.69,9.755,108.69,9.755z"/>
</g>
<g enable-background="new    ">
	<path fill="#222222" d="M111.425-0.004h1.53v3.043h0.018c0.27-0.576,0.792-1.17,1.854-1.17c1.296,0,1.999,0.774,1.999,2.503v5.455
		c0,1.729-0.792,2.503-2.088,2.503c-1.062,0-1.495-0.576-1.765-1.134h-0.018v1.008h-1.53V-0.004z M115.296,4.443
		c0-0.846-0.306-1.313-1.134-1.313c-0.756,0-1.17,0.468-1.207,1.224v5.528c0.036,0.756,0.45,1.206,1.188,1.206
		c0.828,0,1.152-0.486,1.152-1.314L115.296,4.443L115.296,4.443z"/>
</g>
<g enable-background="new    ">
	<path fill="#222222" d="M122.91,1.995l-2.214,10.191c-0.252,1.224-0.811,1.638-2.161,1.638h-0.594V12.6h0.576
		c0.54,0,0.702-0.181,0.864-0.757l0.144-0.594h-0.36l-1.962-9.255h1.584l1.26,6.878h0.018l1.44-6.878h1.405V1.995z"/>
</g>
<g enable-background="new    ">
	<path fill="#222222" d="M128.184-0.004c2.143,0,2.898,1.369,2.898,3.169v5.87c0,1.782-0.756,3.169-2.898,3.169h-2.881V-0.004
		H128.184z M126.888,10.907h1.098c1.116,0,1.513-0.684,1.513-1.602V2.877c0-0.899-0.396-1.584-1.513-1.584h-1.098
		C126.888,1.293,126.888,10.907,126.888,10.907z"/>
</g>
<g enable-background="new    ">
	<path fill="#222222" d="M137.418,8.405v1.116c0,1.765-0.828,2.809-2.646,2.809c-1.855,0-2.773-1.17-2.773-2.935V4.786
		c0-1.765,0.918-2.917,2.755-2.917c1.818,0,2.665,1.062,2.665,2.827v2.502h-3.907v2.431c0,0.883,0.45,1.44,1.279,1.44
		c0.81,0,1.188-0.504,1.188-1.404v-1.26H137.418z M133.511,6.065h2.431V4.569c0-0.899-0.378-1.439-1.188-1.439
		c-0.828,0-1.243,0.54-1.243,1.439V6.065z"/>
</g>
<g enable-background="new    ">
	<path fill="#222222" d="M143.701,8.405v1.116c0,1.765-0.811,2.809-2.629,2.809c-1.837,0-2.755-1.17-2.755-2.935V4.786
		c0-1.765,0.918-2.917,2.755-2.917c1.818,0,2.629,1.008,2.629,2.791v0.738h-1.477V4.516c0-0.882-0.342-1.386-1.152-1.386
		c-0.828,0-1.243,0.54-1.243,1.439v5.06c0,0.883,0.432,1.44,1.261,1.44c0.828,0,1.17-0.504,1.17-1.404v-1.26H143.701z"/>
</g>
<g enable-background="new    ">
	<path fill="#222222" d="M148.146,12.204v-0.882h-0.054c-0.252,0.468-0.756,1.008-1.674,1.008c-1.387,0-2.106-0.774-2.106-2.503
		V9.035c0-1.656,0.936-2.106,2.25-2.701c1.296-0.558,1.584-0.846,1.584-1.332V4.426c0-0.864-0.252-1.296-1.026-1.296
		c-0.792,0-1.116,0.432-1.116,1.26v1.009h-1.422v-0.9c0-1.603,0.756-2.629,2.593-2.629c1.8,0,2.502,0.954,2.502,2.7v7.635
		L148.146,12.204L148.146,12.204z M148.146,9.774v-3.08c-0.162,0.198-0.378,0.36-1.242,0.792c-0.774,0.414-1.081,0.685-1.081,1.585
		v0.702c0,0.828,0.288,1.314,1.098,1.314C147.732,11.088,148.146,10.602,148.146,9.774z"/>
</g>
<g enable-background="new    ">
	<path fill="#222222" d="M155.957,12.204h-1.53v-1.026h-0.036c-0.252,0.559-0.702,1.152-1.747,1.152
		c-1.314,0-2.088-0.774-2.088-2.503V4.372c0-1.729,0.792-2.503,2.053-2.503c1.044,0,1.512,0.558,1.782,1.116h0.036v-2.989h1.53
		V12.204z M152.086,9.774c0,0.828,0.288,1.314,1.134,1.314c0.756,0,1.17-0.468,1.207-1.225V4.48c0-0.828-0.414-1.35-1.207-1.35
		c-0.81,0-1.134,0.468-1.134,1.313V9.774z"/>
</g>
<g enable-background="new    ">
	<path fill="#222222" d="M162.294,8.405v1.116c0,1.765-0.828,2.809-2.646,2.809c-1.855,0-2.773-1.17-2.773-2.935V4.786
		c0-1.765,0.918-2.917,2.755-2.917c1.818,0,2.665,1.062,2.665,2.827v2.502h-3.907v2.431c0,0.883,0.45,1.44,1.278,1.44
		c0.811,0,1.188-0.504,1.188-1.404v-1.26H162.294z M158.387,6.065h2.431V4.569c0-0.899-0.378-1.439-1.188-1.439
		c-0.828,0-1.242,0.54-1.242,1.439L158.387,6.065L158.387,6.065z"/>
</g>
<line fill="none" stroke="#B3B3B3" stroke-width="0.5" stroke-miterlimit="10" x1="23.455" y1="30.831" x2="373.955" y2="30.831"/>
</svg>
