<?xml version="1.0" encoding="utf-8"?>
<!-- Generator: Adobe Illustrator 17.0.0, SVG Export Plug-In . SVG Version: 6.00 Build 0)  -->
<!DOCTYPE svg PUBLIC "-//W3C//DTD SVG 1.1//EN" "http://www.w3.org/Graphics/SVG/1.1/DTD/svg11.dtd">
<svg version="1.1" id="Layer_1" xmlns="http://www.w3.org/2000/svg" xmlns:xlink="http://www.w3.org/1999/xlink" x="0px" y="0px"
	 width="364.699px" height="232.36px" viewBox="9.211 0 364.699 232.36" enable-background="new 9.211 0 364.699 232.36"
	 xml:space="preserve">
<g>
	<rect x="198.048" y="206.363" fill="#FF81F5" stroke="#F6F6CC" stroke-miterlimit="10" width="35.072" height="7.609"/>
	<rect x="198.048" y="198.754" fill="#FF81F5" stroke="#F6F6CC" stroke-miterlimit="10" width="35.072" height="7.609"/>
</g>
<g>
	<rect x="127.903" y="206.363" fill="#FF81A0" stroke="#F6F6CC" stroke-miterlimit="10" width="35.072" height="7.609"/>
	<rect x="127.903" y="198.754" fill="#FF81A0" stroke="#F6F6CC" stroke-miterlimit="10" width="35.072" height="7.609"/>
</g>
<g>
	<rect x="92.831" y="206.363" fill="#FF8A80" stroke="#F6F6CC" stroke-miterlimit="10" width="35.072" height="7.609"/>
	<rect x="92.831" y="198.754" fill="#FF8A80" stroke="#F6F6CC" stroke-miterlimit="10" width="35.072" height="7.609"/>
</g>
<g>
	<rect x="22.686" y="206.363" fill="#FFDF80" stroke="#F6F6CC" stroke-miterlimit="10" width="35.072" height="7.609"/>
	<rect x="22.686" y="198.754" fill="#FFDF80" stroke="#F6F6CC" stroke-miterlimit="10" width="35.072" height="7.609"/>
</g>
<g>
	<rect x="162.975" y="206.363" fill="#FF81CB" stroke="#F6F6CC" stroke-miterlimit="10" width="35.072" height="7.609"/>
	<rect x="162.975" y="198.754" fill="#FF81CB" stroke="#F6F6CC" stroke-miterlimit="10" width="35.072" height="7.609"/>
	<rect x="162.975" y="191.145" fill="#FF81CB" stroke="#F6F6CC" stroke-miterlimit="10" width="35.072" height="7.609"/>
	<rect x="162.975" y="183.537" fill="#FF81CB" stroke="#F6F6CC" stroke-miterlimit="10" width="35.072" height="7.609"/>
	<rect x="162.975" y="175.928" fill="#FF81CB" stroke="#F6F6CC" stroke-miterlimit="10" width="35.072" height="7.609"/>
	<rect x="162.975" y="168.319" fill="#FF81CB" stroke="#F6F6CC" stroke-miterlimit="10" width="35.072" height="7.609"/>
	<rect x="162.975" y="160.71" fill="#FF81CB" stroke="#F6F6CC" stroke-miterlimit="10" width="35.072" height="7.609"/>
</g>
<g>
	<rect x="338.338" y="206.363" fill="#81A0FF" stroke="#F6F6CC" stroke-miterlimit="10" width="35.072" height="7.609"/>
	<rect x="338.338" y="198.754" fill="#81A0FF" stroke="#F6F6CC" stroke-miterlimit="10" width="35.072" height="7.609"/>
	<rect x="338.338" y="191.145" fill="#81A0FF" stroke="#F6F6CC" stroke-miterlimit="10" width="35.072" height="7.609"/>
	<rect x="338.338" y="183.537" fill="#81A0FF" stroke="#F6F6CC" stroke-miterlimit="10" width="35.072" height="7.609"/>
	<rect x="338.338" y="175.928" fill="#81A0FF" stroke="#F6F6CC" stroke-miterlimit="10" width="35.072" height="7.609"/>
	<rect x="338.338" y="168.319" fill="#81A0FF" stroke="#F6F6CC" stroke-miterlimit="10" width="35.072" height="7.609"/>
	<rect x="338.338" y="160.71" fill="#81A0FF" stroke="#F6F6CC" stroke-miterlimit="10" width="35.072" height="7.609"/>
</g>
<g>
	<rect x="57.758" y="206.363" fill="#FFB581" stroke="#F6F6CC" stroke-miterlimit="10" width="35.072" height="7.609"/>
	<rect x="57.758" y="198.754" fill="#FFB581" stroke="#F6F6CC" stroke-miterlimit="10" width="35.072" height="7.609"/>
	<rect x="57.758" y="191.145" fill="#FFB581" stroke="#F6F6CC" stroke-miterlimit="10" width="35.072" height="7.609"/>
	<rect x="57.758" y="183.537" fill="#FFB581" stroke="#F6F6CC" stroke-miterlimit="10" width="35.072" height="7.609"/>
	<rect x="57.758" y="175.928" fill="#FFB581" stroke="#F6F6CC" stroke-miterlimit="10" width="35.072" height="7.609"/>
	<rect x="57.758" y="168.319" fill="#FFB581" stroke="#F6F6CC" stroke-miterlimit="10" width="35.072" height="7.609"/>
	<rect x="57.758" y="160.71" fill="#FFB581" stroke="#F6F6CC" stroke-miterlimit="10" width="35.072" height="7.609"/>
	<rect x="57.758" y="153.101" fill="#FFB581" stroke="#F6F6CC" stroke-miterlimit="10" width="35.072" height="7.609"/>
	<rect x="57.758" y="145.493" fill="#FFB581" stroke="#F6F6CC" stroke-miterlimit="10" width="35.072" height="7.609"/>
	<rect x="57.758" y="137.884" fill="#FFB581" stroke="#F6F6CC" stroke-miterlimit="10" width="35.072" height="7.609"/>
	<rect x="57.758" y="130.275" fill="#FFB581" stroke="#F6F6CC" stroke-miterlimit="10" width="35.072" height="7.609"/>
	<rect x="57.758" y="122.666" fill="#FFB581" stroke="#F6F6CC" stroke-miterlimit="10" width="35.072" height="7.609"/>
	<rect x="57.758" y="115.057" fill="#FFB581" stroke="#F6F6CC" stroke-miterlimit="10" width="35.072" height="7.609"/>
	<rect x="57.758" y="107.449" fill="#FFB581" stroke="#F6F6CC" stroke-miterlimit="10" width="35.072" height="7.609"/>
</g>
<g>
	<rect x="233.12" y="206.363" fill="#DF81FF" stroke="#F6F6CC" stroke-miterlimit="10" width="35.072" height="7.609"/>
	<rect x="233.12" y="198.754" fill="#DF81FF" stroke="#F6F6CC" stroke-miterlimit="10" width="35.072" height="7.609"/>
	<rect x="233.12" y="191.145" fill="#DF81FF" stroke="#F6F6CC" stroke-miterlimit="10" width="35.072" height="7.609"/>
	<rect x="233.12" y="183.537" fill="#DF81FF" stroke="#F6F6CC" stroke-miterlimit="10" width="35.072" height="7.609"/>
	<rect x="233.12" y="175.928" fill="#DF81FF" stroke="#F6F6CC" stroke-miterlimit="10" width="35.072" height="7.609"/>
	<rect x="233.12" y="168.319" fill="#DF81FF" stroke="#F6F6CC" stroke-miterlimit="10" width="35.072" height="7.609"/>
	<rect x="233.12" y="160.71" fill="#DF81FF" stroke="#F6F6CC" stroke-miterlimit="10" width="35.072" height="7.609"/>
	<rect x="233.12" y="153.101" fill="#DF81FF" stroke="#F6F6CC" stroke-miterlimit="10" width="35.072" height="7.609"/>
	<rect x="233.12" y="145.493" fill="#DF81FF" stroke="#F6F6CC" stroke-miterlimit="10" width="35.072" height="7.609"/>
	<rect x="233.12" y="137.884" fill="#DF81FF" stroke="#F6F6CC" stroke-miterlimit="10" width="35.072" height="7.609"/>
	<rect x="233.12" y="130.275" fill="#DF81FF" stroke="#F6F6CC" stroke-miterlimit="10" width="35.072" height="7.609"/>
	<rect x="233.12" y="122.666" fill="#DF81FF" stroke="#F6F6CC" stroke-miterlimit="10" width="35.072" height="7.609"/>
	<rect x="233.12" y="115.057" fill="#DF81FF" stroke="#F6F6CC" stroke-miterlimit="10" width="35.072" height="7.609"/>
	<rect x="233.12" y="107.449" fill="#DF81FF" stroke="#F6F6CC" stroke-miterlimit="10" width="35.072" height="7.609"/>
	<rect x="233.12" y="99.84" fill="#DF81FF" stroke="#F6F6CC" stroke-miterlimit="10" width="35.072" height="7.609"/>
</g>
<g>
	<rect x="268.193" y="206.363" fill="#B681FF" stroke="#F6F6CC" stroke-miterlimit="10" width="35.072" height="7.609"/>
	<rect x="268.193" y="198.754" fill="#B681FF" stroke="#F6F6CC" stroke-miterlimit="10" width="35.072" height="7.609"/>
	<rect x="268.193" y="191.145" fill="#B681FF" stroke="#F6F6CC" stroke-miterlimit="10" width="35.072" height="7.609"/>
	<rect x="268.193" y="183.537" fill="#B681FF" stroke="#F6F6CC" stroke-miterlimit="10" width="35.072" height="7.609"/>
	<rect x="268.193" y="175.928" fill="#B681FF" stroke="#F6F6CC" stroke-miterlimit="10" width="35.072" height="7.609"/>
	<rect x="268.193" y="168.319" fill="#B681FF" stroke="#F6F6CC" stroke-miterlimit="10" width="35.072" height="7.609"/>
	<rect x="268.193" y="160.71" fill="#B681FF" stroke="#F6F6CC" stroke-miterlimit="10" width="35.072" height="7.609"/>
	<rect x="268.193" y="153.101" fill="#B681FF" stroke="#F6F6CC" stroke-miterlimit="10" width="35.072" height="7.609"/>
	<rect x="268.193" y="145.493" fill="#B681FF" stroke="#F6F6CC" stroke-miterlimit="10" width="35.072" height="7.609"/>
	<rect x="268.193" y="137.884" fill="#B681FF" stroke="#F6F6CC" stroke-miterlimit="10" width="35.072" height="7.609"/>
	<rect x="268.193" y="130.275" fill="#B681FF" stroke="#F6F6CC" stroke-miterlimit="10" width="35.072" height="7.609"/>
	<rect x="268.193" y="122.666" fill="#B681FF" stroke="#F6F6CC" stroke-miterlimit="10" width="35.072" height="7.609"/>
	<rect x="268.193" y="115.057" fill="#B681FF" stroke="#F6F6CC" stroke-miterlimit="10" width="35.072" height="7.609"/>
	<rect x="268.193" y="107.449" fill="#B681FF" stroke="#F6F6CC" stroke-miterlimit="10" width="35.072" height="7.609"/>
	<rect x="268.193" y="99.84" fill="#B681FF" stroke="#F6F6CC" stroke-miterlimit="10" width="35.072" height="7.609"/>
	<rect x="268.193" y="92.231" fill="#B681FF" stroke="#F6F6CC" stroke-miterlimit="10" width="35.072" height="7.609"/>
	<rect x="268.193" y="84.622" fill="#B681FF" stroke="#F6F6CC" stroke-miterlimit="10" width="35.072" height="7.609"/>
	<rect x="268.193" y="77.013" fill="#B681FF" stroke="#F6F6CC" stroke-miterlimit="10" width="35.072" height="7.609"/>
	<rect x="268.193" y="69.404" fill="#B681FF" stroke="#F6F6CC" stroke-miterlimit="10" width="35.072" height="7.609"/>
	<rect x="268.193" y="61.796" fill="#B681FF" stroke="#F6F6CC" stroke-miterlimit="10" width="35.072" height="7.609"/>
</g>
<g>
	<rect x="303.265" y="206.363" fill="#9288FF" stroke="#F6F6CC" stroke-miterlimit="10" width="35.072" height="7.609"/>
	<rect x="303.265" y="198.754" fill="#9288FF" stroke="#F6F6CC" stroke-miterlimit="10" width="35.072" height="7.609"/>
	<rect x="303.265" y="191.145" fill="#9288FF" stroke="#F6F6CC" stroke-miterlimit="10" width="35.072" height="7.609"/>
	<rect x="303.265" y="183.537" fill="#9288FF" stroke="#F6F6CC" stroke-miterlimit="10" width="35.072" height="7.609"/>
	<rect x="303.265" y="175.928" fill="#9288FF" stroke="#F6F6CC" stroke-miterlimit="10" width="35.072" height="7.609"/>
	<rect x="303.265" y="168.319" fill="#9288FF" stroke="#F6F6CC" stroke-miterlimit="10" width="35.072" height="7.609"/>
	<rect x="303.265" y="160.71" fill="#9288FF" stroke="#F6F6CC" stroke-miterlimit="10" width="35.072" height="7.609"/>
	<rect x="303.265" y="153.101" fill="#9288FF" stroke="#F6F6CC" stroke-miterlimit="10" width="35.072" height="7.609"/>
	<rect x="303.265" y="145.493" fill="#9288FF" stroke="#F6F6CC" stroke-miterlimit="10" width="35.072" height="7.609"/>
	<rect x="303.265" y="137.884" fill="#9288FF" stroke="#F6F6CC" stroke-miterlimit="10" width="35.072" height="7.609"/>
	<rect x="303.265" y="130.275" fill="#9288FF" stroke="#F6F6CC" stroke-miterlimit="10" width="35.072" height="7.609"/>
	<rect x="303.265" y="122.666" fill="#9288FF" stroke="#F6F6CC" stroke-miterlimit="10" width="35.072" height="7.609"/>
	<rect x="303.265" y="115.057" fill="#9288FF" stroke="#F6F6CC" stroke-miterlimit="10" width="35.072" height="7.609"/>
	<rect x="303.265" y="107.449" fill="#9288FF" stroke="#F6F6CC" stroke-miterlimit="10" width="35.072" height="7.609"/>
	<rect x="303.265" y="99.84" fill="#9288FF" stroke="#F6F6CC" stroke-miterlimit="10" width="35.072" height="7.609"/>
	<rect x="303.265" y="92.231" fill="#9288FF" stroke="#F6F6CC" stroke-miterlimit="10" width="35.072" height="7.609"/>
	<rect x="303.265" y="84.622" fill="#9288FF" stroke="#F6F6CC" stroke-miterlimit="10" width="35.072" height="7.609"/>
	<rect x="303.265" y="77.013" fill="#9288FF" stroke="#F6F6CC" stroke-miterlimit="10" width="35.072" height="7.609"/>
	<rect x="303.265" y="69.404" fill="#9288FF" stroke="#F6F6CC" stroke-miterlimit="10" width="35.072" height="7.609"/>
	<rect x="303.265" y="61.796" fill="#9288FF" stroke="#F6F6CC" stroke-miterlimit="10" width="35.072" height="7.609"/>
	<rect x="303.265" y="54.187" fill="#9288FF" stroke="#F6F6CC" stroke-miterlimit="10" width="35.072" height="7.609"/>
	<rect x="303.265" y="46.578" fill="#9288FF" stroke="#F6F6CC" stroke-miterlimit="10" width="35.072" height="7.609"/>
	<rect x="303.265" y="38.969" fill="#9288FF" stroke="#F6F6CC" stroke-miterlimit="10" width="35.072" height="7.609"/>
	<rect x="303.265" y="31.36" fill="#9288FF" stroke="#F6F6CC" stroke-miterlimit="10" width="35.072" height="7.609"/>
</g>
<rect x="6.999" y="171.721" fill="none" width="13.002" height="14.848"/>
<g>
	<path fill="#222222" d="M19.625,176.899v2.312c0,1.303-0.561,2.087-2.003,2.087c-1.415,0-2.017-0.784-2.017-2.129v-1.106h0.77
		v1.162c0,0.953,0.393,1.415,1.247,1.415c0.896,0,1.205-0.547,1.205-1.429v-2.312c0-1.093-0.561-1.387-1.219-1.387
		c-0.616,0-1.219,0.364-1.219,1.303v0.168H15.66v-5.267h3.768v0.658h-3.054v3.264h0.014c0.252-0.532,0.827-0.784,1.443-0.784
		C18.757,174.854,19.625,175.33,19.625,176.899z"/>
</g>
<rect x="6.999" y="132.46" fill="none" width="13.002" height="14.848"/>
<g>
	<path fill="#222222" d="M13.506,133.617h-0.014l-1.107,1.289h-0.014v-0.868l1.303-1.583h0.616v9.497h-0.785L13.506,133.617
		L13.506,133.617z"/>
	<path fill="#222222" d="M15.367,139.697v-4.987c0-1.316,0.659-2.339,2.115-2.339c1.471,0,2.129,1.022,2.129,2.339v4.987
		c0,1.303-0.659,2.339-2.129,2.339C16.026,142.035,15.367,140.999,15.367,139.697z M18.813,139.808v-5.21
		c0-0.883-0.42-1.569-1.331-1.569c-0.896,0-1.317,0.687-1.317,1.569v5.21c0,0.869,0.42,1.569,1.317,1.569
		C18.393,141.377,18.813,140.677,18.813,139.808z"/>
</g>
<rect x="6.999" y="94.416" fill="none" width="13.002" height="14.848"/>
<g>
	<path fill="#222222" d="M13.758,95.573h-0.014l-1.107,1.289h-0.014v-0.868l1.303-1.583h0.616v9.497h-0.785L13.758,95.573
		L13.758,95.573z"/>
	<path fill="#222222" d="M19.625,99.593v2.312c0,1.303-0.561,2.087-2.003,2.087c-1.415,0-2.017-0.784-2.017-2.129v-1.106h0.77v1.162
		c0,0.953,0.393,1.415,1.247,1.415c0.896,0,1.205-0.547,1.205-1.429v-2.312c0-1.093-0.561-1.387-1.219-1.387
		c-0.616,0-1.219,0.364-1.219,1.303v0.168H15.66V94.41h3.768v0.658h-3.054v3.264h0.014c0.252-0.532,0.827-0.784,1.443-0.784
		C18.757,97.548,19.625,98.025,19.625,99.593z"/>
</g>
<rect x="6.999" y="56.372" fill="none" width="13.002" height="14.848"/>
<g>
	<path fill="#222222" d="M10.775,64.322c0-1.022,0.35-1.541,1.148-2.423l1.009-1.106c0.56-0.617,0.854-1.135,0.854-1.85v-0.826
		c0-0.883-0.435-1.177-1.093-1.177s-1.106,0.351-1.106,1.261v1.106h-0.785v-1.093c0-1.274,0.714-1.933,1.919-1.933
		c1.219,0,1.863,0.574,1.863,1.835v0.896c0,0.799-0.294,1.387-1.051,2.228L12.4,62.487c-0.546,0.603-0.854,0.911-0.854,1.835v0.883
		h3.025v0.658h-3.796V64.322z"/>
</g>
<g>
	<path fill="#222222" d="M15.297,63.608v-4.987c0-1.316,0.659-2.339,2.115-2.339c1.471,0,2.129,1.022,2.129,2.339v4.987
		c0,1.303-0.659,2.339-2.129,2.339C15.956,65.947,15.297,64.911,15.297,63.608z M18.743,63.72v-5.21c0-0.883-0.42-1.569-1.331-1.569
		c-0.896,0-1.317,0.687-1.317,1.569v5.21c0,0.869,0.42,1.569,1.317,1.569C18.323,65.289,18.743,64.589,18.743,63.72z"/>
</g>
<rect x="23.705" y="221.448" fill="none" width="33.034" height="14.848"/>
<g>
	<path fill="#222222" d="M30.724,222.605H30.71l-1.107,1.289H29.59v-0.868l1.303-1.583h0.616v9.497h-0.785
		C30.724,230.94,30.724,222.605,30.724,222.605z"/>
</g>
<g>
	<path fill="#222222" d="M36.648,223.698v5.043c0,1.527-0.756,2.283-2.073,2.283c-1.331,0-1.989-0.714-1.989-2.129v-0.631h0.756
		v0.687c0,0.98,0.42,1.415,1.219,1.415c0.784,0,1.303-0.435,1.303-1.513v-2.27H35.85c-0.238,0.435-0.729,0.841-1.555,0.841
		c-1.149,0-1.807-0.7-1.807-2.199v-1.639c0-1.472,0.687-2.228,2.073-2.228S36.648,222.227,36.648,223.698z M33.272,223.543v1.724
		c0,1.051,0.435,1.499,1.275,1.499c0.714,0,1.303-0.49,1.317-1.457v-1.723c0-1.023-0.477-1.569-1.303-1.569
		C33.734,222.017,33.272,222.479,33.272,223.543z"/>
</g>
<g>
	<path fill="#222222" d="M37.402,229.399c0-1.022,0.35-1.541,1.148-2.423l1.009-1.106c0.56-0.617,0.854-1.135,0.854-1.85v-0.826
		c0-0.883-0.435-1.177-1.093-1.177s-1.106,0.351-1.106,1.261v1.106H37.43v-1.093c0-1.274,0.714-1.933,1.919-1.933
		c1.219,0,1.863,0.574,1.863,1.835v0.896c0,0.799-0.294,1.387-1.051,2.228l-1.134,1.246c-0.546,0.603-0.854,0.911-0.854,1.835v0.883
		h3.025v0.658h-3.796V229.399z"/>
</g>
<g>
	<path fill="#222222" d="M41.923,228.685v-4.987c0-1.316,0.659-2.339,2.115-2.339c1.471,0,2.129,1.022,2.129,2.339v4.987
		c0,1.303-0.659,2.339-2.129,2.339C42.582,231.024,41.923,229.988,41.923,228.685z M45.369,228.796v-5.21
		c0-0.883-0.42-1.569-1.331-1.569c-0.896,0-1.317,0.687-1.317,1.569v5.21c0,0.869,0.42,1.569,1.317,1.569
		C44.949,230.366,45.369,229.665,45.369,228.796z"/>
</g>
<g>
	<path fill="#222222" d="M50.62,229.147c0,1.163-0.574,1.877-1.891,1.877c-1.247,0-1.849-0.756-1.849-1.933v-0.785h0.729v0.812
		c0,0.785,0.35,1.261,1.121,1.261c0.812,0,1.148-0.406,1.148-1.19v-0.252c0-0.589-0.196-0.911-0.953-1.513l-0.812-0.645
		c-0.798-0.631-1.176-1.106-1.176-1.934v-0.224c0-1.009,0.56-1.709,1.779-1.709c1.274,0,1.821,0.658,1.821,1.863v0.574h-0.728
		v-0.603c0-0.799-0.322-1.19-1.093-1.19c-0.729,0-1.051,0.406-1.051,1.036v0.225c0,0.532,0.196,0.798,0.896,1.345l0.812,0.645
		c0.953,0.756,1.247,1.19,1.247,2.072C50.62,228.879,50.62,229.147,50.62,229.147z"/>
</g>
<rect x="58.777" y="221.448" fill="none" width="33.034" height="14.848"/>
<g>
	<path fill="#222222" d="M65.691,222.605h-0.014l-1.107,1.289h-0.014v-0.868l1.303-1.583h0.616v9.497H65.69v-8.335H65.691z"/>
</g>
<g>
	<path fill="#222222" d="M71.615,223.698v5.043c0,1.527-0.756,2.283-2.073,2.283c-1.331,0-1.989-0.714-1.989-2.129v-0.631h0.756
		v0.687c0,0.98,0.42,1.415,1.219,1.415c0.784,0,1.303-0.435,1.303-1.513v-2.27h-0.014c-0.238,0.435-0.729,0.841-1.555,0.841
		c-1.149,0-1.807-0.7-1.807-2.199v-1.639c0-1.472,0.687-2.228,2.073-2.228S71.615,222.227,71.615,223.698z M68.239,223.543v1.724
		c0,1.051,0.435,1.499,1.275,1.499c0.714,0,1.303-0.49,1.317-1.457v-1.723c0-1.023-0.477-1.569-1.303-1.569
		C68.701,222.017,68.239,222.479,68.239,223.543z"/>
</g>
<g>
	<path fill="#222222" d="M76.319,223.362v0.98c0,0.868-0.49,1.345-1.149,1.527c0.743,0.153,1.233,0.672,1.233,1.639v1.499
		c0,1.246-0.588,2.017-2.031,2.017c-1.429,0-2.031-0.742-2.031-2.087v-1.232h0.785v1.288c0,0.925,0.378,1.373,1.247,1.373
		s1.233-0.504,1.233-1.373v-1.541c0-0.798-0.42-1.232-1.233-1.232h-0.574v-0.645h0.546c0.784,0,1.205-0.434,1.205-1.162v-1.051
		c0-0.938-0.392-1.345-1.148-1.345c-0.812,0-1.177,0.462-1.177,1.289v0.966h-0.771v-0.91c0-1.232,0.616-2.003,1.989-2.003
		C75.703,221.359,76.319,222.031,76.319,223.362z"/>
</g>
<g>
	<path fill="#222222" d="M77.17,228.685v-4.987c0-1.316,0.659-2.339,2.115-2.339c1.471,0,2.129,1.022,2.129,2.339v4.987
		c0,1.303-0.659,2.339-2.129,2.339C77.829,231.024,77.17,229.988,77.17,228.685z M80.616,228.796v-5.21
		c0-0.883-0.42-1.569-1.331-1.569c-0.896,0-1.317,0.687-1.317,1.569v5.21c0,0.869,0.42,1.569,1.317,1.569
		C80.196,230.366,80.616,229.665,80.616,228.796z"/>
</g>
<g>
	<path fill="#222222" d="M85.866,229.147c0,1.163-0.574,1.877-1.891,1.877c-1.247,0-1.849-0.756-1.849-1.933v-0.785h0.729v0.812
		c0,0.785,0.35,1.261,1.121,1.261c0.812,0,1.148-0.406,1.148-1.19v-0.252c0-0.589-0.196-0.911-0.953-1.513l-0.812-0.645
		c-0.798-0.631-1.176-1.106-1.176-1.934v-0.224c0-1.009,0.56-1.709,1.779-1.709c1.274,0,1.821,0.658,1.821,1.863v0.574h-0.728
		v-0.603c0-0.799-0.322-1.19-1.093-1.19c-0.729,0-1.051,0.406-1.051,1.036v0.225c0,0.532,0.196,0.798,0.896,1.345l0.812,0.645
		c0.953,0.756,1.247,1.19,1.247,2.072V229.147z"/>
</g>
<rect x="93.85" y="221.448" fill="none" width="33.034" height="14.848"/>
<g>
	<path fill="#222222" d="M100.722,222.605h-0.014l-1.107,1.289h-0.014v-0.868l1.303-1.583h0.616v9.497h-0.784V222.605z"/>
</g>
<g>
	<path fill="#222222" d="M106.645,223.698v5.043c0,1.527-0.756,2.283-2.073,2.283c-1.331,0-1.989-0.714-1.989-2.129v-0.631h0.756
		v0.687c0,0.98,0.42,1.415,1.219,1.415c0.784,0,1.303-0.435,1.303-1.513v-2.27h-0.014c-0.238,0.435-0.729,0.841-1.555,0.841
		c-1.149,0-1.807-0.7-1.807-2.199v-1.639c0-1.472,0.687-2.228,2.073-2.228S106.645,222.227,106.645,223.698z M103.269,223.543v1.724
		c0,1.051,0.435,1.499,1.275,1.499c0.714,0,1.303-0.49,1.317-1.457v-1.723c0-1.023-0.477-1.569-1.303-1.569
		C103.732,222.017,103.269,222.479,103.269,223.543z"/>
</g>
<g>
	<path fill="#222222" d="M107.175,228.46l2.914-7.018h0.84v6.892h0.714v0.631h-0.714v1.975h-0.784v-1.975h-2.97V228.46z
		 M107.917,228.334h2.241v-5.393h-0.014L107.917,228.334z"/>
</g>
<g>
	<path fill="#222222" d="M112.285,228.685v-4.987c0-1.316,0.659-2.339,2.115-2.339c1.471,0,2.129,1.022,2.129,2.339v4.987
		c0,1.303-0.659,2.339-2.129,2.339C112.943,231.024,112.285,229.988,112.285,228.685z M115.73,228.796v-5.21
		c0-0.883-0.42-1.569-1.331-1.569c-0.896,0-1.317,0.687-1.317,1.569v5.21c0,0.869,0.42,1.569,1.317,1.569
		C115.31,230.366,115.73,229.665,115.73,228.796z"/>
</g>
<g>
	<path fill="#222222" d="M120.98,229.147c0,1.163-0.574,1.877-1.891,1.877c-1.247,0-1.849-0.756-1.849-1.933v-0.785h0.729v0.812
		c0,0.785,0.35,1.261,1.121,1.261c0.812,0,1.148-0.406,1.148-1.19v-0.252c0-0.589-0.196-0.911-0.953-1.513l-0.812-0.645
		c-0.798-0.631-1.176-1.106-1.176-1.934v-0.224c0-1.009,0.56-1.709,1.779-1.709c1.274,0,1.821,0.658,1.821,1.863v0.574h-0.728
		v-0.603c0-0.799-0.322-1.19-1.093-1.19c-0.729,0-1.051,0.406-1.051,1.036v0.225c0,0.532,0.196,0.798,0.896,1.345l0.812,0.645
		c0.953,0.756,1.247,1.19,1.247,2.072V229.147z"/>
</g>
<rect x="128.922" y="221.448" fill="none" width="33.034" height="14.848"/>
<g>
	<path fill="#222222" d="M135.836,222.605h-0.014l-1.107,1.289h-0.014v-0.868l1.303-1.583h0.616v9.497h-0.785v-8.335H135.836z"/>
</g>
<g>
	<path fill="#222222" d="M141.76,223.698v5.043c0,1.527-0.756,2.283-2.073,2.283c-1.331,0-1.989-0.714-1.989-2.129v-0.631h0.756
		v0.687c0,0.98,0.42,1.415,1.219,1.415c0.784,0,1.303-0.435,1.303-1.513v-2.27h-0.014c-0.238,0.435-0.729,0.841-1.555,0.841
		c-1.149,0-1.807-0.7-1.807-2.199v-1.639c0-1.472,0.687-2.228,2.073-2.228S141.76,222.227,141.76,223.698z M138.384,223.543v1.724
		c0,1.051,0.435,1.499,1.275,1.499c0.714,0,1.303-0.49,1.317-1.457v-1.723c0-1.023-0.477-1.569-1.303-1.569
		C138.846,222.017,138.384,222.479,138.384,223.543z"/>
</g>
<g>
	<path fill="#222222" d="M146.618,226.625v2.312c0,1.303-0.561,2.087-2.003,2.087c-1.415,0-2.017-0.784-2.017-2.129v-1.106h0.77
		v1.162c0,0.953,0.393,1.415,1.247,1.415c0.896,0,1.205-0.547,1.205-1.429v-2.312c0-1.093-0.561-1.387-1.219-1.387
		c-0.616,0-1.219,0.364-1.219,1.303v0.168h-0.729v-5.267h3.768v0.658h-3.054v3.264h0.014c0.252-0.532,0.827-0.784,1.443-0.784
		C145.749,224.58,146.618,225.057,146.618,226.625z"/>
</g>
<g>
	<path fill="#222222" d="M147.385,228.685v-4.987c0-1.316,0.659-2.339,2.115-2.339c1.471,0,2.129,1.022,2.129,2.339v4.987
		c0,1.303-0.659,2.339-2.129,2.339C148.044,231.024,147.385,229.988,147.385,228.685z M150.831,228.796v-5.21
		c0-0.883-0.42-1.569-1.331-1.569c-0.896,0-1.317,0.687-1.317,1.569v5.21c0,0.869,0.42,1.569,1.317,1.569
		C150.411,230.366,150.831,229.665,150.831,228.796z"/>
</g>
<g>
	<path fill="#222222" d="M156.081,229.147c0,1.163-0.574,1.877-1.891,1.877c-1.247,0-1.849-0.756-1.849-1.933v-0.785h0.729v0.812
		c0,0.785,0.35,1.261,1.121,1.261c0.812,0,1.148-0.406,1.148-1.19v-0.252c0-0.589-0.196-0.911-0.953-1.513l-0.812-0.645
		c-0.798-0.631-1.176-1.106-1.176-1.934v-0.224c0-1.009,0.56-1.709,1.779-1.709c1.274,0,1.821,0.658,1.821,1.863v0.574h-0.728
		v-0.603c0-0.799-0.322-1.19-1.093-1.19c-0.729,0-1.051,0.406-1.051,1.036v0.225c0,0.532,0.196,0.798,0.896,1.345l0.812,0.645
		c0.953,0.756,1.247,1.19,1.247,2.072V229.147z"/>
</g>
<rect x="163.994" y="221.448" fill="none" width="33.034" height="14.848"/>
<g>
	<path fill="#222222" d="M170.838,222.605h-0.014l-1.107,1.289h-0.014v-0.868l1.303-1.583h0.616v9.497h-0.785v-8.335H170.838z"/>
</g>
<g>
	<path fill="#222222" d="M176.762,223.698v5.043c0,1.527-0.756,2.283-2.073,2.283c-1.331,0-1.989-0.714-1.989-2.129v-0.631h0.756
		v0.687c0,0.98,0.42,1.415,1.219,1.415c0.784,0,1.303-0.435,1.303-1.513v-2.27h-0.014c-0.238,0.435-0.729,0.841-1.555,0.841
		c-1.149,0-1.807-0.7-1.807-2.199v-1.639c0-1.472,0.687-2.228,2.073-2.228S176.762,222.227,176.762,223.698z M173.386,223.543v1.724
		c0,1.051,0.435,1.499,1.275,1.499c0.714,0,1.303-0.49,1.317-1.457v-1.723c0-1.023-0.477-1.569-1.303-1.569
		C173.849,222.017,173.386,222.479,173.386,223.543z"/>
</g>
<g>
	<path fill="#222222" d="M177.544,228.685v-5.029c0-1.484,0.756-2.297,2.073-2.297c1.331,0,1.933,0.714,1.933,2.129v0.631h-0.756
		v-0.687c0-0.98-0.378-1.415-1.163-1.415c-0.799,0-1.289,0.49-1.289,1.526v2.256h0.014c0.224-0.463,0.714-0.841,1.471-0.841
		c1.219,0,1.877,0.7,1.877,2.199v1.639c0,1.472-0.686,2.228-2.087,2.228C178.245,231.024,177.544,230.156,177.544,228.685z
		 M180.906,228.853v-1.737c0-1.051-0.42-1.499-1.261-1.499c-0.714,0-1.303,0.49-1.303,1.457v1.737c0,1.022,0.448,1.555,1.275,1.555
		C180.457,230.366,180.906,229.917,180.906,228.853z"/>
</g>
<g>
	<path fill="#222222" d="M182.388,228.685v-4.987c0-1.316,0.659-2.339,2.115-2.339c1.471,0,2.129,1.022,2.129,2.339v4.987
		c0,1.303-0.659,2.339-2.129,2.339C183.047,231.024,182.388,229.988,182.388,228.685z M185.834,228.796v-5.21
		c0-0.883-0.42-1.569-1.331-1.569c-0.896,0-1.317,0.687-1.317,1.569v5.21c0,0.869,0.42,1.569,1.317,1.569
		C185.414,230.366,185.834,229.665,185.834,228.796z"/>
</g>
<g>
	<path fill="#222222" d="M191.084,229.147c0,1.163-0.574,1.877-1.891,1.877c-1.247,0-1.849-0.756-1.849-1.933v-0.785h0.729v0.812
		c0,0.785,0.35,1.261,1.12,1.261c0.812,0,1.148-0.406,1.148-1.19v-0.252c0-0.589-0.196-0.911-0.952-1.513l-0.812-0.645
		c-0.799-0.631-1.177-1.106-1.177-1.934v-0.224c0-1.009,0.561-1.709,1.779-1.709c1.274,0,1.82,0.658,1.82,1.863v0.574h-0.728v-0.603
		c0-0.799-0.322-1.19-1.093-1.19c-0.729,0-1.051,0.406-1.051,1.036v0.225c0,0.532,0.196,0.798,0.896,1.345l0.812,0.645
		c0.952,0.756,1.246,1.19,1.246,2.072v0.268H191.084z"/>
</g>
<rect x="199.067" y="221.448" fill="none" width="33.034" height="14.848"/>
<g>
	<path fill="#222222" d="M206.296,222.605h-0.014l-1.107,1.289h-0.014v-0.868l1.303-1.583h0.616v9.497h-0.784L206.296,222.605
		L206.296,222.605z"/>
</g>
<g>
	<path fill="#222222" d="M212.22,223.698v5.043c0,1.527-0.757,2.283-2.073,2.283c-1.331,0-1.989-0.714-1.989-2.129v-0.631h0.757
		v0.687c0,0.98,0.42,1.415,1.219,1.415c0.784,0,1.303-0.435,1.303-1.513v-2.27h-0.015c-0.238,0.435-0.729,0.841-1.555,0.841
		c-1.148,0-1.807-0.7-1.807-2.199v-1.639c0-1.472,0.687-2.228,2.073-2.228S212.22,222.227,212.22,223.698z M208.844,223.543v1.724
		c0,1.051,0.435,1.499,1.274,1.499c0.715,0,1.303-0.49,1.317-1.457v-1.723c0-1.023-0.477-1.569-1.303-1.569
		C209.306,222.017,208.844,222.479,208.844,223.543z"/>
</g>
<g>
	<path fill="#222222" d="M212.525,221.443h3.642v1.177l-2.227,8.32h-0.799l2.256-8.404v-0.448h-2.872V221.443z"/>
</g>
<g>
	<path fill="#222222" d="M216.726,228.685v-4.987c0-1.316,0.658-2.339,2.115-2.339c1.471,0,2.129,1.022,2.129,2.339v4.987
		c0,1.303-0.658,2.339-2.129,2.339C217.384,231.024,216.726,229.988,216.726,228.685z M220.171,228.796v-5.21
		c0-0.883-0.42-1.569-1.33-1.569c-0.896,0-1.317,0.687-1.317,1.569v5.21c0,0.869,0.421,1.569,1.317,1.569
		C219.751,230.366,220.171,229.665,220.171,228.796z"/>
</g>
<g>
	<path fill="#222222" d="M225.421,229.147c0,1.163-0.574,1.877-1.891,1.877c-1.247,0-1.849-0.756-1.849-1.933v-0.785h0.729v0.812
		c0,0.785,0.35,1.261,1.12,1.261c0.812,0,1.148-0.406,1.148-1.19v-0.252c0-0.589-0.196-0.911-0.952-1.513l-0.812-0.645
		c-0.799-0.631-1.177-1.106-1.177-1.934v-0.224c0-1.009,0.561-1.709,1.779-1.709c1.274,0,1.82,0.658,1.82,1.863v0.574h-0.728v-0.603
		c0-0.799-0.322-1.19-1.093-1.19c-0.729,0-1.051,0.406-1.051,1.036v0.225c0,0.532,0.196,0.798,0.896,1.345l0.812,0.645
		c0.952,0.756,1.246,1.19,1.246,2.072v0.268H225.421z"/>
</g>
<rect x="234.139" y="221.448" fill="none" width="33.034" height="14.848"/>
<g>
	<path fill="#222222" d="M240.941,222.605h-0.014l-1.107,1.289h-0.014v-0.868l1.303-1.583h0.616v9.497h-0.784L240.941,222.605
		L240.941,222.605z"/>
</g>
<g>
	<path fill="#222222" d="M246.865,223.698v5.043c0,1.527-0.757,2.283-2.073,2.283c-1.331,0-1.989-0.714-1.989-2.129v-0.631h0.757
		v0.687c0,0.98,0.42,1.415,1.219,1.415c0.784,0,1.303-0.435,1.303-1.513v-2.27h-0.015c-0.238,0.435-0.729,0.841-1.555,0.841
		c-1.148,0-1.807-0.7-1.807-2.199v-1.639c0-1.472,0.687-2.228,2.073-2.228S246.865,222.227,246.865,223.698z M243.489,223.543v1.724
		c0,1.051,0.435,1.499,1.274,1.499c0.715,0,1.303-0.49,1.317-1.457v-1.723c0-1.023-0.477-1.569-1.303-1.569
		C243.951,222.017,243.489,222.479,243.489,223.543z"/>
</g>
<g>
	<path fill="#222222" d="M247.619,228.825v-1.232c0-0.925,0.35-1.625,1.162-1.934c-0.7-0.294-0.966-0.938-0.966-1.751v-0.49
		c0-1.274,0.616-2.059,1.933-2.059c1.331,0,1.947,0.784,1.947,2.059v0.49c0,0.812-0.28,1.457-0.98,1.751
		c0.812,0.309,1.177,1.009,1.177,1.934v1.232c0,1.274-0.645,2.199-2.144,2.199S247.619,230.099,247.619,228.825z M251.093,228.853
		v-1.373c0-0.854-0.393-1.484-1.345-1.484c-0.938,0-1.331,0.63-1.331,1.484v1.373c0,0.854,0.393,1.513,1.331,1.513
		C250.7,230.366,251.093,229.707,251.093,228.853z M250.938,223.95v-0.546c0-0.841-0.336-1.387-1.19-1.387s-1.177,0.546-1.177,1.387
		v0.546c0,0.799,0.267,1.387,1.177,1.387C250.673,225.336,250.938,224.748,250.938,223.95z"/>
</g>
<g>
	<path fill="#222222" d="M252.644,228.685v-4.987c0-1.316,0.659-2.339,2.115-2.339c1.471,0,2.13,1.022,2.13,2.339v4.987
		c0,1.303-0.659,2.339-2.13,2.339C253.304,231.024,252.644,229.988,252.644,228.685z M256.091,228.796v-5.21
		c0-0.883-0.42-1.569-1.331-1.569c-0.896,0-1.316,0.687-1.316,1.569v5.21c0,0.869,0.42,1.569,1.316,1.569
		C255.671,230.366,256.091,229.665,256.091,228.796z"/>
</g>
<g>
	<path fill="#222222" d="M261.341,229.147c0,1.163-0.574,1.877-1.891,1.877c-1.247,0-1.85-0.756-1.85-1.933v-0.785h0.729v0.812
		c0,0.785,0.351,1.261,1.121,1.261c0.812,0,1.148-0.406,1.148-1.19v-0.252c0-0.589-0.196-0.911-0.953-1.513l-0.812-0.645
		c-0.798-0.631-1.176-1.106-1.176-1.934v-0.224c0-1.009,0.56-1.709,1.778-1.709c1.274,0,1.821,0.658,1.821,1.863v0.574h-0.729
		v-0.603c0-0.799-0.322-1.19-1.093-1.19c-0.729,0-1.051,0.406-1.051,1.036v0.225c0,0.532,0.196,0.798,0.896,1.345l0.812,0.645
		c0.953,0.756,1.247,1.19,1.247,2.072v0.268H261.341z"/>
</g>
<rect x="269.212" y="221.448" fill="none" width="33.034" height="14.848"/>
<g>
	<path fill="#222222" d="M276.056,222.605h-0.014l-1.106,1.289h-0.014v-0.868l1.303-1.583h0.616v9.497h-0.785V222.605z"/>
</g>
<g>
	<path fill="#222222" d="M281.979,223.698v5.043c0,1.527-0.756,2.283-2.073,2.283c-1.33,0-1.988-0.714-1.988-2.129v-0.631h0.756
		v0.687c0,0.98,0.42,1.415,1.219,1.415c0.784,0,1.303-0.435,1.303-1.513v-2.27h-0.014c-0.238,0.435-0.729,0.841-1.555,0.841
		c-1.149,0-1.808-0.7-1.808-2.199v-1.639c0-1.472,0.687-2.228,2.073-2.228S281.979,222.227,281.979,223.698z M278.603,223.543v1.724
		c0,1.051,0.435,1.499,1.275,1.499c0.714,0,1.303-0.49,1.316-1.457v-1.723c0-1.023-0.477-1.569-1.303-1.569
		S278.603,222.479,278.603,223.543z"/>
</g>
<g>
	<path fill="#222222" d="M286.893,223.698v5.043c0,1.527-0.756,2.283-2.073,2.283c-1.33,0-1.988-0.714-1.988-2.129v-0.631h0.756
		v0.687c0,0.98,0.42,1.415,1.219,1.415c0.784,0,1.303-0.435,1.303-1.513v-2.27h-0.014c-0.238,0.435-0.729,0.841-1.555,0.841
		c-1.149,0-1.808-0.7-1.808-2.199v-1.639c0-1.472,0.687-2.228,2.073-2.228S286.893,222.227,286.893,223.698z M283.518,223.543v1.724
		c0,1.051,0.435,1.499,1.275,1.499c0.714,0,1.303-0.49,1.316-1.457v-1.723c0-1.023-0.477-1.569-1.303-1.569
		S283.518,222.479,283.518,223.543z"/>
</g>
<g>
	<path fill="#222222" d="M287.676,228.685v-4.987c0-1.316,0.658-2.339,2.115-2.339c1.471,0,2.129,1.022,2.129,2.339v4.987
		c0,1.303-0.658,2.339-2.129,2.339C288.334,231.024,287.676,229.988,287.676,228.685z M291.121,228.796v-5.21
		c0-0.883-0.42-1.569-1.33-1.569c-0.896,0-1.317,0.687-1.317,1.569v5.21c0,0.869,0.421,1.569,1.317,1.569
		C290.701,230.366,291.121,229.665,291.121,228.796z"/>
</g>
<g>
	<path fill="#222222" d="M296.371,229.147c0,1.163-0.574,1.877-1.891,1.877c-1.247,0-1.849-0.756-1.849-1.933v-0.785h0.729v0.812
		c0,0.785,0.35,1.261,1.12,1.261c0.812,0,1.148-0.406,1.148-1.19v-0.252c0-0.589-0.196-0.911-0.952-1.513l-0.812-0.645
		c-0.799-0.631-1.177-1.106-1.177-1.934v-0.224c0-1.009,0.561-1.709,1.779-1.709c1.274,0,1.82,0.658,1.82,1.863v0.574h-0.728v-0.603
		c0-0.799-0.322-1.19-1.093-1.19c-0.729,0-1.051,0.406-1.051,1.036v0.225c0,0.532,0.196,0.798,0.896,1.345l0.812,0.645
		c0.952,0.756,1.246,1.19,1.246,2.072v0.268H296.371z"/>
</g>
<rect x="304.284" y="221.448" fill="none" width="33.034" height="14.848"/>
<g>
	<path fill="#222222" d="M309.146,229.399c0-1.022,0.351-1.541,1.148-2.423l1.009-1.106c0.561-0.617,0.854-1.135,0.854-1.85v-0.826
		c0-0.883-0.435-1.177-1.093-1.177s-1.106,0.351-1.106,1.261v1.106h-0.784v-1.093c0-1.274,0.714-1.933,1.919-1.933
		c1.219,0,1.863,0.574,1.863,1.835v0.896c0,0.799-0.295,1.387-1.051,2.228l-1.135,1.246c-0.546,0.603-0.854,0.911-0.854,1.835v0.883
		h3.025v0.658h-3.796L309.146,229.399L309.146,229.399z"/>
</g>
<g>
	<path fill="#222222" d="M313.669,228.685v-4.987c0-1.316,0.658-2.339,2.115-2.339c1.471,0,2.129,1.022,2.129,2.339v4.987
		c0,1.303-0.658,2.339-2.129,2.339C314.327,231.024,313.669,229.988,313.669,228.685z M317.114,228.796v-5.21
		c0-0.883-0.42-1.569-1.33-1.569c-0.896,0-1.317,0.687-1.317,1.569v5.21c0,0.869,0.421,1.569,1.317,1.569
		C316.694,230.366,317.114,229.665,317.114,228.796z"/>
</g>
<g>
	<path fill="#222222" d="M318.694,228.685v-4.987c0-1.316,0.659-2.339,2.115-2.339c1.471,0,2.13,1.022,2.13,2.339v4.987
		c0,1.303-0.659,2.339-2.13,2.339C319.353,231.024,318.694,229.988,318.694,228.685z M322.141,228.796v-5.21
		c0-0.883-0.42-1.569-1.331-1.569c-0.896,0-1.316,0.687-1.316,1.569v5.21c0,0.869,0.42,1.569,1.316,1.569
		C321.721,230.366,322.141,229.665,322.141,228.796z"/>
</g>
<g>
	<path fill="#222222" d="M323.721,228.685v-4.987c0-1.316,0.658-2.339,2.115-2.339c1.471,0,2.129,1.022,2.129,2.339v4.987
		c0,1.303-0.658,2.339-2.129,2.339C324.379,231.024,323.721,229.988,323.721,228.685z M327.166,228.796v-5.21
		c0-0.883-0.42-1.569-1.33-1.569c-0.896,0-1.317,0.687-1.317,1.569v5.21c0,0.869,0.421,1.569,1.317,1.569
		C326.746,230.366,327.166,229.665,327.166,228.796z"/>
</g>
<g>
	<path fill="#222222" d="M332.416,229.147c0,1.163-0.574,1.877-1.891,1.877c-1.247,0-1.849-0.756-1.849-1.933v-0.785h0.729v0.812
		c0,0.785,0.35,1.261,1.12,1.261c0.812,0,1.148-0.406,1.148-1.19v-0.252c0-0.589-0.196-0.911-0.952-1.513l-0.812-0.645
		c-0.799-0.631-1.177-1.106-1.177-1.934v-0.224c0-1.009,0.561-1.709,1.779-1.709c1.274,0,1.82,0.658,1.82,1.863v0.574h-0.728v-0.603
		c0-0.799-0.322-1.19-1.093-1.19c-0.729,0-1.051,0.406-1.051,1.036v0.225c0,0.532,0.196,0.798,0.896,1.345l0.812,0.645
		c0.952,0.756,1.246,1.19,1.246,2.072v0.268H332.416z"/>
</g>
<rect x="339.357" y="221.448" fill="none" width="33.034" height="14.848"/>
<g>
	<path fill="#222222" d="M345.311,229.399c0-1.022,0.35-1.541,1.148-2.423l1.009-1.106c0.56-0.617,0.854-1.135,0.854-1.85v-0.826
		c0-0.883-0.435-1.177-1.093-1.177s-1.106,0.351-1.106,1.261v1.106h-0.785v-1.093c0-1.274,0.715-1.933,1.919-1.933
		c1.219,0,1.863,0.574,1.863,1.835v0.896c0,0.799-0.294,1.387-1.051,2.228l-1.134,1.246c-0.547,0.603-0.854,0.911-0.854,1.835v0.883
		h3.025v0.658h-3.796L345.311,229.399L345.311,229.399z"/>
</g>
<g>
	<path fill="#222222" d="M349.833,228.685v-4.987c0-1.316,0.659-2.339,2.115-2.339c1.471,0,2.13,1.022,2.13,2.339v4.987
		c0,1.303-0.659,2.339-2.13,2.339C350.492,231.024,349.833,229.988,349.833,228.685z M353.279,228.796v-5.21
		c0-0.883-0.42-1.569-1.331-1.569c-0.896,0-1.316,0.687-1.316,1.569v5.21c0,0.869,0.42,1.569,1.316,1.569
		C352.859,230.366,353.279,229.665,353.279,228.796z"/>
</g>
<g>
	<path fill="#222222" d="M355.84,222.605h-0.014l-1.107,1.289h-0.014v-0.868l1.303-1.583h0.616v9.497h-0.784V222.605z"/>
</g>
<g>
	<path fill="#222222" d="M357.701,228.685v-4.987c0-1.316,0.658-2.339,2.115-2.339c1.471,0,2.129,1.022,2.129,2.339v4.987
		c0,1.303-0.658,2.339-2.129,2.339C358.359,231.024,357.701,229.988,357.701,228.685z M361.146,228.796v-5.21
		c0-0.883-0.42-1.569-1.33-1.569c-0.896,0-1.317,0.687-1.317,1.569v5.21c0,0.869,0.421,1.569,1.317,1.569
		C360.727,230.366,361.146,229.665,361.146,228.796z"/>
</g>
<g>
	<path fill="#222222" d="M366.396,229.147c0,1.163-0.574,1.877-1.891,1.877c-1.247,0-1.849-0.756-1.849-1.933v-0.785h0.729v0.812
		c0,0.785,0.35,1.261,1.12,1.261c0.812,0,1.148-0.406,1.148-1.19v-0.252c0-0.589-0.196-0.911-0.952-1.513l-0.812-0.645
		c-0.799-0.631-1.177-1.106-1.177-1.934v-0.224c0-1.009,0.561-1.709,1.779-1.709c1.274,0,1.82,0.658,1.82,1.863v0.574h-0.728v-0.603
		c0-0.799-0.322-1.19-1.093-1.19c-0.729,0-1.051,0.406-1.051,1.036v0.225c0,0.532,0.196,0.798,0.896,1.345l0.812,0.645
		c0.952,0.756,1.246,1.19,1.246,2.072v0.268H366.396z"/>
</g>
<line fill="none" stroke="#464646" stroke-width="0.5" stroke-miterlimit="10" x1="23.499" y1="217.36" x2="373.5" y2="217.36"/>
<rect x="23.499" y="30.893" fill="none" width="165.167" height="16.153"/>
<g>
	<path fill="#222222" d="M23.985,30.888h2.683c1.909,0,2.593,0.883,2.593,2.503v1.44c0,1.009-0.378,1.675-1.242,1.927
		c1.044,0.198,1.566,0.882,1.566,1.999v1.836c0,1.621-0.774,2.503-2.665,2.503h-2.935C23.985,43.096,23.985,30.888,23.985,30.888z
		 M25.57,32.185V36.2h0.972c0.828,0,1.224-0.414,1.224-1.206v-1.62c0-0.793-0.396-1.188-1.26-1.188L25.57,32.185L25.57,32.185z
		 M26.74,41.8c0.846,0,1.278-0.414,1.278-1.188v-2.017c0-0.774-0.396-1.171-1.296-1.171H25.57V41.8H26.74z"/>
</g>
<g>
	<path fill="#222222" d="M34.102,43.096v-0.882h-0.054c-0.252,0.468-0.756,1.008-1.674,1.008c-1.387,0-2.106-0.774-2.106-2.503
		v-0.792c0-1.656,0.936-2.106,2.25-2.701c1.296-0.558,1.584-0.846,1.584-1.332v-0.576c0-0.864-0.252-1.296-1.026-1.296
		c-0.792,0-1.116,0.432-1.116,1.26v1.009h-1.422v-0.9c0-1.603,0.756-2.629,2.593-2.629c1.8,0,2.502,0.954,2.502,2.7v7.635
		L34.102,43.096L34.102,43.096z M34.102,40.666v-3.079c-0.162,0.198-0.378,0.36-1.242,0.792c-0.774,0.414-1.081,0.685-1.081,1.585
		v0.702c0,0.828,0.288,1.314,1.098,1.314C33.688,41.98,34.102,41.494,34.102,40.666z"/>
</g>
<g>
	<path fill="#222222" d="M36.549,30.888h1.53v12.208h-1.53V30.888z"/>
</g>
<g>
	<path fill="#222222" d="M39.033,30.888h1.53v12.208h-1.53V30.888z"/>
</g>
<g>
	<path fill="#222222" d="M46.972,40.288c0,1.765-0.918,2.935-2.737,2.935c-1.837,0-2.755-1.17-2.755-2.935v-4.592
		c0-1.782,0.918-2.935,2.755-2.935c1.818,0,2.737,1.152,2.737,2.935V40.288z M45.459,40.521v-5.06c0-0.882-0.414-1.439-1.224-1.439
		c-0.828,0-1.243,0.558-1.243,1.439v5.06c0,0.883,0.415,1.44,1.243,1.44C45.045,41.962,45.459,41.404,45.459,40.521z"/>
</g>
<g>
	<path fill="#222222" d="M53.362,40.288c0,1.765-0.918,2.935-2.737,2.935c-1.837,0-2.755-1.17-2.755-2.935v-4.592
		c0-1.782,0.918-2.935,2.755-2.935c1.818,0,2.737,1.152,2.737,2.935V40.288z M51.849,40.521v-5.06c0-0.882-0.414-1.439-1.224-1.439
		c-0.828,0-1.243,0.558-1.243,1.439v5.06c0,0.883,0.415,1.44,1.243,1.44C51.435,41.962,51.849,41.404,51.849,40.521z"/>
</g>
<g>
	<path fill="#222222" d="M58.113,35.318c0-0.828-0.288-1.296-1.098-1.296c-0.774,0-1.188,0.485-1.188,1.313v7.761h-1.53V32.888h1.53
		v1.026h0.018c0.27-0.612,0.774-1.152,1.818-1.152c1.278,0,1.981,0.774,1.981,2.503v7.832h-1.531
		C58.113,43.097,58.113,35.318,58.113,35.318z"/>
</g>
<g>
	<path fill="#222222" d="M62.09,43.096l2.359-12.208h1.854l2.376,12.208h-1.621l-0.468-2.557h-2.539l-0.45,2.557H62.09z
		 M64.287,39.243h2.07L65.331,33.5h-0.018L64.287,39.243z"/>
</g>
<g>
	<path fill="#222222" d="M74.493,43.096h-1.53V42.07h-0.036c-0.252,0.559-0.702,1.152-1.747,1.152c-1.314,0-2.088-0.774-2.088-2.503
		v-5.455c0-1.729,0.792-2.503,2.053-2.503c1.044,0,1.512,0.558,1.782,1.116h0.036v-2.989h1.53V43.096z M70.622,40.666
		c0,0.828,0.288,1.314,1.134,1.314c0.756,0,1.17-0.468,1.207-1.225v-5.384c0-0.828-0.414-1.35-1.207-1.35
		c-0.81,0-1.134,0.468-1.134,1.313V40.666z"/>
</g>
<g>
	<path fill="#222222" d="M80.811,43.096h-1.53V42.07h-0.036c-0.252,0.559-0.702,1.152-1.747,1.152c-1.314,0-2.088-0.774-2.088-2.503
		v-5.455c0-1.729,0.792-2.503,2.053-2.503c1.044,0,1.512,0.558,1.782,1.116h0.036v-2.989h1.53V43.096z M76.94,40.666
		c0,0.828,0.288,1.314,1.134,1.314c0.756,0,1.17-0.468,1.207-1.225v-5.384c0-0.828-0.414-1.35-1.207-1.35
		c-0.81,0-1.134,0.468-1.134,1.313V40.666z"/>
</g>
<g>
	<path fill="#222222" d="M81.764,30.888h1.53v1.243h-1.53V30.888z M81.764,32.888h1.53v10.209h-1.53V32.888z"/>
</g>
<g>
	<path fill="#222222" d="M83.888,32.888h0.756v-1.999h1.531v1.999h1.314v1.17h-1.314v7.112c0,0.504,0.18,0.702,0.72,0.702h0.594
		v1.225h-0.756c-1.566,0-2.089-0.559-2.089-1.999v-7.04h-0.756C83.888,34.058,83.888,32.888,83.888,32.888z"/>
</g>
<g>
	<path fill="#222222" d="M88.19,30.888h1.53v1.243h-1.53V30.888z M88.19,32.888h1.53v10.209h-1.53V32.888z"/>
</g>
<g>
	<path fill="#222222" d="M96.129,40.288c0,1.765-0.918,2.935-2.737,2.935c-1.837,0-2.755-1.17-2.755-2.935v-4.592
		c0-1.782,0.918-2.935,2.755-2.935c1.818,0,2.737,1.152,2.737,2.935V40.288z M94.617,40.521v-5.06c0-0.882-0.414-1.439-1.224-1.439
		c-0.828,0-1.243,0.558-1.243,1.439v5.06c0,0.883,0.415,1.44,1.243,1.44C94.203,41.962,94.617,41.404,94.617,40.521z"/>
</g>
<g>
	<path fill="#222222" d="M100.88,35.318c0-0.828-0.288-1.296-1.098-1.296c-0.774,0-1.188,0.485-1.188,1.313v7.761h-1.53V32.888h1.53
		v1.026h0.018c0.27-0.612,0.774-1.152,1.818-1.152c1.278,0,1.981,0.774,1.981,2.503v7.832h-1.531V35.318z"/>
</g>
<g>
	<path fill="#222222" d="M108.405,40.647c0,1.585-0.792,2.575-2.593,2.575c-1.729,0-2.575-1.008-2.575-2.646v-1.045h1.405v1.116
		c0,0.847,0.36,1.314,1.152,1.314c0.828,0,1.17-0.414,1.17-1.206V40.45c0-0.612-0.271-0.99-1.207-1.711l-0.882-0.702
		c-1.044-0.828-1.566-1.477-1.566-2.646V35.12c0-1.387,0.792-2.358,2.521-2.358c1.801,0,2.485,0.937,2.485,2.574v0.631h-1.368
		v-0.702c0-0.828-0.342-1.242-1.117-1.242c-0.756,0-1.08,0.414-1.08,1.062v0.217c0,0.576,0.252,0.899,1.044,1.494l0.864,0.685
		c1.314,1.044,1.747,1.548,1.747,2.826C108.405,40.307,108.405,40.647,108.405,40.647z"/>
</g>
<g>
	<path fill="#222222" d="M111.14,30.888h1.53v3.043h0.018c0.27-0.576,0.792-1.17,1.854-1.17c1.296,0,1.999,0.774,1.999,2.503v5.455
		c0,1.729-0.792,2.503-2.088,2.503c-1.062,0-1.495-0.576-1.765-1.134h-0.018v1.008h-1.53V30.888z M115.011,35.336
		c0-0.846-0.306-1.313-1.134-1.313c-0.756,0-1.17,0.468-1.207,1.224v5.528c0.036,0.756,0.45,1.206,1.188,1.206
		c0.828,0,1.152-0.486,1.152-1.314L115.011,35.336L115.011,35.336z"/>
</g>
<g>
	<path fill="#222222" d="M122.624,32.888l-2.214,10.191c-0.252,1.224-0.811,1.638-2.161,1.638h-0.594v-1.224h0.576
		c0.54,0,0.702-0.181,0.864-0.757l0.144-0.594h-0.36l-1.962-9.255h1.584l1.26,6.878h0.018l1.44-6.878L122.624,32.888L122.624,32.888
		z"/>
</g>
<g>
	<path fill="#222222" d="M127.898,30.888c2.143,0,2.898,1.369,2.898,3.169v5.87c0,1.782-0.756,3.169-2.898,3.169h-2.881V30.888
		H127.898z M126.602,41.8h1.098c1.116,0,1.513-0.684,1.513-1.602v-6.429c0-0.899-0.396-1.584-1.513-1.584h-1.098V41.8z"/>
</g>
<g>
	<path fill="#222222" d="M137.132,39.298v1.116c0,1.765-0.828,2.809-2.646,2.809c-1.855,0-2.773-1.17-2.773-2.935v-4.609
		c0-1.765,0.918-2.917,2.755-2.917c1.818,0,2.665,1.062,2.665,2.827v2.502h-3.907v2.431c0,0.883,0.45,1.44,1.279,1.44
		c0.81,0,1.188-0.504,1.188-1.404v-1.26C135.693,39.298,137.132,39.298,137.132,39.298z M133.225,36.957h2.431v-1.495
		c0-0.899-0.378-1.439-1.188-1.439c-0.828,0-1.243,0.54-1.243,1.439V36.957z"/>
</g>
<g>
	<path fill="#222222" d="M143.415,39.298v1.116c0,1.765-0.811,2.809-2.629,2.809c-1.837,0-2.755-1.17-2.755-2.935v-4.609
		c0-1.765,0.918-2.917,2.755-2.917c1.818,0,2.629,1.008,2.629,2.791v0.738h-1.477v-0.883c0-0.882-0.342-1.386-1.152-1.386
		c-0.828,0-1.243,0.54-1.243,1.439v5.06c0,0.883,0.432,1.44,1.261,1.44c0.828,0,1.17-0.504,1.17-1.404v-1.26h1.441V39.298z"/>
</g>
<g>
	<path fill="#222222" d="M147.86,43.096v-0.882h-0.054c-0.252,0.468-0.756,1.008-1.674,1.008c-1.387,0-2.106-0.774-2.106-2.503
		v-0.792c0-1.656,0.936-2.106,2.25-2.701c1.296-0.558,1.584-0.846,1.584-1.332v-0.576c0-0.864-0.252-1.296-1.026-1.296
		c-0.792,0-1.116,0.432-1.116,1.26v1.009h-1.422v-0.9c0-1.603,0.756-2.629,2.593-2.629c1.8,0,2.502,0.954,2.502,2.7v7.635
		L147.86,43.096L147.86,43.096z M147.86,40.666v-3.079c-0.162,0.198-0.378,0.36-1.242,0.792c-0.774,0.414-1.081,0.685-1.081,1.585
		v0.702c0,0.828,0.288,1.314,1.098,1.314C147.446,41.98,147.86,41.494,147.86,40.666z"/>
</g>
<g>
	<path fill="#222222" d="M155.672,43.096h-1.53V42.07h-0.036c-0.252,0.559-0.702,1.152-1.747,1.152
		c-1.314,0-2.088-0.774-2.088-2.503v-5.455c0-1.729,0.792-2.503,2.053-2.503c1.044,0,1.512,0.558,1.782,1.116h0.036v-2.989h1.53
		V43.096z M151.801,40.666c0,0.828,0.288,1.314,1.134,1.314c0.756,0,1.17-0.468,1.207-1.225v-5.384c0-0.828-0.414-1.35-1.207-1.35
		c-0.81,0-1.134,0.468-1.134,1.313V40.666z"/>
</g>
<g>
	<path fill="#222222" d="M162.008,39.298v1.116c0,1.765-0.828,2.809-2.646,2.809c-1.855,0-2.773-1.17-2.773-2.935v-4.609
		c0-1.765,0.918-2.917,2.755-2.917c1.818,0,2.665,1.062,2.665,2.827v2.502h-3.907v2.431c0,0.883,0.45,1.44,1.279,1.44
		c0.81,0,1.188-0.504,1.188-1.404v-1.26C160.569,39.298,162.008,39.298,162.008,39.298z M158.101,36.957h2.431v-1.495
		c0-0.899-0.378-1.439-1.188-1.439c-0.828,0-1.243,0.54-1.243,1.439V36.957z"/>
</g>
<g id="Layer_2">
</g>
<line fill="none" stroke="#B3B3B3" stroke-width="0.5" stroke-miterlimit="10" x1="23.41" y1="100.881" x2="373.91" y2="100.881"/>
<line fill="none" stroke="#B3B3B3" stroke-width="0.5" stroke-miterlimit="10" x1="23.41" y1="138.741" x2="373.91" y2="138.741"/>
<line fill="none" stroke="#B3B3B3" stroke-width="0.5" stroke-miterlimit="10" x1="23.41" y1="176.562" x2="373.91" y2="176.562"/>
<line fill="none" stroke="#B3B3B3" stroke-width="0.5" stroke-miterlimit="10" x1="23.41" y1="61.796" x2="373.91" y2="61.796"/>
</svg>
