<?xml version="1.0" encoding="utf-8"?>
<!-- Generator: Adobe Illustrator 17.0.0, SVG Export Plug-In . SVG Version: 6.00 Build 0)  -->
<svg version="1.2" baseProfile="tiny" xmlns="http://www.w3.org/2000/svg" xmlns:xlink="http://www.w3.org/1999/xlink" x="0px"
	 y="0px" width="200px" height="200px" viewBox="0 0 200 200" xml:space="preserve">
<g id="Layer_1">
</g>
<g id="Layer_4">
	<path fill="none" stroke="#464646" stroke-width="2" stroke-linecap="round" stroke-linejoin="round" stroke-miterlimit="10" d="
		M104.041,61.203c2.445,2.445,21.111-8.222,39.778-15.555c0.069-4.036-0.889-5.334-1.556-9.334c4.444-2.666,1.556,5.11,6,4.889
		c4.444-0.222,7.557-12,10.667-11.111c3.11,0.89-3.112,9.111-0.89,9.334c2.223,0.223,6.039-7.557,8.223-4.445
		c2.184,3.111-6.889,6.667-6.444,7.778c0.444,1.111,6.483-2.001,7.556,0.444c1.072,2.445-8.001,2.443-7.778,4
		c0.223,1.557,6.977,0.89,7.866,3.334c-2.755,2.666-9.644-0.445-17.866,4c3.111,5.333-36.223,21.999-37.556,24.222
		c-1.333,2.223-0.222,41.333-0.222,41.333c23.333,25.557,6.889,32.889,10,35.778c3.111,2.89,0.222,11.111,0.222,11.111
		c14,7.112,11.334,14.222,11.334,14.222c-5.111,11.557-29.11,4.667-32.889,4.667c-3.778,0-4.223,2.666-6.223,0
		s-1.777-19.776,2.991-16.667c-9.213-3.999,3.675-12,2.342-18.222c-1.333-6.222-5.333-4.222-5.333-4.222
		c-11.111,26.223-26.889,19.11-26.889,19.11c-9.111-4.888-2.889-15.333-2.889-15.333c-16.889-0.444-9.556-20-9.556-20
		c2.889-6.889,15.777-14,15.777-14c-1.777-8,9.22-41.166,7.556-42.223C76.599,73.258,40.486,47.87,40.486,47.87
		c0.222-7.999-10.021-1.112-12.223-4c-2.202-2.888,5.777-2.89,6.889-4.667c1.111-1.777-11.071-2.889-9.091-5.555
		s7.981,2.666,8.869,1.111c0.889-1.556-9.556-5.778-6.667-8.223c2.889-2.444,10,7.332,11.556,5.111
		c1.556-2.223-6.001-7.557-3.111-9.111c2.89-1.555,7.11,8.222,10,8.444c2.89,0.223,0-8.445,3.111-6.89
		c3.111,1.557-1.888,11.778,2.222,14.445s33.556,21.777,33.556,21.777s2.89,1.333,4.223-0.223
		c1.333-1.555-9.556-10.443-9.556-10.443c-2.887,5.331-6.444-0.667-6.444-0.667c-3.111-6.889,4.667-6.89,4.667-6.89
		c-9.111-20,1.777-28.666,1.777-28.666c16.223-13.557,27.333-2.889,27.333-2.889c10.667,6.443,5.778,27.111,5.778,27.111
		c8.444-4.668,6.889,4.443,6.889,4.443c-0.444,6.889-5.333,3.778-5.333,3.778C115.597,55.869,101.595,58.758,104.041,61.203z"/>
</g>
</svg>
