<?xml version="1.0" encoding="utf-8"?>
<!-- Generator: Adobe Illustrator 17.0.0, SVG Export Plug-In . SVG Version: 6.00 Build 0)  -->
<svg version="1.2" baseProfile="tiny" xmlns="http://www.w3.org/2000/svg" xmlns:xlink="http://www.w3.org/1999/xlink" x="0px"
	 y="0px" width="200px" height="200px" viewBox="0 0 200 200" xml:space="preserve">
<g id="Layer_1">
</g>
<g id="Layer_4">
	<path fill="none" stroke="#464646" stroke-width="2" stroke-linecap="round" stroke-linejoin="round" stroke-miterlimit="10" d="
		M106.436,18.404c26.954-9.424,37.133,45.428,37.133,45.428c-8.294,8.67-29.216,12.441-29.216,12.441s-6.597,2.827-6.597,3.393
		c0,0.565,6.22,2.827,6.22,2.827l0.942,1.696c15.079,6.974,19.603,19.603,19.603,19.603l3.582,7.917
		c0.188,3.958-2.261,9.424-3.958,9.802c-1.698,0.377-1.32-1.334-1.32-1.334c-5.089,4.162-4.712-9.222-4.712-9.222
		c-3.53-4.436-10.419-9.25-10.367-5.089c2.45,10.556-1.32,15.646-1.32,15.646c4.146,22.054,0,19.414,0,19.414l-0.188,11.875
		c4.712,4.902,0.377,6.975,0.377,6.975l0.189,3.393c8.67,26.578,15.833,19.981-2.074,26.201
		c-17.908,4.712-13.948-25.447-13.948-25.447v-3.393c-5.656-2.074,0-6.598,0-6.598c-1.509-1.319-1.696-9.99-1.696-9.99
		c-2.263,0.189-2.035-8.181-3.393-7.162c-1.357,1.018-4.524,3.393-4.524,3.393c3.392,6.408-2.451,20.357-2.451,20.357
		c-3.393,5.466-9.99,1.884-9.99,1.884c-7.164-4.146-3.393-19.792-3.393-19.792v-3.77c-3.016-4.335,5.844-22.808-2.262-25.447
		c-8.106-2.639-1.203-14.688-2.073-15.268c-0.87-0.58-6.786-4.524-6.786-4.524c-4.525,1.885-7.351-0.189-7.351-0.189
		c-4.148,0.565-9.425,4.335-12.253,5.089c-2.827,0.754-2.262-0.753-2.262-0.753l2.451-3.582c-6.597,4.147-8.293,1.508-8.293,1.508
		v-2.073c0,0-1.509-0.189-1.32-2.073c0.189-1.885,7.162-4.336,7.162-4.336c-6.598,0.189-8.481-1.32-7.162-2.827
		c1.319-1.508,10.933-1.508,11.875-2.638c0.942-1.131-4.335-6.032-2.262-7.162c2.073-1.131,9.62,5.371,10.933,5.277
		c1.312-0.094,3.581-1.884,5.277-0.377l5.467-1.885c-13.573-0.942-25.635-17.907-25.635-17.907
		c7.35-26.578,27.143-36.38,27.143-36.38C87.773,3.89,106.436,18.404,106.436,18.404z"/>
</g>
</svg>
