<?xml version="1.0" encoding="utf-8"?>
<!-- Generator: Adobe Illustrator 17.0.0, SVG Export Plug-In . SVG Version: 6.00 Build 0)  -->
<svg version="1.2" baseProfile="tiny" xmlns="http://www.w3.org/2000/svg" xmlns:xlink="http://www.w3.org/1999/xlink" x="0px"
	 y="0px" width="200px" height="200px" viewBox="0 0 200 200" xml:space="preserve">
<g id="Layer_1">
</g>
<g id="Layer_4">
	<path fill="none" stroke="#464646" stroke-width="2" stroke-linecap="round" stroke-linejoin="round" stroke-miterlimit="10" d="
		M143.754,118.007c3.696-1.154,6.93,0,6.93,0s9.934-10.627,15.479,3.928c5.544,14.555-6.7,42.508-6.7,42.508
		s-7.624,11.089-18.713-4.158c-2.31-4.389-1.386-15.71-1.386-15.71s-9.703,10.627-25.874,4.852c0,0-12.244,0.693-8.317,2.772
		c3.927,2.079,4.158,6.238,4.158,6.238s10.396,2.079,3.696,10.858c-11.32,15.709-37.656,13.629-37.656,13.629
		s-12.013-2.309-6.238-14.785c5.083-8.316,15.017-6.469,15.017-6.469s-1.155-5.544,2.079-7.854v-3.465l-12.475-1.756
		c0,0-17.558-7.023-0.693-19.036c0,0,6.468-7.162,0.231-16.634c0,0-1.877,0.002-10.627,8.086c0.925,9.01-1.848,7.854-5.544,7.184
		c-5.314,3.211-5.776-1.41-5.776-1.41s-5.082-1.385-2.772-7.623c-5.544-4.389,3.866-6.732,4.389-8.317
		c0.524-1.586,4.159-13.917,10.165-15.968c2.542-4.592,6.238-5.748,6.238-5.748s-0.462-1.155,0.231-4.62
		c-37.195,3.465-38.812-17.558-41.122-24.258c-6.931-6.7,0.462-14.785,0.462-14.785s1.386-32.805,28.647-37.888
		c57.842-1.208,44.706,60.992,35.577,60.527l4.648,3.467c0,0,12.448-10.858,21.226-1.849c6.7,3.928-1.386,20.792-1.386,20.792
		l8.779,8.548C126.427,99.064,140.982,107.149,143.754,118.007z"/>
</g>
</svg>
