<?xml version="1.0" encoding="utf-8"?>
<!-- Generator: Adobe Illustrator 17.0.0, SVG Export Plug-In . SVG Version: 6.00 Build 0)  -->
<svg version="1.2" baseProfile="tiny" xmlns="http://www.w3.org/2000/svg" xmlns:xlink="http://www.w3.org/1999/xlink" x="0px"
	 y="0px" width="200px" height="200px" viewBox="0 0 200 200" xml:space="preserve">
<g id="Layer_1">
</g>
<g id="Layer_4">
	<path fill="none" stroke="#464646" stroke-width="2" stroke-linecap="round" stroke-linejoin="round" stroke-miterlimit="10" d="
		M102.684,169.141c0.615-4.16-1.68-6.765-4.75-13.132c-3.07-6.368,6.705-18.999,6.705-18.999s3.965-0.955,6.426,2.514
		c2.178,4.285,6.148,15.367,6.148,15.367s-10.516,8.164-11.234,13.133C105.979,168.023,103.727,168.815,102.684,169.141z"/>
	<path fill="none" stroke="#464646" stroke-width="2" stroke-linecap="round" stroke-linejoin="round" stroke-miterlimit="10" d="
		M93.429,59.499c0,0-14.25,14.25-16.5,22.625c0,0-2.994-6.836-6.5-14.125c0-5.25-3.131-8.404-5.375-9
		c2-2.5-8.625-10.125-8.125-14.125c1.449-4.938-5.875-7.5-5.875,2.125c2.625,4.375,3.25,4.375,2.375,7.625
		c-13.375,9.75-15.625,18.875-15.625,18.875s-0.875,6.125,7.75,0.5c9.25-0.875,19.25-4.25,19.25-4.25l1,3.25c0,0-2.25,0.75-1.5,3.5
		s2,0.875,5,11.5c6.75,17.75,24.5-18.25,24.5-18.25s3.125,9.5-3.75,24.75c-2.25,2.75-5.375,9.875,3,2.5
		c-5,9.375-3.375,13.75-2.25,17.75c0,0-2.125,6-2.75,12.75c-6.5,13-18.238,23.46,6.637,47.96c-4.25,9.375-25.887-0.71-34.137,4.29
		s0,8.607,0,8.607s15.5,7.643,24.5,3.406c9-4.236,21.795-7.514,21.795-7.514s8.705-1.875,13.455,1.25
		c14.375,7.625,28.75-3.5,28.75-3.5s10-10.25-19.25-7c-6.25,2.625-14.75,0-14.75,0l11.25-10.5c0,0,12.75-4.125,3.75-23
		s-7.924-14.996-7-26.5c5.305-8.924-6.021-39.036-5-40.5c1.023-1.464,4.799,11.28,7.631,13.482
		c2.832,2.203,5.191,6.766,13.869-10.482c5.01-2.262,0.25-7.75,0.25-7.75s2.26-1.636,13.5,3.5c11.242,5.136,11,1.75,11,1.75l6,0.5
		c4.717-8.442-14.5-18-14.5-18s-5.104,0.904,0-8.75c3.078-12.373-4.789-10.799-5.066-1.748c-0.193,3.693-5.857,2.906-9.934,9.498
		c-5.994,0.646-5.75,8.25-5.75,8.25l-3,5.5l-3,7.25c0,0-4.227-15.138-11.551-18.938c0,0,2.832-5.507-0.715-6.923
		c-2.117-0.157-1.984-8.139-1.984-8.139c1.756-7.909-6.75-14-6.75-14s1.111-2.877-2.5-7.25c2.352-4.28-3.75-3.25-3.75-3.25
		l-1.5-3.277c1.938-3.26-7.344-16.633-11.75-0.113c-8.811,12.587,4.875,7.641,4.875,7.641l1.625,2.25
		c-3,3.125,1.857,3.75,1.857,3.75l1.393,2.5C93.929,35.374,93.429,59.499,93.429,59.499z"/>
</g>
</svg>
