<?xml version="1.0" encoding="utf-8"?>
<!-- Generator: Adobe Illustrator 17.0.0, SVG Export Plug-In . SVG Version: 6.00 Build 0)  -->
<svg version="1.2" baseProfile="tiny" xmlns="http://www.w3.org/2000/svg" xmlns:xlink="http://www.w3.org/1999/xlink" x="0px"
	 y="0px" width="200px" height="200px" viewBox="0 0 200 200" xml:space="preserve">
<g id="Layer_1">
</g>
<g id="Layer_4">
	<path fill="none" stroke="#464646" stroke-width="2" stroke-linecap="round" stroke-linejoin="round" stroke-miterlimit="10" d="
		M69.016,88.571c0,0-17.914,12.476-15.167-10.52c5.626-23.08,13.944-30.579,13.944-30.579l13.21-7.094c0,0-2.202-7.339,0-10.274
		c-5.871-4.894,0-8.563,0-8.563s-3.67-12.966,8.562-12.966c12.232,0,7.828,13.21,7.828,13.21s5.627,3.669,1.468,5.138
		c6.361,12.966-1.223,18.102-1.223,18.102s9.052,1.223,10.03,14.679c0.978,13.455,3.425,11.741,3.425,11.741l8.807-11.008
		c0,0,0.489-6.605,7.584-4.404c9.052-9.785,3.914,0.979,3.914,0.979l3.18,1.222c5.382-5.871,13.21-3.425,13.455-1.222
		c0.244,2.201-3.914,2.446-6.605,2.691c-2.691,0.244-2.691,3.669-4.893,4.892c-2.202,1.223-7.173-1.821-9.052,0.734
		c-1.878,2.554-6.605,27.644-18.347,24.953c0.489,25.197-4.404,25.442-4.404,25.442s-11.498,46.726-7.339,64.339
		c0,0-3.669,0-2.691,1.712c0.979,1.712,14.923,2.936,13.944,7.584c-0.978,4.647-16.88-2.936-16.88-2.936l-5.871,1.712l-0.978-1.712
		c0,0-18.239,10.002-19.218,4.864c-0.978-5.137,15.303-7.311,15.303-7.311l-4.893-1.711c0,0,3.384-62.734-7.584-64.096
		L69.016,88.571z"/>
</g>
</svg>
