<?xml version="1.0" encoding="utf-8"?>
<!-- Generator: Adobe Illustrator 17.0.0, SVG Export Plug-In . SVG Version: 6.00 Build 0)  -->
<svg version="1.2" baseProfile="tiny" xmlns="http://www.w3.org/2000/svg" xmlns:xlink="http://www.w3.org/1999/xlink" x="0px"
	 y="0px" width="200px" height="200px" viewBox="0 0 200 200" overflow="visible" xml:space="preserve">
<g id="Layer_1">
</g>
<g id="Layer_4">
	<path fill="none" stroke="#464646" stroke-width="2" stroke-linecap="round" stroke-linejoin="round" stroke-miterlimit="10" d="
		M128.366,47.001c6.969,4.878,2.09,12.776,2.09,12.776c7.201,26.48,2.323,19.511-20.905,23.228
		c-0.232,5.807-3.833,2.787-3.833,2.787c-5.459,12.775,4.857,0.266,8.943,2.655c4.086,2.39,2.323,3.616,2.323,3.616
		c24.39-6.039,20.208-12.078,21.37-14.866c1.162-2.788,1.394-3.717,3.252-1.858c1.858,1.858-2.09,5.575,0,6.504
		c2.09,0.929,9.059-4.646,10.685-2.787c1.626,1.858-4.181,3.716-3.717,6.039c0.464,2.323,7.2,0.898,7.201,3.352
		c0.001,2.455-5.575,0.364-6.504,2.455c-0.929,2.091,4.878,4.646,0.93,6.969c-8.594-3.717-5.1-2.075-15.795,2.555
		c-8.362,6.039-16.492,6.736-16.492,6.736c-1.858,7.898-12.195,3.717-12.195,3.717c4.53,4.645,2.904,13.24,2.904,13.24l3.02,1.394
		c6.969-1.626,8.362,1.162,8.362,1.162c2.09,3.716-0.232,5.574-0.232,5.574c6.039,3.949,6.272,15.098,6.272,15.098
		c5.343-0.464,3.717,3.252,3.717,3.252c21.37,3.484,18.815,9.756,18.815,9.756c-16.724,17.189-32.984,7.665-32.984,7.665
		c-1.858-2.09,0.465-8.826,0.465-8.826c-6.271-4.413-0.465-6.272-0.465-6.272c1.394-3.717-3.252-8.13-3.252-8.13
		c-4.878,5.575-22.067,0.233-24.854,0.929c-2.787,0.697-4.413,6.504-4.413,6.504l2.787,0.232c10.453,27.641-4.878,34.61-4.878,34.61
		h-1.858c-8.13-3.716-8.362-16.259-8.362-16.259c-3.484-0.465-3.02-3.717-3.02-3.717c-14.634-1.626-5.807-17.654-5.807-17.654
		c-4.878-0.929-7.665-6.504-7.665-6.504s6.272-4.18,4.181-5.807c-2.09-1.626-0.697-11.15-0.697-11.15l-2.09-2.09
		c-0.929-8.826,9.523-18.815,9.523-18.815l0.929-3.949c-6.272-0.929-11.847-8.014-11.847-8.014
		c-0.232-7.549,3.252-8.246,3.252-8.246c-5.11-3.02-13.008-26.016-13.008-26.016c-4.878-1.626-5.11-3.252-4.645-5.11
		c0.464-1.858,3.717-0.697,5.575-1.858c1.858-1.162-3.949-6.272-1.162-7.433c2.788-1.161,5.342,4.646,6.968,4.413
		c1.626-0.232-0.232-8.129,2.788-7.897c3.019,0.232,1.858,7.433,2.787,9.059c0.929,1.626,5.807-0.929,5.807-0.929
		c0.464,11.614-6.968,5.11,3.949,24.39c4.646-0.465,0.464-0.233,3.484,0.697c3.02,0.929,5.111,7.666,6.504,8.827
		c1.393,1.161,1.393,1.161,5.574-0.93c4.181-2.09,2.788-11.381,2.788-11.381c-5.11,1.625-4.879-2.323-4.646-5.343
		C80.516,62.332,84,61.634,84,61.634c-0.697-26.712-11.382-44.133-9.988-45.062c1.394-0.929,2.323,1.393,4.646,1.161
		c2.323-0.232-1.626-4.413,1.161-5.11c2.788-0.697,3.484,2.42,5.343,2.488c1.858,0.067-0.465-3.417,1.393-4.114
		s1.859,4.046,4.646,4.114c2.787,0.067,0-4.579,1.858-5.74c1.858-1.161,2.191,6.137,4.464,5.74c2.272-0.397,1.575-6.9,2.969-7.365
		c1.394-0.465,0,4.645,2.323,5.11c2.323,0.464,4.645-4.877,5.807-5.11c1.162-0.233-1.626,3.949,0.465,4.181
		c2.091,0.232,3.02-6.272,5.11-5.575c2.091,0.697-0.929,5.808,1.858,5.575c2.787-0.233,2.787-5.575,5.342-5.575
		c2.555,0-1.626,5.807,0,6.504c1.626,0.697,2.323-6.04,4.645-5.343c-1.161,7.665,0.465,33.681,0.465,33.681
		C131.618,40.961,128.366,47.001,128.366,47.001z"/>
</g>
</svg>
