<?xml version="1.0" encoding="utf-8"?>
<!-- Generator: Adobe Illustrator 17.0.0, SVG Export Plug-In . SVG Version: 6.00 Build 0)  -->
<svg version="1.2" baseProfile="tiny" xmlns="http://www.w3.org/2000/svg" xmlns:xlink="http://www.w3.org/1999/xlink" x="0px"
	 y="0px" width="200px" height="200px" viewBox="0 0 200 200" xml:space="preserve">
<g id="Layer_1">
</g>
<g id="Layer_4">
	<path fill="none" stroke="#464646" stroke-width="2" stroke-linecap="round" stroke-linejoin="round" stroke-miterlimit="10" d="
		M64.521,115.933c0,0-19,12.334-43.666-3.666c0,0-22.668,1.332-4.334,7.332c23.334,6.334,15.666,23.668,15.666,23.668
		s-12.666,3.332-9.666,15c2,8,13,3.666,13,3.666s23.334,6.217,14.492-11c0,0,11.508-6.334,14.508-1c-18.334,10,0,13.334,0,13.334
		s6.334,7.666,14,0c6.334-2.668,4,1,14.334,0c10.332-1,19-10.668,5.332-16.668c-16.332,1.668-11.666-20-11.666-20h5
		c0,0,13.666,14,19.666-1.666c42.668,7.334,27-33.666,27-33.666s-21-27.668-9.666-38.668c4-5,9.666,4.668,9.666,4.668
		s2.334,27.666,8.174,40.666c1.494,6,16.826,24,35.494,1.334c3.639-5.826,13.666-15-4.668-23.334c-13-2.334-16-13.666-16-13.666
		s-5.332-28.334-22-21.334c-8.666,5.666-22.666,4-22.666,4s-11.666-9.334-30,0.666c-13,2-27.334-16.332-38,2
		c0,0-0.666,13.334-18,22.668c-17.334,0.666-12,20-12,20s12.016,22.812,31.492,11.832c20.842-21.5,8.174-32.832,15.508-45.166
		s12.666-2.334,12.666-2.334s1,24.668-9,30.668S64.521,115.933,64.521,115.933z"/>
</g>
</svg>
