<?xml version="1.0" encoding="utf-8"?>
<!-- Generator: Adobe Illustrator 17.0.0, SVG Export Plug-In . SVG Version: 6.00 Build 0)  -->
<svg version="1.2" baseProfile="tiny" xmlns="http://www.w3.org/2000/svg" xmlns:xlink="http://www.w3.org/1999/xlink" x="0px"
	 y="0px" width="200px" height="200px" viewBox="0 0 200 200" overflow="inherit" xml:space="preserve">
<g id="Layer_1">
</g>
<g id="Layer_4">
	<path fill="none" stroke="#464646" stroke-width="2" stroke-linecap="round" stroke-linejoin="round" stroke-miterlimit="10" d="
		M155.576,47.839c-81.668-80-119-21.332-87.334-14l-11.334,25l-19-4c0,0-3,22.668,8,26c-5.332,14.668,3,25.334,3,25.334
		l-14.666,6.666l4.666,6l-3.332,4.668l7,1.666c0,0-13.668,14.334,4.666,14l-1.334,10.666h16.668c0,0,3.332,8.334-20,30.334
		c12.096,0.73,30.332-3,30.332-3l10.334-12.666l0.334,8.666l17.666,1.334l2.666-9.668l6.668,9.334l36.666,12.334
		c0,0-23.666-25-20-33.668l15.334-0.666l0.666-7.334c0,0,7.334,1.668,10-6c2.666-7.666,0.334-7.666,0.334-7.666h13.666l-6-7
		l9.666-6.334l-21-13.666v-19c23.668,2,19.668-20.666,3.334-17L155.576,47.839z"/>
</g>
</svg>
