<?xml version="1.0" encoding="utf-8"?>
<!-- Generator: Adobe Illustrator 17.0.0, SVG Export Plug-In . SVG Version: 6.00 Build 0)  -->
<svg version="1.2" baseProfile="tiny" xmlns="http://www.w3.org/2000/svg" xmlns:xlink="http://www.w3.org/1999/xlink" x="0px"
	 y="0px" width="200px" height="200px" viewBox="0 0 200 200" xml:space="preserve">
<g id="Layer_1">
</g>
<g id="Layer_4">
	<path fill="none" stroke="#464646" stroke-width="2" stroke-linecap="round" stroke-linejoin="round" stroke-miterlimit="10" d="
		M131.972,87.906c0.963-12.76-7.223-9.871-7.223-9.871s-0.24-3.369-2.166-7.222c8.908-7.944,1.445-20.464,1.445-20.464
		c41.406-13.24,23.352-38.037,23.352-38.037c-6.26-15.648-9.631,0.241-3.852,0c22.148,18.778-14.686,37.074-20.945,35.871
		c-2.166-4.574-3.611-8.426-3.611-8.426c-3.129-35.39-38.277-27.445-38.277-27.445c-11.557-1.926-5.092,6.437,0,2.889
		c34.906-7.703,36.592,24.074,36.592,24.074l-12.518-0.722c-6.26-10.352-13.963,4.093-13.963,4.093l-6.26,7.463
		c-30.574-0.963-6.26,28.889-6.26,28.889c-32.02-26,2.166,12.037,2.166,12.037l-30.815-1.248l-3.611,1.008
		c0,0-4.303-5.766-10.352-11.074c-6.74-4.574-9.148,1.204-9.148,1.204s-15.648-8.186-5.297,4.333
		c5.297,7.704,12.52,5.938,10.834,11.636c-13.723,12.438,4.814,12.438,3.371,4.975c6.496-3.906,13-3.129,13-3.129
		s0.963,6.5,3.369,8.426c2.408,1.926,18.057-0.963,18.057-0.963s-2.889,12.277-2.168,15.407c0.723,3.13,4.334,4.333,4.334,4.333
		l6.5,10.834c0,0-2.824,17.333-0.48,18.537c2.342,1.203,15.889,10.111,15.889,10.111s12.518,29.238,27.445,20.276
		c5.055-9.925-9.871-15.943-9.871-15.943s-7.223-17.574-17.094-10.353c-7.221-6.98-12.518-7.703-12.518-7.703l4.814-11.556
		c0,0,11.051-2.167,12.627-3.853c1.096,6.982,4.707,20.945,8.076,21.908c3.371,0.963,11.557-9.629,11.557-9.629
		s-0.963,28.648,15.889,24.314c17.814-7.704-4.332-39.723-12.76-37.797c-4.572-0.24-4.332,7.463-4.332,7.463l-7.945,3.13
		c0,0-1.926-15.89-4.092-14.927c0.48-6.74,8.666-11.314,8.666-11.314h-8.426l-8.426-11.797c0,0,13.48,1.204,23.352,3.852
		c8.666-0.481,7.945-9.63,7.945-9.63h3.129c0,0,11.074,14.686,27.686,13.241c12.76,6.5,7.703-4.815,6.26-10.111
		c-1.445-5.296-8.426-6.376-11.314-8.604c-2.891-2.228-5.297-9.933-5.297-9.933c8.426,1.685,9.148-22.63-4.574-6.981l-8.668,3.611
		L131.972,87.906z"/>
</g>
</svg>
