<?xml version="1.0" encoding="utf-8"?>
<!-- Generator: Adobe Illustrator 17.0.0, SVG Export Plug-In . SVG Version: 6.00 Build 0)  -->
<svg version="1.2" baseProfile="tiny" xmlns="http://www.w3.org/2000/svg" xmlns:xlink="http://www.w3.org/1999/xlink" x="0px"
	 y="0px" width="200px" height="200px" viewBox="0 0 200 200" xml:space="preserve">
<g id="Layer_1">
</g>
<g id="Layer_4">
	<path fill="none" stroke="#464646" stroke-width="2" stroke-linecap="round" stroke-linejoin="round" stroke-miterlimit="10" d="
		M125.254,183.156c0,0-21,4-22.75,0s5.75-9.5,5.75-9.5c-11-11.25-5.75-23.25-5.75-23.25s-25.75-3-43-45.253
		c-16.75-28.497-59.25-40.247-42.25-69.997c17.25-16.75,22.5-11.5,28.25-11.5s3.75,5,3.75,5c4.25,0.5,2.872,0.011,3.5,7
		c0.628,6.989-7.5,4.75-7.5,4.75l-1,8.25l2.5,3.5c0,0,8-13.25,12.25-14.5c-4.5-1.25-6.25-16.75,4.75-2.75c4.5-6,18.5-2.5,18.5-2.5
		s13-13,6,0.75c15.5,8.5,15.5,22.5,15.5,22.5l21.5,5.25l10-15c0,0-9.75-18.25,18.25-15.75c0,0,13.75,6.5,3,36.25
		c6.75,1.25,23.25,14,23.25,14s18.25,9.25,0,17c-8.25,1-9-3.5-9-3.5l-15,7.25c0,0,5.25,17.5-19,51.75c-4.25,6.25-4,8-4,13
		S125.254,183.156,125.254,183.156z"/>
</g>
</svg>
