<?xml version="1.0" encoding="utf-8"?>
<!-- Generator: Adobe Illustrator 17.0.0, SVG Export Plug-In . SVG Version: 6.00 Build 0)  -->
<svg version="1.2" baseProfile="tiny" xmlns="http://www.w3.org/2000/svg" xmlns:xlink="http://www.w3.org/1999/xlink" x="0px"
	 y="0px" width="200px" height="200px" viewBox="0 0 200 200" xml:space="preserve">
<g id="Layer_1">
</g>
<g id="Layer_4">
	<path fill="none" stroke="#464646" stroke-width="2" stroke-linecap="round" stroke-linejoin="round" stroke-miterlimit="10" d="
		M65.929,48.954c0,0-1.138-3.187-0.114-3.87c1.024-0.683,1.707,2.39,5.236,3.187c3.529,0.797,5.691-1.594,5.691-1.594
		s7.968-4.667,2.277-7.968c0,0-5.805-0.911-6.944-1.707c-1.138-0.797,1.025-7.968,4.439-6.716c5.008,9.903,7.285,6.375,7.285,6.375
		c20.603-27.091,31.872,5.025,31.872,5.025s3.984-0.927,6.602-6.391c1.821-1.138,2.504,6.391,2.504,6.391s-7.854-0.13-7.513,5.22
		c0.341,5.35,6.374-0.569,7.513-0.683c1.138-0.114,2.732,4.326,2.732,4.326l10.7,1.366c0,0,3.415-5.35,9.334-1.366
		c8.082-5.35,7.057-7.513,6.83-14.115c-1.935-7.513,5.691-7.627,7.74-4.553c2.049,3.073-0.455,5.236,1.138,5.919
		c1.707-2.96,12.863-6.944,8.423,5.919c6.033-0.569,8.879,2.163,4.781,8.196c-6.261,6.033,1.366,3.529,3.529,3.756
		c2.39-1.252,8.082,5.236,0.114,8.765c-3.091-0.242-1.138-1.252-3.643,0c-2.504,1.252-5.236,5.464-5.236,5.464
		s-0.228,13.773-9.562,17.302c-8.993,0.911-10.017,1.024-17.302-3.187c-7.285-4.212-13.887-0.911-13.887-0.911
		s1.707,9.106-1.821,13.887c3.415,11.838-2.277,17.898-2.277,17.898l7.74,14.202c0,0,4.326,8.082,2.732,15.025
		c-1.594,6.944-5.464,12.977-5.464,12.977l3.187,7.513c0,0,5.691,1.707,13.432,8.196c7.74,6.488-1.024,7.968-1.024,7.968
		s-14.798-1.138-15.822-3.756c-1.025-2.618-22.083,1.138-11.838-14.684c-0.911-2.049,0.911-5.236,0.911-5.236
		c-2.163-12.521,1.138-13.887,1.138-13.887l-6.374-3.643c0,0-18.099,11.041-38.247,2.504c-1.366,2.277-10.928,8.651-10.928,8.651
		s-1.48,5.236-3.87,5.691c-1.48,0.228,0,4.098,0,4.098c1.594,6.033-6.375,10.472-6.375,10.472s-4.895,8.765-17.302,4.553
		c-5.919-4.439,4.098-9.22,7.968-14.342c3.87-5.122,1.252-7.057,1.366-7.968s3.415-1.594,3.415-1.594
		c-1.138-5.464,5.009-17.074,5.009-17.074l7.285-19.666c0,0-5.008-9.247-1.366-17.898c-2.618-1.138-0.911-11.155-0.911-11.155
		s-0.455-5.578-14.342,2.049c0,0-4.326,10.017-18.896,1.821c-7.627-3.301-5.464-15.026-5.464-15.026s-3.87-2.846-5.919-5.236
		c-4.553,1.935-11.497-8.31-2.504-8.196c8.992,0.114,4.325-0.228,4.325-0.228s5.122,1.707-2.96-6.375
		c-6.488-6.83,2.504-8.082,5.009-6.83c0,0-5.464-15.026,5.919-9.106c2.39,0.797,3.643,11.269,4.667,10.472
		c1.024-0.797,0.114-9.106-0.569-10.7c-0.683-1.594,5.009-12.749,7.285,0.455c0.911,7.057,0.683,12.863,10.358,17.871
		C55.57,50.32,65.929,48.954,65.929,48.954z"/>
</g>
</svg>
