<?xml version="1.0" encoding="utf-8"?>
<!-- Generator: Adobe Illustrator 17.0.0, SVG Export Plug-In . SVG Version: 6.00 Build 0)  -->
<svg version="1.2" baseProfile="tiny" xmlns="http://www.w3.org/2000/svg" xmlns:xlink="http://www.w3.org/1999/xlink" x="0px"
	 y="0px" width="200px" height="200px" viewBox="0 0 200 200" overflow="visible" xml:space="preserve">
<g id="Layer_1">
</g>
<g id="Layer_4">
	<path fill="none" stroke="#464646" stroke-width="2" stroke-linecap="round" stroke-linejoin="round" stroke-miterlimit="10" d="
		M96.256,171.351c-1.035-2.497-2.03-9.744-0.761-17.357c-3.292-23.001-8.159-59.703-8.159-59.703s-8.252,12.852-6.391,21.051
		c1.861,8.199-6.766,10.525-6.766,10.525s1.775,13.408-6.766,13.909c0,0-21.271,24.067-18.419-8.646
		c10.973-33.982,40.017-58.641,40.017-58.641s-7.794-14.605-2.051-16.163c5.49-3.842,2.051-6.766,2.051-6.766
		s-8.234-8.242-5.434-15.788l-1.88-5.639c-13.356-13.97,1.332-16.873,3.759-14.66c2.934-1.848,16.13-9.461,18.823,4.511
		c9.234,9.122-5.291,9.773-5.291,9.773s-0.839,2.227,0.752,7.894c1.591,5.667-4.135,11.277-4.135,11.277l0.377,5.263
		c0,0,1.621-0.436,5.262,5.639c3.641,6.075-0.751,16.163-0.751,16.163s56.163,56.401,46.611,78.939
		c-10.751,16.035-18.419-1.503-18.419-1.503c-10.35-2.257-10.526-15.788-10.526-15.788c-9.214-2.71-13.88-34.959-13.88-34.959
		l-2.659,54.695l0.751,15.975C102.372,171.351,100.823,182.365,96.256,171.351z"/>
</g>
</svg>
