<?xml version="1.0" encoding="utf-8"?>
<!-- Generator: Adobe Illustrator 17.0.0, SVG Export Plug-In . SVG Version: 6.00 Build 0)  -->
<svg version="1.2" baseProfile="tiny" xmlns="http://www.w3.org/2000/svg" xmlns:xlink="http://www.w3.org/1999/xlink" x="0px"
	 y="0px" width="200px" height="200px" viewBox="0 0 200 200" xml:space="preserve">
<g id="Layer_1">
</g>
<g id="Layer_4">
	<path fill="none" stroke="#464646" stroke-width="2" stroke-linecap="round" stroke-linejoin="round" stroke-miterlimit="10" d="
		M107.868,164.971c0,0,3.504,1.176,7.532,0c3.664,5.278,13.407,2.073,13.407,2.073s9.309,3.696,20.358-6.23
		c11.05-9.923,9.127-32.871,17.662-42.596c-4.048-2.967-21.298,14.546-21.298,14.546s-2.897-2.682-5.195-2.597
		c-2.298,0.084-3.595,6.57-5.454,5.973c-1.859-0.597,4.952-18.068-13.766-4.415l-1.818-4.416c0,0,5.494-8.87,5.195-11.168
		c-0.299-2.299-10.649-3.117-10.649-3.117v-7.013l8.052-3.377c0,0,5.054,2.72,6.753-1.818c7.083,2.897,8.701-1.039,8.701-1.039
		s17.723,5.952,18.051-2.3c-11.08-4.276-22.874-32.224-33.246-5.753c-2.576-4.549-8.571-10.13-8.571-10.13s8.745-0.679,9.87-8.831
		c-6.696-0.588-8.571-5.714-8.571-5.714s0.797-4.725-0.779-9.35c4.449-1.933,5.455-4.675,5.455-4.675s8.584,1.988,8.997-0.781
		c-7.823-0.835-7.823-13.912-20.643-8.784c2.692-4.359,2.554-9.136,2.554-9.136s20.393,13.11,20.649-5.35
		c-9.743,10.897-7.514-12.197-22.987-7.636c-4.063-2.62-7.268-5.697-15.325,7.791h-3.636c0,0-3.435-29.513-24.155-9.87
		c-11.842-3.361-15.56,13.689-15.56,13.689s-7.481-3.34-9.894-1.222c-2.669,11.862,16.484,11.698,19.22,9.091
		c4.263-2.485,10.909-10.389,10.909-10.389l4.675,3.376l-3.373,4.498c0,0-7.435-4.115-4.679,1.995
		c-12.243,0.984-4.415,11.688-4.415,11.688s-2.834,8.354,4.156,13.246c0,0,0.635,4.667-2.598,2.858
		c-4.258-3.733-13.232,3.959-5.194,8.831c3.116,6.282,3.757,6.41,7.272,7.533c4.946,8.877,4.416,0,4.416,0l3.376-1.558
		c0,0,7.256,4.017,11.948,3.637c4.692-0.381-9.87,8.429-9.87,8.429s-2.745-4.707-8.386-2.143c-5.641,2.564-4.341,6.961-4.341,6.961
		l-3.636,4.415c-9.586-0.351-3.059,15.771,1.818,16.363c-4.481,25.848,6.754,34.545,6.754,34.545l1.558,5.194l-7.273,4.416
		c-13.981-9.205-14.545,4.416-14.545,4.416s0.948,3.429,5.194,3.117c-1.297,1.338-1.575,8.373,11.266,5.569
		c4.21,9.727,4.578,3.003,4.578,3.003s2.309,6.254,6.493,1.817c4.185-0.467,5.195,2.338,5.195,2.338s0.272,6.56,4.675,2.858
		c9.955,0.881,11.877-4.375,15.584-7.013C117.91,178.454,107.868,164.971,107.868,164.971z"/>
</g>
</svg>
