<?xml version="1.0" encoding="utf-8"?>
<!-- Generator: Adobe Illustrator 17.0.0, SVG Export Plug-In . SVG Version: 6.00 Build 0)  -->
<svg version="1.2" baseProfile="tiny" xmlns="http://www.w3.org/2000/svg" xmlns:xlink="http://www.w3.org/1999/xlink" x="0px"
	 y="0px" width="200px" height="200px" viewBox="0 0 200 200" xml:space="preserve">
<g id="Layer_1">
</g>
<g id="Layer_4">
	<path fill="none" stroke="#464646" stroke-width="2" stroke-linecap="round" stroke-linejoin="round" stroke-miterlimit="10" d="
		M141.818,135.914c18.243,0.303,28.834-37.111,28.834-37.111l8.81-9.344c0,0,9.567-9.67-10.145-4.806
		c-38.392,20.477-47.522,6.408-47.522,6.408L100.169,76.11c0,0,1.891-12.606-16.019-21.625
		c0.213-17.941-17.087-28.567-17.087-28.567s-0.099-6.064-5.34-5.873c-6.356-13.053-10.145-3.738-10.145-3.738
		s-3.828-2.081-4.272,7.475c-5.183,0.775-6.14,4.005-6.14,4.005s-14.294,4.009-14.684,6.941c-4.154-5.014-2.403,2.67-2.403,2.67
		s-0.119,15.465,6.941,16.019c-1.862,4.039,5.073,3.204,5.073,3.204l10.412-0.534c0,0-1.438,12.921,7.475,13.349l2.403,4.005
		c0,0-5.065,2.894-3.738,6.141l-2.637,2.293l-9.644,8.386l-1.602-6.407c18.601-5.34,8.276-9.344,8.276-9.344
		s0.889-4.983-4.005-4.806c-4.893,0.177-3.116,1.425-7.742,2.67s-2.937,6.408-2.937,6.408s2.49,5.251,1.335,12.815
		c-3.114,7.831,2.669,11.391,4.806,11.747c2.137,0.356,11.212-8.987,14.15-9.611c6.942-1.78,6.139,15.573-0.801,22.96
		c-16.64,38.088,20.29,35.508,20.29,35.508s-9.076,8.365-9.344,11.48c-4.004-1.068-8.542,1.512-8.542,1.512
		s-6.763-5.695-9.612,2.226c-11.301,5.073-0.534,6.14-0.534,6.14c-8.187,8.988,13.883,4.806,13.883,4.806s-3.56,7.565,14.417,2.67
		c17.622-17.887,17.087-25.897,17.087-25.897s2.76-5.429-3.204-5.34c-4.983-0.979,1.335-3.738,1.335-3.738
		s25.807-1.869,30.702,2.136c5.341,7.208,10.325,6.319,16.82,6.674c3.65,3.382-6.408,26.164,0.802,27.053
		c4.627,1.335,5.961,1.158,9.877-0.89c6.764,2.136,13.794,3.738,14.951-2.136c1.336-2.491,16.731,4.36,6.052-8.632
		c-3.559-7.921-6.586-3.382-6.586-3.382s-12.549-9.166-11.747-17.087s-5.34-7.208-5.34-7.208L141.818,135.914z"/>
</g>
</svg>
