<?xml version="1.0" encoding="utf-8"?>
<!-- Generator: Adobe Illustrator 17.0.0, SVG Export Plug-In . SVG Version: 6.00 Build 0)  -->
<svg version="1.2" baseProfile="tiny" xmlns="http://www.w3.org/2000/svg" xmlns:xlink="http://www.w3.org/1999/xlink" x="0px"
	 y="0px" width="200px" height="200px" viewBox="0 0 200 200" xml:space="preserve">
<g id="Layer_1">
</g>
<g id="Layer_4">
	<path fill="none" stroke="#464646" stroke-width="2" stroke-linecap="round" stroke-linejoin="round" stroke-miterlimit="10" d="
		M98.491,140.17c-2.71,1.49-8.671,0-8.671,0v6.774l-2.71,5.148c0,0-3.387,12.871-1.897,17.613c2.032,2.845,0,10.297,0,10.297
		c-13.955,11.516-18.561-1.626-18.425-7.181c0.135-5.555,9.348-22.896,9.348-22.896s-3.251-6.097,0.948-8.4
		c3.522-5.148,1.761-8.129,1.761-8.129s-6.368-13.684,1.49-21.271l-3.929-19.916c0,0-11.652,0.813-10.297-19.374
		c0,0-3.387-6.097,0-7.316c-6.368-9.89,2.439-15.445,2.439-15.445l0.542-2.845c0,0-2.71-2.303-0.948-3.929
		c-5.69-4.471-0.271-7.452-0.271-7.452s-4.877-11.516-0.135-16.393c1.619-1.439,2.574,1.49,2.574,1.49S79.388,5.772,83.182,8.075
		c3.794,2.303,0.135,9.619,1.761,12.464c1.626,2.845,1.287,16.122-3.794,15.851c2.574,2.032,3.252,7.858-1.084,7.993
		c1.626,1.084-0.813,2.981-0.813,2.981s2.845,3.929,3.048,7.723c0.745,1.761,1.425-0.293,1.965-2.439
		c0.542-2.146,1.49-15.851,25.877-7.045c3.522-3.929,10.432-2.981,10.432-2.981s1.219-4.064,6.232,1.219
		c3.523-2.574,8.671,5.284,3.387,13.142c1.355,3.387,0.677,3.658-3.658,3.387c-0.406,1.761-0.813,5.148-5.555,5.148
		c5.69,5.419,4.2,22.219,4.2,22.219s-0.407,3.387,2.71,5.013c3.116,1.626,7.181,12.735,7.181,12.735s4.877,3.523,2.71,4.742
		c12.464,11.245,2.71,15.038,2.71,15.038s-0.542,1.355-6.368,1.49c-5.826,0.135-5.013-6.232-5.013-6.232s-5.284,3.252-9.213,0.406
		c-3.929-2.845,4.606-7.858,4.606-7.858l-0.271-9.89l-2.574-0.949c0,0-7.723,23.032-9.619,22.761
		c-0.135,3.116,2.71,4.742,2.71,4.742s18.155-8.264,16.664,11.651c-0.677,5.419-13.955,18.155-23.438,22.084
		c-9.484,3.929-7.451-8.129-7.451-8.129C95.646,148.977,98.491,140.17,98.491,140.17z"/>
</g>
</svg>
