<?xml version="1.0" encoding="utf-8"?>
<!-- Generator: Adobe Illustrator 17.0.0, SVG Export Plug-In . SVG Version: 6.00 Build 0)  -->
<svg version="1.2" baseProfile="tiny" xmlns="http://www.w3.org/2000/svg" xmlns:xlink="http://www.w3.org/1999/xlink" x="0px"
	 y="0px" width="200px" height="200px" viewBox="0 0 200 200" xml:space="preserve">
<g id="Layer_1">
</g>
<g id="Layer_4">
	<path fill="none" stroke="#464646" stroke-width="2" stroke-linecap="round" stroke-linejoin="round" stroke-miterlimit="10" d="
		M98.415,118.006c0,0,9.935-1.699,11.435-6.199c19.75,5.25,15-9,15-9s25.5-10,5.75-55.25c1-13.5,1-44.25-28.25-36.75
		c12.25,7.25,9.5,18,9.5,18s-27.75,13.25-27,28.25c-9.5,20.5-4.25,35.75-4.25,35.75c-4.75,0-20.5,13.5,10.25,25.5v2.5
		c0,0-15.875,3.625-17.25,5s0,4.25,0,4.25c-3.5,0.25-18.25,16.25-15,29c1,3.75,9,3.875,11.5,2.25s2.5-8.75,2.5-8.75
		s5.375-2.375,0.25-4.5s-6.25-5.25-6.25-5.25s7.25-5.375,8.75-9.25c2.625,1.125,7.75-0.5,7.75-0.5s-7,17.375-6.75,19.25
		s3.5,0.5,4.25,1.75s-1,11-3.5,12.75s-7.5,13-7.5,13s-8.375,11.25-5.5,13.25s15.75,1.875,18,0s-0.75-10-0.75-10
		s10.487-20.25,13.056-20c2.569,0.25,7.694,16.5,7.694,16.5s-2.125,7.875,0,9s27.875,4.375,28.5,1.5c-0.625-12.5-13-10.75-13-10.75
		s-2.375-1.625-4.5-1.75c0.125-3.625-6-25.25-6-25.25l2.5-0.75l-5.75-18.25c0,0,5.875,1.5,7.75,0.25s8.25,8.5,8.25,8.5
		s0.375,1-8.25,2.75c-4.375,2.875,1.75,6.25,1.75,6.25s-3.125,1.25-2.75,3.75s9.875,7.5,13,5.5c9.125-22.625-8.75-31.25-8.75-31.25
		s0.75-2.125-0.75-3.5s-15.982-4.303-15.982-4.303L98.415,118.006z"/>
</g>
</svg>
