<?xml version="1.0" encoding="utf-8"?>
<!-- Generator: Adobe Illustrator 17.0.0, SVG Export Plug-In . SVG Version: 6.00 Build 0)  -->
<svg version="1.2" baseProfile="tiny" xmlns="http://www.w3.org/2000/svg" xmlns:xlink="http://www.w3.org/1999/xlink" x="0px"
	 y="0px" width="200px" height="200px" viewBox="0 0 200 200" xml:space="preserve">
<g id="Layer_1">
</g>
<g id="Layer_4">
	<path fill="none" stroke="#464646" stroke-width="2" stroke-linecap="round" stroke-linejoin="round" stroke-miterlimit="10" d="
		M97.428,5.157c0,0-30.396,0-26.499,36.892c-3.637-1.299-13.769,4.677,1.56,10.911c0,6.235,12.989,14.809,12.989,14.809
		S65.734,78.68,59.498,78.68c-6.235,0-12.99-11.431-12.99-11.431s-0.52,1.039,4.157-5.196c4.677-6.235-4.157-3.117-4.157-3.117
		l-3.637,2.338c0,0,0-3.378-5.195-11.95c-5.196-8.573-4.677,0.779-4.677,0.779s3.118,6.494,1.039,7.533
		c-2.078,1.04,2.339,1.819-4.937-4.936c-7.273-6.754-4.416,1.818-4.416,1.818l4.416,7.015c0,0,0.78,1.819-7.014-1.818
		c-7.794-3.638-2.598,3.378-2.598,3.378l8.832,2.338c0,0,0,1.299-6.754,1.818c-6.755,0.52-0.26,3.896-0.26,3.896l5.455-1.039
		l8.833,4.936c17.666,38.71,45.464,13.51,45.464,13.51l-4.156,46.244c0,0-19.879,32.034-10.911,41.566
		c-15.588,5.715-10.911,11.951-10.911,11.951s7.014,8.312,16.106,0c4.677,5.059,10.132-6.496,10.132-6.496s0-24.664,16.107-23.242
		h1.062c16.107-1.422,16.107,23.242,16.107,23.242s5.456,11.555,10.132,6.496c9.093,8.312,16.107,0,16.107,0
		s4.677-6.236-10.911-11.951c8.969-9.532-10.912-41.566-10.912-41.566l-4.156-46.244c0,0,27.798,25.2,45.464-13.51l8.833-4.936
		l5.456,1.039c0,0,6.495-3.377-0.26-3.896c-6.755-0.52-6.755-1.818-6.755-1.818l8.833-2.338c0,0,5.196-7.016-2.598-3.378
		c-7.794,3.638-7.015,1.818-7.015,1.818l4.416-7.015c0,0,2.858-8.572-4.416-1.818c-7.274,6.755-2.857,5.976-4.936,4.936
		c-2.079-1.039,1.039-7.533,1.039-7.533s0.52-9.353-4.677-0.779c-5.196,8.572-5.196,11.95-5.196,11.95l-3.637-2.338
		c0,0-8.833-3.118-4.156,3.117c4.676,6.235,4.156,5.196,4.156,5.196s-6.755,11.431-12.99,11.431
		c-6.234,0-25.979-10.911-25.979-10.911s12.989-8.573,12.989-14.809c15.328-6.234,5.196-12.21,1.56-10.911
		c1.271-7.697,0.096-13.827-1.08-18.323c-0.1-0.383,4.693-1.934,4.965-2.525c0.366-0.8-4.188-0.747-4.355-1.219
		c-0.35-0.983,4.646-2.539,3.326-2.789c-1.764-0.336-6.883,0.529-7.549-0.463C112.523,5.157,98.49,5.157,98.49,5.157H97.428z"/>
</g>
</svg>
