<?xml version="1.0" encoding="utf-8"?>
<!-- Generator: Adobe Illustrator 17.0.0, SVG Export Plug-In . SVG Version: 6.00 Build 0)  -->
<svg version="1.2" baseProfile="tiny" xmlns="http://www.w3.org/2000/svg" xmlns:xlink="http://www.w3.org/1999/xlink" x="0px"
	 y="0px" width="200px" height="200px" viewBox="0 0 200 200" xml:space="preserve">
<g id="Layer_1">
</g>
<g id="Layer_4">
	<path fill="none" stroke="#464646" stroke-width="2" stroke-linecap="round" stroke-linejoin="round" stroke-miterlimit="10" d="
		M81.31,82.741c12.895,17.319,35.333,10.889,35.333,10.889c26.187-2.569,32.223,9.111,32.223,9.111
		c23.839,4.819,15.111-13.778,15.111-13.778c-7.771-15.652,10.222-15.777,10.222-15.777c16.381,2.375,14,9.556,14,9.556
		c-1.619,4.194-6.889-0.222-6.889-0.222c-15.104-7.332-10.889,9.777-10.889,9.777c4.034,23.889-18,18-18,18
		c-1.216,20.639,10.445,22,10.445,22c1.964,16.139,11.063,27.166,10.889,27.777s-2.889,0-2.889,0
		c8.464,16.111,1.111,20.445,1.111,20.445c-3.271,1.155-6.889-3.334-6.889-3.334c-1.883,1-5.556-1.111-5.556-1.111
		c-0.827,2.236-5.111,0.223-5.111,0.223c-1.216,2.014-2.667,0.666-2.667,0.666c-4.049-3.027-0.666-7.333-0.666-7.333
		c0.617-4.694,4.889-2.889,4.889-2.889c2.854-7.931,6.667-0.444,6.667-0.444l1.778-0.223c5.034-22.014-26.667-29.555-26.667-29.555
		c-4.424-1.459-1.333,13.11-1.333,13.11c1.034,2.306-19.555-2.222-19.555-2.222c2.214,7.902-7.334,9.555-7.334,9.555
		c-3.577,3.723-7.111-0.889-7.111-0.889c-4.341,1.861-4.341-1.333-4.341-1.333c-4.625,0.444-3.437-4.89-3.437-4.89
		c4.312-4.041,6.619-11.36,9.778-12.889c3.159-1.527,12.341,6.098,16,4.223c1.534-2-3.555-9.556-3.555-9.556
		c-17.161-5.944-33.333,2.89-33.333,2.89c-1.452,8.916-14.923,28.805-16,29.11c-1.077,0.306-1.556-1.778-1.556-1.778
		c-1.896,22.459-16,10.223-16,10.223c-3.896,1.611-5.111-1.555-5.111-1.555c-1.661,3.291-4,0.889-4,0.889c-2.036,1.277-2,0-2,0
		c-3.286-10.223,4.222-9.111,4.222-9.111c4.242-6.236,5.778-2,5.778-2c7.339-4.861,7.333-0.667,7.333-0.667l1.556,1.111
		c11.701-5.931,9.111-27.333,9.111-27.333c-2.411,0.152-6.284-3.307-8.222-2.89c-1.938,0.417-2.784,5.917-5.111,6.667
		c-2.327,0.75-17.327-15.125-21.111-16.445c-0.869-1.811,0.022-0.569,1.778-2c1.756-1.43-3.701-5.93-6.223,0.445
		c-2.521,6.375,1.556,9.777,1.556,9.777c-0.327,7.973-8.667,6.445-8.667,6.445c-5.911,5.902-7.556,0.443-7.556,0.443
		c-5.771,2.959-3.778-7.555-3.778-7.555c-6.577-1.861,2-10.223,2-10.223c13.173,6.486,10.327-9.389,16-10.889
		c5.673-1.5,15.556,9.111,15.556,9.111c-4.633-14.736,2.605-26.487,3.111-27.111c0.506-0.625-2-0.223-2-0.223
		s-0.423,4.625-1.333,5.111c-0.911,0.486-7.089-1.486-8-2c-0.911-0.514,2.382-6.265,3.111-6.889
		c0.729-0.625,4.445,0.222,4.445,0.222s0.732-2.323,2.667-3.333c1.934-1.01,2.48,0.305,5.111-2.667
		c2.631-2.972,4.63-8.006,4.222-9.556c-0.408-1.55-1.111-4.223-1.111-4.223c-3.98-3.193,0.222-5.11,0.222-5.11
		c1.173-5.458-2.687-5.236-4.444-6.222c-1.758-0.986-7.778-11.111-7.778-11.111c0.645-16.25,18.222-7.778,18.222-7.778
		c2.923-0.972,4.667-4,4.667-4c-7.869-2.097,1.111-8.667,1.111-8.667c7.145-4.055,9.369-1.819,8.444,0
		c-0.924,1.82-5.333,3.334-5.333,3.334c4.784,0.486,2,3.333,2,3.333c4.159-0.347,6.222,2.444,6.222,2.444
		c6.812-7.416,8.889-0.444,8.889-0.444c13.173,1.903,5.333,4.667,5.333,4.667c-2.786,0.986-6-0.667-6-0.667
		c1.589,4.903-4,4.222-4,4.222c7.339,2.557-1.556,37.557-1.556,37.557C83.58,77.811,81.31,82.741,81.31,82.741z"/>
</g>
</svg>
