<?xml version="1.0" encoding="utf-8"?>
<!-- Generator: Adobe Illustrator 17.0.0, SVG Export Plug-In . SVG Version: 6.00 Build 0)  -->
<svg version="1.2" baseProfile="tiny" xmlns="http://www.w3.org/2000/svg" xmlns:xlink="http://www.w3.org/1999/xlink" x="0px"
	 y="0px" width="200px" height="200px" viewBox="0 0 200 200" xml:space="preserve">
<g id="Layer_1">
</g>
<g id="Layer_4">
	<path fill="none" stroke="#464646" stroke-width="2" stroke-linecap="round" stroke-linejoin="round" stroke-miterlimit="10" d="
		M119.317,97.504v6.366c0,0,19.404,13.092,13.287,22.268l-2.804-5.352c0,0,1.044,10.204-0.752,11.091
		c-0.777-5.739-3.204-7.595-3.204-7.595l-1.079,6.279c-1.846-10.285-8.771-14.349-8.771-14.349s16.88,45.286,11.393,47.231
		c11.334,18.512-5.934,19.7-5.934,19.7s-18.499,4.113-26.613-4.272c-26.465,5.123-11.682-20.364,0-17.305
		C94.373,137.861,75.588,107.662,80.393,96c-5.39,4.14-8.07,0-8.07,0s-2.787,6.853-6.171,5.496c1.204,9.094-7.12,11.155-7.12,11.155
		s-6.646,2.718-6.646-6.171c0,0-3.382-8.889,0-11.63c0.442-3.121,2.136-6.883,2.136-6.883c-5.518-5.159-1.694-20.961,6.171-5.221
		c4.624,0.572,4.414-0.528,7.832,1.424c25.338-8.753,16.162-14.87,20.649-28.481c0,0-6.016,2.652-7.832-8.782
		c-7.869,2.003-12.105-1.661-12.105-1.661s-9.371,1.65-6.646-6.646c-3.901-9.825,3.56-3.323,3.56-3.323s-0.878-3.135,16.851-3.323
		c-0.61-2.924,0.475-8.782,0.475-8.782c-1.485-2.012-5.696,0-5.696,0l0.712-2.611c0,0-3.356,0.374-4.984,2.611
		c-1.518-5.384,8.544-5.222,8.544-5.222l-3.086-2.374h6.171c0,0,4.678-12.378,12.847-2.611c15.474,3.53,4.479,11.867,4.479,11.867
		s1.028,8.738-2.136,8.544c5.657,5.37,1.661,7.12,1.661,7.12l-0.475,3.086l5.696,1.899l2.136-2.848
		c-1.339-14.113,14.844-2.875,4.035,1.661l-2.611,5.934c1.441,18.306,28.458,17.796,16.851,34.652
		C117.567,99.375,119.317,97.504,119.317,97.504z"/>
</g>
</svg>
