<?xml version="1.0" encoding="utf-8"?>
<!-- Generator: Adobe Illustrator 17.0.0, SVG Export Plug-In . SVG Version: 6.00 Build 0)  -->
<svg version="1.2" baseProfile="tiny" xmlns="http://www.w3.org/2000/svg" xmlns:xlink="http://www.w3.org/1999/xlink" x="0px"
	 y="0px" width="200px" height="200px" viewBox="0 0 200 200" xml:space="preserve">
<g id="Layer_1">
</g>
<g id="Layer_4">
	<path fill="none" stroke="#464646" stroke-width="2" stroke-linecap="round" stroke-linejoin="round" stroke-miterlimit="10" d="
		M96.035,15.753c0,0-11.125-1.792-18.332,7c-27.459,2.416-5.459,23.416,0,21.666c2.041,0.25,1.332,5.334,1.332,5.334
		c-26.916,10.416-3.416,23.166,7.668,22.666c0.631,2.12-2.209,3.75-2,5.334c-4.209,0.791-16.865,16.058-23.824,28.664
		c-9.875,1.875-6.26,6.002-5.176,9.002c-6.209,16.375,15.541,13.75,13.332-3c4.584-3.375,9.168-20.291,10-21.333
		c0.834-1.042,2.959-0.792,2.959-0.792s-12.584,27.875,0.709,36.125c-1.156,18.119-5.521,40.111-5,41c0.521,0.889,3.332,0,3.332,0
		s-14,15.375-7.332,18c6.666,2.625,14-7,14-7c10.666,1.125,5-10.333,5-10.333s3.086,0.292,4.166-2.042
		c-4.25-17.375-2.834-37.958-2.834-37.958l7.258,0.041c0,0,1.416,20.583-2.834,37.958c1.08,2.334,4.166,2.042,4.166,2.042
		s-5.666,11.458,5,10.333c0,0,7.334,9.625,14,7c6.668-2.625-7.332-18-7.332-18s2.812,0.889,3.332,0c0.521-0.889-3.842-22.881-5-41
		c13.293-8.25,0.709-36.125,0.709-36.125s2.125-0.25,2.959,0.792c0.832,1.042,5.416,17.958,10,21.333
		c-2.209,16.75,19.541,19.375,13.332,3c1.084-3,4.701-7.126-5.174-9.001c-6.961-12.607-19.617-27.874-23.826-28.665
		c0.209-1.584-2.631-3.214-2-5.334c11.084,0.5,34.584-12.25,7.668-22.666c0,0-0.709-5.084,1.332-5.334
		c5.459,1.75,27.459-19.25,0-21.666c-7.207-8.792-20.332-7-20.332-7L96.035,15.753z"/>
</g>
</svg>
