<?xml version="1.0" encoding="utf-8"?>
<!-- Generator: Adobe Illustrator 17.0.0, SVG Export Plug-In . SVG Version: 6.00 Build 0)  -->
<svg version="1.2" baseProfile="tiny" xmlns="http://www.w3.org/2000/svg" xmlns:xlink="http://www.w3.org/1999/xlink" x="0px"
	 y="0px" width="200px" height="200px" viewBox="0 0 200 200" overflow="visible" xml:space="preserve">
<g id="Layer_1">
</g>
<g id="Layer_4">
	<path fill="none" stroke="#464646" stroke-width="2" stroke-linecap="round" stroke-linejoin="round" stroke-miterlimit="10" d="
		M86.028,125.12c0,23.168-25.668,17.667-30.167,19.834c-5.999,20.834-11.833,17.5-11.833,17.5c-9.5-1.5-2.167-14.334-2.167-14.334
		c5.167-13.999,12.5-10.666,12.5-10.666c25.501,3.5,20.334-17.333,20.334-17.333c-26.667,17.167-37.834,2.499-37.834,2.499
		c-24.665,14.334-24.166,3.334-24.166,3.334c0.667-16.833,22.666-12.334,22.666-12.334c16.501,20.668,36.833-5,36.167-6.5
		c-0.666-1.499-20.333-0.166-25.833,1.5c-5.5,1.668,0.498-2.887-2.834-3.276c-3.332-0.39-11.001-3.724-11-5.056
		c0.001-1.334,12.832,4.666,15.5-5.334c2.668-10,9.834-4,9.834-4c3.834,0,3-1,4.5-2.166c1.5-1.167,8.166-1,8.166-1
		c9.334-4.5,30.499-9.168,31.5-10.668c1.001-1.499,0-4.332,0-4.332l-1.5-2.834h-1.333c0,0,0.25,0.832,0,1.5
		c-0.25,0.668-0.835,0.166-1.334,0c-0.499-0.166-0.584-3.751,0-4.5c0.584-0.749,0.167,0.249,0.834,0
		c0.667-0.249,1.917,0.666,1.667-3.666c-0.25-4.334,3.333-12.334,3.333-12.334s0.833-1.666,0-1.666c-0.833,0-1.166,0.416-1.833,0
		s-0.334-1-0.334-1s4.001-2.501,4.834-2.5c0.833,0,0.833,1.166,0.833,1.166l-0.833,0.666v1.334c9,1.084,10.464,6.536,12.166,7.166
		c1.702,0.631,3.333,1.584,4.5,1.668c1.167,0.084,0.584-0.834,0.834-1.334s0.928-0.6,1.166-0.166
		c0.238,0.432,1.751,2.415,1.834,3.332c0.083,0.918-1.334,0.5-1.334,0.5c5.584,8.084,1.334,12,1.334,12c3.083,1.668,4.166,8,4.166,8
		c11.5-1.332,27.5-11,29.167-12.5c1.667-1.498,1.583-9.834,3.5-12c1.917-2.166,1.333-3,3.333-1.666s-1.5,5.416,0,5.334
		c1.5-0.084,3.5-5.252,7-3.834c3.5,1.418-3.416,5.666-2.666,6.5s4-3.084,8.333-0.5c4.333,2.584-7.083,3.25-6.5,5
		c0.583,1.75,5.5,2.834,5.5,2.834c2.083,7.166-11.667,1.666-11.667,1.666c-17.583,11.418-37.333,14-37.333,14
		c-5,9.5-17.666,4.667-17.666,4.667c6.249,10.167,21.666,4,21.666,4c6-1.249,14.667-7.667,14.667-7.667c2.416,0.834-7.667,3.334,1,3
		c8.583,0,5.5,4.334,5.5,4.334l-1.667,1.166c3.917,3,1.334,5,1.334,5c-1.251,2.5-6.749-3.168-7.5-2c-0.751,1.168,7.084,4.75,3,6.667
		s-7.418-9.583-27.334-3.167c-13.501-0.749-11.249-7.334-14.5-8c2.749,16.668-5,15.667-5,15.667
		C98.361,122.121,86.028,125.12,86.028,125.12z"/>
</g>
</svg>
