<?xml version="1.0" encoding="utf-8"?>
<!-- Generator: Adobe Illustrator 17.0.0, SVG Export Plug-In . SVG Version: 6.00 Build 0)  -->
<svg version="1.2" baseProfile="tiny" xmlns="http://www.w3.org/2000/svg" xmlns:xlink="http://www.w3.org/1999/xlink" x="0px"
	 y="0px" width="200px" height="200px" viewBox="0 0 200 200" overflow="visible" xml:space="preserve">
<g id="Layer_1">
</g>
<g id="Layer_4">
	<path fill="none" stroke="#464646" stroke-width="2" stroke-linecap="round" stroke-linejoin="round" stroke-miterlimit="10" d="
		M119.586,144.323c0,0,25.013-11.785,14.671-49.056c1.684-1.449,18.519,0.234,22.126,9.133c7.696,8.177,11.062,12.987,11.062,12.987
		s6.975,2.645,6.494,9.139c-0.481,6.494,5.291,2.646,5.291,2.646s-2.406,7.306,0,12.506c5.531,6.493,7.455-12.025,7.455-12.025
		s0-8.658-10.822-14.189c-0.722-5.05-5.772-4.81-5.772-4.81s-12.921-17.317-18.999-20.202c-6.078-2.885-8.658-4.57-19.962-8.177
		c22.607,5.291,19.722-43.29-6.493-23.81c0,0-1.202-6.253-5.051-9.139c13.228-14.911,2.887-13.708,0-9.861
		c0,0-22.848-41.816-46.416-1.202c-13.949-4.329,0,12.746,0,12.746s-2.646,3.608-3.849,9.62
		c-16.835-17.797-36.556,26.214-4.569,22.367v4.81c0,0-20.442-1.443-30.543-15.633c-0.241-4.088,8.657-13.708,9.379-16.594
		c0.722-2.886-0.962-8.417-9.379,0.481c-3.127-1.203-8.658-23.809-9.14-6.013c-2.077-2.507-9.379-12.747-7.936,0
		c-6.012-4.569-2.886,6.494-2.886,6.494s2.165,6.494,12.266,18.519c10.101,12.025,35.594,25.733,35.594,25.733
		s-5.05,28.379,13.949,41.366c-10.582,4.569-12.266,16.354-12.266,16.354s-12.335,8.275-4.088,15.392
		c21.885,4.81,37.999-5.772,37.999-5.772s6.975,11.784,17.797,9.86c10.822-1.924,25.732,1.924,21.645-10.582
		C128.958,153.594,119.586,144.323,119.586,144.323z"/>
</g>
</svg>
