<?xml version="1.0" encoding="utf-8"?>
<!-- Generator: Adobe Illustrator 17.0.0, SVG Export Plug-In . SVG Version: 6.00 Build 0)  -->
<svg version="1.2" baseProfile="tiny" xmlns="http://www.w3.org/2000/svg" xmlns:xlink="http://www.w3.org/1999/xlink" x="0px"
	 y="0px" width="200px" height="200px" viewBox="0 0 200 200" xml:space="preserve">
<g id="Layer_1">
</g>
<g id="Layer_4">
	<path fill="none" stroke="#464646" stroke-width="2" stroke-linecap="round" stroke-linejoin="round" stroke-miterlimit="10" d="
		M95.623,139.497l12.182,22.931c0,0,20.444-13.71,30.813-2.627c10.369,11.083-1.911,15.287-1.911,15.287
		c-7.388,4.374-17.914-1.911-17.914-1.911s-0.09-1.614-9.077-1.434c-12.279,0.007-13.767-27.106-19.348-30.574l-3.822-0.478
		c0,0,4.666,21.426,5.972,23.408c1.306,1.982,5.204,5.017-1.911,10.988c-7.115,5.972-9.458,13.471-25.486,14.077
		c-18.454-1.992-5.978-18.367-1.505-20.288c5.058-2.065,22.992-3.018,22.992-3.018l-5.794-26.362c0,0-10.354-1.246-10.988-10.749
		c-14.322-19.293,7.338-12.796,7.338-12.796s-4.726-14.041,6.994-12.046l9.469-3.204c0,0,6.184-5.252-2.063-6.828
		c-27.223-7.295-5.185-20.83-0.479-19.348c-0.405-2.243-2.398-9.261,2.628-13.377c-6.76-5.067-21.96-20.473,0.239-47.772
		c5.13-23.487,11.368-5.293,10.271,0.956c-10.079,37.852-5.188,37.543-3.821,37.74c1.193-20.683,26.146-36.364,36.068-4.3
		c4.287,6.057,6.8,12.642-5.972,5.732c-12.528-15.791-17.198-4.061-17.198-4.061s-5.124,3.88-3.822,6.688
		c1.302,2.809-2.824,7.985-1.194,10.032c2.669,2.566,0.479,8.838,0.479,8.838c19.087,0.142,8.517,18.942-4.539,18.87
		c-1.847,2.932,1.434,5.255,1.434,5.255s18.072-11.101,21.259-16.242c3.187-5.142,4.3-11.943,4.3-11.943
		c0.62-1.931,1.31-2.562-0.434-6.1c-2.34-4.245,2.086-8.504,5.479-3.693c2.881,4.688-0.029,8.838-0.029,8.838
		c17.264-2.38,15.444,21.706-5.255,17.173c-1.654-0.839-24.125,18.179-24.125,18.179C109.307,132.762,95.623,139.497,95.623,139.497
		z"/>
</g>
</svg>
