<?xml version="1.0" encoding="utf-8"?>
<!-- Generator: Adobe Illustrator 17.0.0, SVG Export Plug-In . SVG Version: 6.00 Build 0)  -->
<svg version="1.2" baseProfile="tiny" xmlns="http://www.w3.org/2000/svg" xmlns:xlink="http://www.w3.org/1999/xlink" x="0px"
	 y="0px" width="200px" height="200px" viewBox="0 0 200 200" xml:space="preserve">
<g id="Layer_1">
</g>
<g id="Layer_4">
	<path fill="none" stroke="#464646" stroke-width="2" stroke-linecap="round" stroke-linejoin="round" stroke-miterlimit="10" d="
		M77.333,36.667c-2.41-5.374-1.773-19.386-20-17.667C45.306,13.299,42.917,12.981,39,25.333c0,0-3.248,11.851,12.667,9
		c6.856,2.692,6.5,9,6.5,9s-11.109-4.875,0,6c0,0,0.037,7.437,0,10.333C47.217,62.026,45.766,54.718,39,53c0,0-5.319-15.656-8.333,2
		c0,0-1.778,12.04,8.333,14s4.076,4.49,22.667,0c3.384,3.217-5,11.667-5,11.667s-2.603-3.992-4.667,0c-4.943-3.673-6,1.667-6,1.667
		S39.892,90.051,50.667,87c4.609-0.209,20.231,8.138,20.333-6.667c0,0,0.992-9.265,3.333-11c2.342-1.735,7.333-1.667,7.333-1.667
		l8,5L75.333,99.516c0,0-12.671,18.402,11.667,14.151c7.35-1.482,12.471-7.595,8,0c-4.471,7.594,0,7.667,0,7.667
		s-0.968,4.386,10.333,0c-0.473,6.934-9,8.667-9,8.667s-23.002-22.274-41.667-3.333c-4.265,1.76-12.386,9.722,2.667,5
		C68.076,130.656,82.667,143,82.667,143S67.764,145.773,68,160.667c0,0-5.178,11.868-26.333,8.333c-2.618-1.758-8.144-7.93-11,5.333
		c0,0,0.656,3.456,11.333,5.333C82.567,186.389,82.667,175,82.667,175s5.064,1.072,5.667-1.333
		c-4.015-2.565-2.333-6.333-2.333-6.333s12.49-11.359,57.333-8.333c1.335,7.643-14.964,6.635-15.333,8.333s6.667,1.667,6.667,1.667
		s-21.902,8.045-6.667,12c17.572,3.235,30.841,5.548,45,0c2.401-2.096,5.108-5.758-14-10.667
		c27.866-16.429-1.333-32.333-1.333-32.333s-8.975-10.403-5.333-18.667c3.641-8.263-6.333-8-6.333-8s5.357-4.244,3.333-10.736
		c2.183-4.017-3.718-3.855-7.69-2.743C138.31,90.088,148.333,53,127.333,67c-13,5-40.626,6.65-43.333-14.333
		c5.414-1.628,6.435-11.155,9.667-13C96.898,37.822,86.333,39,86.333,39S84,36.229,77.333,36.667z"/>
	<path fill="none" stroke="#464646" stroke-width="2" stroke-linecap="round" stroke-linejoin="round" stroke-miterlimit="10" d="
		M107.667,96.099c0.696-2.067-10.166-11.343-13.333-10.766c-3.168,0.577-12.652,16.563-11.333,19
		C84.318,106.771,106.97,98.166,107.667,96.099z"/>
	<path fill="none" stroke="#464646" stroke-width="2" stroke-linecap="round" stroke-linejoin="round" stroke-miterlimit="10" d="
		M110.667,77.333c-0.074-1.454,20.826-5.331,22-4.667c1.174,0.664-1.709,15.89-6,16C122.376,88.777,110.741,78.788,110.667,77.333z"
		/>
</g>
</svg>
