<?xml version="1.0" encoding="utf-8"?>
<!-- Generator: Adobe Illustrator 17.0.0, SVG Export Plug-In . SVG Version: 6.00 Build 0)  -->
<svg version="1.2" baseProfile="tiny" xmlns="http://www.w3.org/2000/svg" xmlns:xlink="http://www.w3.org/1999/xlink" x="0px"
	 y="0px" width="200px" height="200px" viewBox="0 0 200 200" xml:space="preserve">
<g id="Layer_1">
</g>
<g id="Layer_4">
	<path fill="none" stroke="#464646" stroke-width="2" stroke-linecap="round" stroke-linejoin="round" stroke-miterlimit="10" d="
		M117.662,75.581c0,0,7.272-13.633,6.666-26.056c27.874-40.903-13.028-38.035-19.997-29.086
		c-12.422-4.242-32.419,8.483-32.419,8.483c-42.72-8.787-18.785,42.115-7.878,34.237c2.727,5.756,12.422,12.118,12.725,14.542
		c0.303,2.425-31.207-4.544-31.207-4.544C4.953,44.981,13.437,95.275,24.041,92.245c16.798,0.596,53.022,8.483,53.022,8.483
		s0.303,8.786,1.515,12.423c-10.302,2.121-10.604,34.236-10.604,34.236l-0.606,20.3c-10.908,10.907,3.029,12.421,3.029,12.421
		c39.691,4.848,21.209-11.512,21.209-11.512l6.06-20.906l9.695,0.909l4.848,19.997c-12.119,14.24,8.786,14.542,8.786,14.542
		s35.146,6.665,17.27-18.179c5.15-38.175-4.242-43.629-4.242-43.629s4.544-25.148,0.303-28.783
		c32.116-9.695,24.506-8.313,40.902-18.481c19.088-7.877,10.302-44.841-17.573-19.694C152.201,61.341,117.662,75.581,117.662,75.581
		z"/>
</g>
</svg>
