<?xml version="1.0" encoding="utf-8"?>
<!-- Generator: Adobe Illustrator 17.0.0, SVG Export Plug-In . SVG Version: 6.00 Build 0)  -->
<svg version="1.2" baseProfile="tiny" xmlns="http://www.w3.org/2000/svg" xmlns:xlink="http://www.w3.org/1999/xlink" x="0px"
	 y="0px" width="200px" height="200px" viewBox="0 0 200 200" xml:space="preserve">
<g id="Layer_1">
</g>
<g id="Layer_4">
	<path fill="none" stroke="#464646" stroke-width="2" stroke-linecap="round" stroke-linejoin="round" stroke-miterlimit="10" d="
		M123.527,31.266c24.144,24.144,19.264,58.563,19.264,58.563h2.055c0,0-2.055-2.825,0-3.853c2.055-1.027,6.165,1.541,6.165,1.541
		s0.257-1.798,2.569-1.798c2.312,0,1.798,2.568,1.798,2.568s2.569-0.257,3.339,1.541c0.77,1.798-1.798,3.082-1.798,3.082
		c2.055,6.935-3.082,8.99-3.082,8.99c-1.027,4.623-10.531,8.99-10.531,8.99c2.055,2.825-2.183,10.788-2.183,10.788
		c-2.44,3.082,3.981,21.576,0,15.411c-3.981-6.164-5.41,3.602-7.834,4.11c-0.514-2.055-2.312-1.798-2.312-1.798
		c2.825,9.76,0.771,21.319-1.284,26.199c1.284,5.137,0.514,7.706,4.623,13.1c-8.733,6.165-18.75-9.504-18.75-9.504
		c7.192-9.247,3.082-23.887,1.541-25.686c-1.541-1.798-19.521,0.257-19.521,0.257c-5.137,15.411,9.247,21.833,9.247,21.833
		c1.541,20.035-11.817,21.019-11.558,18.494c2.825-11.302-2.826-16.439-2.826-16.439c-16.952-8.733-10.274-23.374-10.274-23.374
		c-4.88-8.733-8.476-2.055-11.302-2.055c2.055-12.843-5.651-22.86-5.651-22.86c0.514-7.962-4.623-13.1-5.908-16.182
		c-1.284-3.082,0-5.908,0-5.908s-2.825,1.798-3.596-0.771c-0.771-2.569,3.853-3.596,3.853-3.596s-4.619-3.592-1.541-5.137
		c3.078-1.545,2.569,0.514,2.569,0.514c-1.027-23.631,13.1-52.912,13.1-52.912c-12.843-1.798-4.367-8.99-4.367-8.99
		c6.421-4.367,13.87-0.514,23.631-8.476c5.908-1.541,14.898,3.596,15.411,2.055c0.514-1.541-8.219-7.834-8.219-7.834
		c7.449-3.724,16.696,7.32,16.696,7.32C140.479,21.248,123.527,31.266,123.527,31.266z"/>
</g>
</svg>
