<?xml version="1.0" encoding="utf-8"?>
<!-- Generator: Adobe Illustrator 17.0.0, SVG Export Plug-In . SVG Version: 6.00 Build 0)  -->
<svg version="1.2" baseProfile="tiny" xmlns="http://www.w3.org/2000/svg" xmlns:xlink="http://www.w3.org/1999/xlink" x="0px"
	 y="0px" width="200px" height="200px" viewBox="0 0 200 200" overflow="visible" xml:space="preserve">
<g id="Layer_1">
</g>
<g id="Layer_4">
	<path fill="none" stroke="#464646" stroke-width="2" stroke-linecap="round" stroke-linejoin="round" stroke-miterlimit="10" d="
		M91.332,137.331c-14.173,6.475-21.696,32.37-21.696,32.37c-5.774,17.499-15.574,6.125-15.574,6.125
		c-10.148-10.674-3.15-15.748-3.15-15.748c5.075-4.025,9.274,0.525,9.274,0.525c3.674-13.824,13.648-22.923,13.298-24.322
		c-0.351-1.4-6.473-1.575-6.473-1.575C40.24,142.58,38.14,170.401,38.14,170.401c-3.674,13.998-15.574,0.35-15.574,0.35
		c-6.473-10.673,0.876-13.123,0.876-13.123c2.799-1.4,5.774,0.525,5.774,0.525c9.974-24.496,24.147-30.446,24.147-30.446
		l-10.15-8.573c-4.899,3.499-6.473-1.4-6.473-1.4c-4.724-5.424-3.15-16.798-3.15-16.798c-5.075-9.098,0.174-16.798,0.174-16.798
		c1.575-6.473,9.449-4.199,9.449-4.199c0.351-4.024,7-11.898,7-11.898c-13.3-9.273-12.775-25.546-12.775-25.546
		C25.89,29.547,34.115,27.62,34.115,27.62c4.899-3.149,7.7,2.449,7.7,2.449c12.947-10.847,20.472-7.35,24.321-6.473
		c3.849,0.875,8.75,5.599,8.75,5.599c27.645-5.423,27.12-0.175,30.795,3.501c3.675,3.674,1.052,13.121,3.5,13.121
		c2.45,0.002,2.807,4.083,4.724,3.85c1.917-0.234,7.175-0.875,7.175-0.875c1.749-14.697,7.874-15.923,7.874-15.923
		c5.073,2.101,1.398,14.346,1.923,15.748c0.525,1.401,5.774,1.924,5.774,1.924c9.625-4.722,12.775-0.35,12.775-0.35
		c4.374,8.925-2.276,9.449-2.276,9.449c6.824,4.725,7.7,15.748,7.7,15.748c7.234-0.818,7.349-9.273,7.349-9.273
		c-2.799-14.347,0-15.748,0-15.748c6.125-6.648,12.424-4.199,12.424-4.199c12.073,11.024-1.751,11.373-1.751,11.373
		c2.1,28.698-21.172,33.42-21.172,33.42C133.152,137.856,91.332,137.331,91.332,137.331z"/>
</g>
</svg>
