<?xml version="1.0" encoding="utf-8"?>
<!-- Generator: Adobe Illustrator 17.0.0, SVG Export Plug-In . SVG Version: 6.00 Build 0)  -->
<svg version="1.2" baseProfile="tiny" xmlns="http://www.w3.org/2000/svg" xmlns:xlink="http://www.w3.org/1999/xlink" x="0px"
	 y="0px" width="200px" height="200px" viewBox="0 0 200 200" xml:space="preserve">
<g id="Layer_1">
</g>
<g id="Layer_4">
	<path fill="none" stroke="#464646" stroke-width="2" stroke-linecap="round" stroke-linejoin="round" stroke-miterlimit="10" d="
		M111.692,50.737c43.93,20.483,32.341,45.277,24.525,44.738c1.078,11.319-8.085,12.92-8.085,12.92s-7.553,32.11-7.277,36.4
		c0.277,4.29,0.539,8.355,0.539,8.355c3.064,3.679,12.936,2.426,12.936,2.426c-0.809,3.504-14.553,15.631-14.553,15.631
		c7.816,12.128-8.085,14.553-8.085,14.553c-17.518,2.695-11.858-19.135-11.858-19.135c1.078-3.504-4.851-31.802-4.851-31.802
		l-7.007,31.802c2.965,7.277-2.425,9.163-2.425,9.163c-5.121,13.745-22.908,1.078-22.908,1.078
		c-4.851-3.773,6.336-7.819,6.199-12.667c-1.617-8.894,2.426-42.313-1.617-57.136c-0.809-7.546,2.695-18.596,2.695-18.596
		l-1.347-6.199C52.4,94.128,47.819,79.574,47.819,79.574c-2.695-5.929,0.27-16.17,2.156-20.483c1.887-4.312-2.156-6.199-2.156-8.355
		c0-2.156-1.078-8.355,0-10.241c1.078-1.886,2.426,0,2.426,0s-0.809,0,1.347-1.617c2.156-1.617,2.695,0,2.695,0l1.887,1.886
		c0,0,0.269-1.886,1.887-1.886c7.816,4.851,4.043,16.709,4.043,16.709l1.078,3.234c9.433-10.511,20.483-9.702,20.483-9.702
		c-3.773-3.504-0.27-13.206-2.695-13.475c-2.425-0.27-2.425-4.851-2.425-4.851c-8.085-5.39,5.121-9.91,5.121-9.91
		c1.078-9.494,8.355-8.147,8.355-8.147c4.851-7.277,8.355,0,8.355,0c6.468,1.078,9.433,8.147,9.433,8.147
		c13.475,5.868,2.965,7.838,2.965,7.838c3.773,4.228-0.539,8.271-0.539,8.271c2.426,6.738-3.773,12.128-3.773,12.128L111.692,50.737
		z"/>
</g>
</svg>
