<?xml version="1.0" encoding="utf-8"?>
<!-- Generator: Adobe Illustrator 17.0.0, SVG Export Plug-In . SVG Version: 6.00 Build 0)  -->
<svg version="1.2" baseProfile="tiny" xmlns="http://www.w3.org/2000/svg" xmlns:xlink="http://www.w3.org/1999/xlink" x="0px"
	 y="0px" width="200px" height="200px" viewBox="0 0 200 200" xml:space="preserve">
<g id="Layer_1">
</g>
<g id="Layer_4">
	<path fill="none" stroke="#464646" stroke-width="2" stroke-linecap="round" stroke-linejoin="round" stroke-miterlimit="10" d="
		M75.541,15.003c-13-3.834-14.5-0.5-21,0c-14.334-4.166-13.168,5-11.834,7.666c1.334,2.668,1.834,9.834,1.834,9.834
		s-3.334-1.334-4,0c-2.168,5.666,2.832,9.334,2.832,9.334s5,5.166,3.834,7c-4.834,8.332,1.334,14.5,0.666,18.166
		c-0.666,3.666-3,4.166,1.168,17.334c-7.168,1.666-8.834,17.166-8.834,17.166l3.666,1.666l-2,25.834c0,0-6,2.166-5,8.334
		c-2.832,1.832-5.994-0.334-5.994,3.166s5.828,1.334,5.828,1.334s-4.334,3.332-1.666,4.5c2.666,1.166,6.832-6.5,6.832-6.5
		s-3.332,9.166,0.834,8.5c4.166-0.668,3.334-8.668,3.334-8.668s13.166,4,3.332-3.5c-0.332-4-3.332-6.332-3.332-6.332l2.666-26.668
		h2.5c0,0-1.666,6.168,3.666,9.668v26.166h13.168c0,0-1.168,4.166,0,6.334c1.166,2.166,7.5,1.832,7.5,1.832l-0.834,23.668
		l-3.166,3.332c0,0-8.834-6-9.5,6.5c5,14.334,14.666,2.334,14.666,2.334l3.5,0.834c3.834-1.168,2.834-5.334,2.834-5.334
		s2.166-6.834-2.334-8l0.166-23.334l5.834-1.832v-6h18v6l5.834,1.832l0.166,23.334c-4.5,1.166-2.334,8-2.334,8s-1,4.166,2.834,5.334
		l3.5-0.834c0,0,9.666,12,14.666-2.334c-0.666-12.5-9.5-6.5-9.5-6.5l-3.166-3.332l-0.834-23.668c0,0,6.334,0.334,7.5-1.832
		c1.168-2.168,0-6.334,0-6.334h13.168v-26.166c5.332-3.5,3.666-9.668,3.666-9.668h2.5l2.666,26.668c0,0-3,2.332-3.332,6.332
		c-9.834,7.5,3.332,3.5,3.332,3.5s-0.832,8,3.334,8.668c4.166,0.666,0.834-8.5,0.834-8.5s4.166,7.666,6.832,6.5
		c2.668-1.168-1.666-4.5-1.666-4.5s5.828,2.166,5.828-1.334s-3.162-1.334-5.994-3.166c1-6.168-5-8.334-5-8.334l-2-25.834
		l3.666-1.666c0,0-1.666-15.5-8.834-17.166c4.168-13.168,1.834-13.668,1.168-17.334c-0.668-3.666,5.5-9.834,0.666-18.166
		c-1.166-1.834,3.834-7,3.834-7s5-3.668,2.832-9.334c-0.666-1.334-4,0-4,0s0.5-7.166,1.834-9.834
		c1.334-2.666,2.5-11.832-11.834-7.666c-6.5-0.5-8-3.834-21,0c-13.5-4.5-17.166,1.166-20.166,0
		C95.707,15.003,85.225,9.646,75.541,15.003z"/>
</g>
</svg>
