<?xml version="1.0" encoding="utf-8"?>
<!-- Generator: Adobe Illustrator 17.0.0, SVG Export Plug-In . SVG Version: 6.00 Build 0)  -->
<svg version="1.2" baseProfile="tiny" xmlns="http://www.w3.org/2000/svg" xmlns:xlink="http://www.w3.org/1999/xlink" x="0px"
	 y="0px" width="200px" height="200px" viewBox="0 0 200 200" xml:space="preserve">
<g id="Layer_1">
</g>
<g id="Layer_4">
	<path fill="none" stroke="#464646" stroke-width="2" stroke-linecap="round" stroke-linejoin="round" stroke-miterlimit="10" d="
		M113.536,80.553c0,0,20.002,9.215,30.572-6.534c10.569-15.75,11.902-17.736,11.902-17.736s4.667-3.267,1.167-5.601
		c8.401-7.001-2.334-14.936-2.334-14.936s-9.101-33.372-47.608-14.469c-6.301,3.267-6.068,0-6.068,0
		c-12.835-5.601-10.502,7.001-10.502,7.001s0.467,5.368,9.335,3.034c0,0-9.335,14.702-2.1,24.271
		c6.534,9.568,1.634,9.102,1.634,9.102s-8.868-8.635-18.67-3.734c-24.037,11.202-20.07,15.402-20.07,15.402
		s-31.505,16.569-33.139,28.471c0.467,20.07,19.136,24.037,19.136,24.037s9.568,2.567,7.235,3.501s-10.035-1.167-13.302,4.434
		c-3.267,5.601-6.534,11.435-4.434,26.138c2.1,14.702,8.635,9.568,10.968,8.635s13.826-23.887,16.569-23.104
		c2.743,0.784,6.534,1.867,6.534,1.867c-10.811,2.5-10.268,11.435-10.268,11.435s-0.7,2.334-0.933,12.135
		c-0.233,9.802,5.601,12.602,5.601,12.602s5.198,1.529,8.868-5.368c4.667-17.503,13.535-25.437,13.535-25.437
		s13.535,7.701,20.07-10.268c4.901-3.034,2.334-17.503,2.334-17.503s5.601-11.435-0.7-16.103
		C115.869,83.587,113.536,80.553,113.536,80.553z"/>
</g>
</svg>
