<?xml version="1.0" encoding="utf-8"?>
<!-- Generator: Adobe Illustrator 17.0.0, SVG Export Plug-In . SVG Version: 6.00 Build 0)  -->
<svg version="1.2" baseProfile="tiny" xmlns="http://www.w3.org/2000/svg" xmlns:xlink="http://www.w3.org/1999/xlink" x="0px"
	 y="0px" width="200px" height="200px" viewBox="0 0 200 200" xml:space="preserve">
<g id="Layer_1">
</g>
<g id="Layer_4">
	<path fill="none" stroke="#464646" stroke-width="2" stroke-linecap="round" stroke-linejoin="round" stroke-miterlimit="10" d="
		M154.773,112.15c8.667,55.556-11.333,57.557-11.333,57.557s3.556,14.223,2.444,16.222c-1.111,1.999-1.11-2.222-2.444-0.89
		c-1.334,1.334,1.111,2.66,0,3.997c-1.111,1.337-0.268-2.876-2.889-2.663c-2.621,0.213,1.11,2.663-1.778,2.663
		c-2.889,0-7.333-21.329-7.333-21.329c-9.556-3.112-11.778-2.445-26.223-1.111c-14.444,1.332-20.666-17.111-20.666-17.111
		s-8.223,7.777-9.778,7.777c-1.556,0,4-7.777,2.444-10c-1.556-2.223-9.998,11.557-11.555,11.334c-1.557-0.223,4.001-16.445,2-17.557
		c-2.001-1.111-16.444,10.442-18.223,9.555c-1.778-0.888,3.777-20.665,2.444-21.998c-1.333-1.334-24.888,6.666-26.222,6.443
		c-1.334-0.222,1.492-31.777-1.334-34.889c-2.826-3.111,48,1.111,48,1.111l-6.222-12c0,0-0.666,0.668-2.444-1.333
		c-1.778-2.001,2.444-1.111,2.444-1.111s-2.666-0.222-2.444-2c0.222-1.778,2.666,0,2.666,0s-1.334-1.555-1.111-3.333
		c0.223-1.778,2.223,0,2.223,0s-1.332-0.889,0.223-2.223c1.555-1.334,2.889,0,2.889,0s-0.444-3.332,1.333-3.555
		c1.777-0.223,1.333,3.555,1.333,3.555s4.89,4.89,6.667,4.667c1.777-0.223-0.667-23.777,1.333-24
		c2-0.223-47.333-16.001-37.111-19.778c10.222-3.777,47.111,2.445,47.111,2.445c17.556-12.668,43.556-6.889,43.556-6.889
		C147.662,16.15,158.996,9.98,166.329,7.732c7.333-2.248-19.87,35.951-19.111,38.418c6.057,10.057,5.334,17.334,5.334,17.334
		c2.889,0.666,1.778,6,4,6c2.222,0,3.556-3.334,3.556-3.334s-1.334-1.776-0.223-2.666c1.111-0.89,2,1.111,2,1.111
		s-0.222-0.444,1.111-1.111c1.333-0.667,1.777,1.333,1.777,1.333s0.223-1.11,1.556-1.333c1.333-0.223,0,1.777,0,1.777
		s1.112,0,2.223-0.444c1.11-0.444,0,2.444,0,2.444s1.66-1.111,2.83-0.666c1.17,0.443,0,2.889,0,2.889
		C168.773,88.15,154.773,112.15,154.773,112.15z"/>
	<path fill="none" stroke="#464646" stroke-width="2" stroke-linecap="round" stroke-linejoin="round" stroke-miterlimit="10" d="
		M65.442,132.539c-1.166,0.167,8.334-26.333,10.167-25.667c1.833,0.667,8.368,11.996,8.333,12.834
		c-0.035,0.838-0.209,23.389-1,23.833c-0.791,0.444-1.666,1.667-2.666,1.5c-1-0.167,2.833-10,1.833-11.167
		c-1-1.166-6.667,6.5-7.417,7s2.418-16.333,2.584-17.333S66.608,132.372,65.442,132.539z"/>
</g>
</svg>
