<?xml version="1.0" encoding="utf-8"?>
<!-- Generator: Adobe Illustrator 17.0.0, SVG Export Plug-In . SVG Version: 6.00 Build 0)  -->
<svg version="1.2" baseProfile="tiny" xmlns="http://www.w3.org/2000/svg" xmlns:xlink="http://www.w3.org/1999/xlink" x="0px"
	 y="0px" width="200px" height="200px" viewBox="0 0 200 200" overflow="visible" xml:space="preserve">
<g id="Layer_1">
</g>
<g id="Layer_4">
	<path fill="none" stroke="#464646" stroke-width="2" stroke-linecap="round" stroke-linejoin="round" stroke-miterlimit="10" d="
		M131.949,84.468c10.938-1.563,7.813-14.584,7.813-14.584s21.355-13.021,8.855-14.063c2.083-14.063-19.272,10.417-19.272,10.417
		s2.083-5.729-3.646-15.105c13.542-22.397-6.771-36.981-6.771-36.981s-2.604-11.98-21.876-9.375
		C85.593,6.339,81.947,8.943,77.259,19.36c-5.209,5.729-10.417,27.606,4.167,36.981l-0.521,16.147c0,0-28.647-18.751-21.876-5.729
		c0,0-15.105,7.813,8.334,10.938c0,0,13.542,10.938,4.688,13.542c-4.968,3.825-14.584,23.439-1.562,43.752
		c8.334,5.209,5.209,28.647,5.209,28.647s-17.709-4.167-16.668,7.292c3.646,6.81,17.188,9.896,17.188,9.896
		s10.938,1.042,9.896-8.855c6.25-7.813,7.292-13.542,7.292-13.542s5.729,3.646,2.604,13.542c-3.125,9.896,7.119,11.98,7.119,11.98
		s12.33,1.05,17.361-4.688c7.292-9.375-8.855-9.896-8.855-9.896s-3.125-6.25,13.542-21.355
		C154.346,118.324,137.679,97.489,131.949,84.468z"/>
</g>
</svg>
