<?xml version="1.0" encoding="utf-8"?>
<!-- Generator: Adobe Illustrator 17.0.0, SVG Export Plug-In . SVG Version: 6.00 Build 0)  -->
<svg version="1.2" baseProfile="tiny" xmlns="http://www.w3.org/2000/svg" xmlns:xlink="http://www.w3.org/1999/xlink" x="0px"
	 y="0px" width="200px" height="200px" viewBox="0 0 200 200" xml:space="preserve">
<g id="Layer_1">
</g>
<g id="Layer_4">
	<path fill="none" stroke="#464646" stroke-width="2" stroke-linecap="round" stroke-linejoin="round" stroke-miterlimit="10" d="
		M72.126,112.095c-17.75-3.75-22.75-28.027-22.75-28.027h-19l-4.25,0.897c0,0-13-11.37-12-17.87c0.25-4.25,5.75,0,5.75,0l24.5-2.5
		c0,0-10.25-19.25-9.25-26.5c-6-1.5-11.25,0.75-10.5-10c4.25-9.5,7.5-7.25,7.5-7.25c8-1.5,8.25,5.75,8.25,5.75l2.75,5.75l14.5,16
		l1.958,5.5c21.292-14.25,34.542,0,34.542,0s11.75-5,16.25,7.75c21.5,0,22.75,4.604,22.75,4.604l32.25,3.896c0,0,4-7,10,0
		c3.75,11.75,1.25,21.25-2.25,22s-5.75-3.5-5.75-3.5l-32.75-1.489l-1,3.739c8.5,13.5-6.25,16.25-6.25,16.25s-11-4.5-3.5-14.75
		l-2-5.239l-5.25,1.239c1.25,9-7.5,12.654-7.5,12.654l-2,4.346l3.25,11.75c25.25-0.25,17,25.75,17,25.75s12,1.75,14,14
		c1,24.5-7.25,24.75-13,23s-4.75-9.25-4.75-9.25s-6,0-7-7s-12.5-13-12.5-13s-20.25,15.25-19.5,0.5l3.25-18.75
		C87.876,132.345,70.126,117.595,72.126,112.095z"/>
</g>
</svg>
