<?xml version="1.0" encoding="utf-8"?>
<!-- Generator: Adobe Illustrator 17.0.0, SVG Export Plug-In . SVG Version: 6.00 Build 0)  -->
<svg version="1.2" baseProfile="tiny" xmlns="http://www.w3.org/2000/svg" xmlns:xlink="http://www.w3.org/1999/xlink" x="0px"
	 y="0px" width="200px" height="200px" viewBox="0 0 200 200" overflow="visible" xml:space="preserve">
<g id="Layer_1">
</g>
<g id="Layer_4">
	<path fill="none" stroke="#464646" stroke-width="2" stroke-linecap="round" stroke-linejoin="round" stroke-miterlimit="10" d="
		M115.55,65c0,0,10.167-6,10.334-11.666c0,0,6.666-2.5,3-5.334c0,0,2.667-6.166,1.667-13c31.667-3.166,11.167-40.5-4-10
		c0,0-2.333-2.166-6-3.666C137.05,10.5,116.384-11.5,112.217,18l-9.264,0.666c-18.903-6.5-19.07,13.668-19.07,13.668
		s-10.334,12.5-8,28.332c-6.334,5.834-4,18.834-8,32.668c-4,13.832,5.333,25.332,5.333,25.332s-12.5,40.5-25.333,39
		c-9.333-10-15.667-2.332-15.667-2.332s-12.167-0.168-2.667,10c3.333,6.832,30.667,33.499,35.334,19.332
		c11.833-7.166,20.666-47,26-46.666c20.166,13.5,20.333,31.5,19,34.334c-1.334,2.832-17,3.832-14.334,15.666
		c-2.333,1.666,5.271,5.334,5.271,5.334s14.729,1.332,34.729-7.668c8,0.668,4.706-11.087,2.667-14
		C136.178,168.754,117.55,126,117.55,126s5.334-9,0.334-16C136.884,106.334,115.55,65,115.55,65z"/>
</g>
</svg>
