<?xml version="1.0" encoding="utf-8"?>
<!-- Generator: Adobe Illustrator 17.0.0, SVG Export Plug-In . SVG Version: 6.00 Build 0)  -->
<svg version="1.2" baseProfile="tiny" xmlns="http://www.w3.org/2000/svg" xmlns:xlink="http://www.w3.org/1999/xlink" x="0px"
	 y="0px" width="200px" height="200px" viewBox="0 0 200 200" xml:space="preserve">
<g id="Layer_1">
</g>
<g id="Layer_4">
	<path fill="none" stroke="#464646" stroke-width="2" stroke-linecap="round" stroke-linejoin="round" stroke-miterlimit="10" d="
		M57.561,129.722c0,0,0,23.25-6.25,23.584c-6.25,0.333,1.583,1,1.25,2.083c-0.333,1.083-3.75,0.417-3.75,0.417s0.75,2.416-0.667,2.5
		c-1.417,0.083-3.833-3.417-3.833-3.417l-0.833,2.917c-6.583-12.5,2.417-24.584,7.5-37c0,0,1.333-6,0.75-8.334
		c-8.083-15.666-16.917-13.916-16.917-13.916s-10.5,5.333-11.5,4.666c-1-0.666,7.917-7.083,7.667-8.833s-9.333,9.083-13.75,7.5
		c-6.833-15.75,5.667-25.833,5.667-25.833s3.333-16.167,5-16.917c1.667-0.75,0.917,10.083,0.917,10.083s10.833-11.916,12.833-10.916
		s-4.25,13.166-4.25,13.166s4.583,0.084,5.25,0.917c0.667,0.833-0.917,2.75-0.917,2.75s2.583-1,3.667-0.25
		c1.083,0.75-0.583,3.333-0.583,3.333s4.833,0.25,5.5,0.917c0.667,0.667-2,2.167-2,2.167s4.083-0.25,4.75,0.25
		c0.667,0.5-1,2.75-1,2.75s0.833,1.666,2.917,2.583c18-1.583,1.333-12.5,0.667-14.833c-0.667-2.334,6.417-4.25,6.417-4.25
		l-8.5-13.917c0,0,65.5-38.042,111.416-1.5c-51.416-8.042-54.666,6.083-31.5,16.833c-14.166-0.875-22.833,2.5-22.833,2.5
		s10.333,6.292,11.25,8.334c-6.458-2.209-16.917-5.334-18.5-3.834c-1.583,1.5,6.5,7.334,6.5,7.334s-31.833-1.834-18.791,13.583
		c-22.042-6.042-21.792,0.5-21.792,0.5l5.25,1.917c0,0-2.042,1.75-1.583,2.333c0.458,0.583,3.083-0.708,3.833,0.25
		s-1.5,2.167-1.5,2.167c17.917,13.166,2.833,19.583,28.916,25.583c28.167-1.333,24.583-30.417,42.583-30.833
		c11.583-10.584,25.167-7.25,25.167-7.25s-8.5,2.083-7,4.75c1.5,2.666,13.667,2.25,13.667,2.25l-8,0.833c0,0-1,3.583,7.5,4.333
		c-7.583,5.25,6.75,7.834,6.75,7.834s-14.667-0.75-17.917-1.5s-8.333-7.667-18.167-7.834c-9.833-0.166-10.417,19.834-19.417,26.167
		c0,0,5.167-2.75,6-1.417c0.833,1.334-9.5,10.5,8.75,2.334c-0.167,3.5-11.917,10.166-11.917,10.166s5.583,0.75,13-2.166
		c-15.583,18.333-35.166,3.916-35.166,3.916s5.166,4.834,5.75,6.834c0.583,2-2,7.833-4.834,9.25
		c-2.833,1.416-12.083,1.75-13.416-0.25c-1.333-2,6.666-5.584,6.666-7.084s-6.083-5.25-6.083-5.25l-4.75,0.25
		c0,0,3.417,9.834-6.25,18.25c-4.916,1.917-8-0.75-8-0.75s-4.083,1.834-5.083,1.334s0.917-2.5,0.917-2.5s-3.334,0.416-3.667-0.75
		c-0.333-1.167,9.75-12.584,9.75-12.584l-8.5-2.916c0,0-0.167,7.916-4.167,10.666c-2.991,1.191-7.417,3.667-10.417,1.167
		s-0.75-2.833,1.167-5.417c1.917-2.583,2-16.583,2-16.583L57.561,129.722z"/>
</g>
</svg>
