<?xml version="1.0" encoding="utf-8"?>
<!-- Generator: Adobe Illustrator 17.0.0, SVG Export Plug-In . SVG Version: 6.00 Build 0)  -->
<svg version="1.2" baseProfile="tiny" xmlns="http://www.w3.org/2000/svg" xmlns:xlink="http://www.w3.org/1999/xlink" x="0px"
	 y="0px" width="200px" height="200px" viewBox="0 0 200 200" overflow="visible" xml:space="preserve">
<g id="Layer_1">
</g>
<g id="Layer_4">
	<path fill="none" stroke="#464646" stroke-width="2" stroke-linecap="round" stroke-linejoin="round" stroke-miterlimit="10" d="
		M112.879,76.768c51.07-12.948,42.306,17.98,43.044,19.698c0.739,1.718,2.372,5.108,2.372,5.108
		c27.176,2.552,26.082,28.635,26.082,28.635c-2.189,23.529-26.629,22.616-26.629,22.616c0.547,8.391-4.56,13.679-6.749,14.045
		c-2.189,0.366-7.113-9.484-7.113-9.484c-11.308,18.967-27.724,13.861-33.925,12.038c-6.201-1.825-22.799-13.679-25.535-14.774
		c-2.736-1.094-24.583-1.608-26.447,0.182c0,0-10.76,6.201-13.861,13.314c-3.101,7.113-13.498,5.472-13.498,5.472
		c-7.478-8.571-5.289-12.038-5.289-12.038c-19.334-18.238-7.114-28.088-4.013-27.906c3.101,0.184,6.566,6.932,6.566,6.932
		c7.479-14.408,27.906-22.07,29.183-23.347c1.277-1.276,1.094-4.194,1.094-4.194c-10.579,0-20.793-7.113-20.793-7.113
		c-16.233-7.113-17.692-29.548-16.051-31.189c1.642-1.641,3.154-1.939,3.648-3.648c0.495-1.71,0.538-6.612,2.006-6.932
		c1.468-0.318,4.195-0.91,4.195-0.91c1.642-14.045,13.132-21.887,13.132-21.887c9.849-1.825,16.234,4.559,16.234,4.559
		c2.918-13.498-1.642-20.974-1.642-20.974C73.482,13.48,89.35,20.046,89.35,20.046c28.27,4.012,24.987,17.326,24.987,17.326
		l-6.566,12.585c16.051,14.958,4.196,21.158,4.196,21.158L112.879,76.768z"/>
</g>
</svg>
