<?xml version="1.0" encoding="utf-8"?>
<!-- Generator: Adobe Illustrator 17.0.0, SVG Export Plug-In . SVG Version: 6.00 Build 0)  -->
<svg version="1.2" baseProfile="tiny" xmlns="http://www.w3.org/2000/svg" xmlns:xlink="http://www.w3.org/1999/xlink" x="0px"
	 y="0px" width="200px" height="200px" viewBox="0 0 200 200" overflow="visible" xml:space="preserve">
<g id="Layer_1">
</g>
<g id="Layer_4">
	<path fill="none" stroke="#464646" stroke-width="2" stroke-linecap="round" stroke-linejoin="round" stroke-miterlimit="10" d="
		M101.35,175.5c-2.357-7.28-12.215-14.879-25.016-9.833C79.858,172.561,76.767,183.529,70,187s-20.268,0.991-8.971-11.5
		c-6.429-2.48-20.114-13.685-5.419-28.472c-1.653-4.684-3.398-13.685,1.723-20.361C53.314,124.709,53,122,53,122s-7.768-1.332-3-6
		c-10.463-4.333,4.333-9,4.333-9s-1.036-5.85,4.667-5c-0.542-6.773,3.333-10.333,3.333-10.333s17.516-8.953,20-8.667
		c-7.527-4.397-7.5-12-7.5-12s-12.319-10.603-11.5-16.333c-13.969-8.486,6.136-9.508,8.667-6.333c3.082-8.122,8-13,8-13
		C75.908,15.505,96.667,11,96.667,11s29.022-10.834,23.667,24c5.998,1.17,12.244,0.251,15.458-0.943
		c8.633-3.766,19.288,4.409-5.792,7.609c0,0,7.996,5.249,3.771,21.965c21.768-3.123,3.582,24.247-10.771,28.702
		c-0.618,3.353,10.771,16.67,5.333,27.333c2.958,10.462-2.929,21.29-7.333,17.667c-0.73,1.98-3.415,3.558-5.333,1.667
		c0.011,4.079-4,8.333-4,8.333s7.782,11.365,5.667,16c27.643-2.712,2.333,16.667,2.333,16.667S105.023,193.043,101.35,175.5z"/>
</g>
</svg>
