<?xml version="1.0" encoding="utf-8"?>
<!-- Generator: Adobe Illustrator 17.0.0, SVG Export Plug-In . SVG Version: 6.00 Build 0)  -->
<svg version="1.2" baseProfile="tiny" xmlns="http://www.w3.org/2000/svg" xmlns:xlink="http://www.w3.org/1999/xlink" x="0px"
	 y="0px" width="200px" height="200px" viewBox="0 0 200 200" xml:space="preserve">
<g id="Layer_1">
</g>
<g id="Layer_4">
	<path fill="none" stroke="#464646" stroke-width="2" stroke-linecap="round" stroke-linejoin="round" stroke-miterlimit="10" d="
		M149.386,61.289c4.167,27.999-26,33.667-26,33.667v1.833c7.667-0.501,10.667,6.833,10.667,6.833
		c41.5-0.334,35.333,31.334,37.333,32.334c2,0.999,15-16.5,20.833,0c5.833,16.499-13.167,17.332-19,11.832
		c-1.833,2.167-5.333,1.834-5.333,1.834c-6.833,21.333-42.334,19.5-42.334,19.5c-44.499-7-62-21.5-62-21.5
		c-31.166-3.334-20.166-17.666-20.166-17.666l-3.5-4.668c-17.177,1.15-23.817-0.719-25.643-3.346
		c-3.023-7.487,2.643-8.32,4.977-9.32s15.167-1.666,15.167-1.666c-1.5-44.668,13.166-40.668,13.166-40.668
		c14.834-2.333,13.5,26.668,13.5,26.668c10.334-3.834,22.5-0.668,24.5-1.168c2-0.5,0.833-4,0.833-4
		c-34.706-21.272-13.162-41.691-8.666-50.5c4.167-12.5,5.106-13.474,9.833-16.166c5.667-1.334,11.687,4.807,15.167,5
		c3.48,0.193,15,0.834,15,0.834c16.833-19.668,20,2.332,20.166,3.5c7,0.666,8.5,7.666,8.5,7.666
		C158.72,49.956,149.386,61.289,149.386,61.289z"/>
</g>
</svg>
