<?xml version="1.0" encoding="utf-8"?>
<!-- Generator: Adobe Illustrator 17.0.0, SVG Export Plug-In . SVG Version: 6.00 Build 0)  -->
<svg version="1.2" baseProfile="tiny" xmlns="http://www.w3.org/2000/svg" xmlns:xlink="http://www.w3.org/1999/xlink" x="0px"
	 y="0px" width="200px" height="200px" viewBox="0 0 200 200" xml:space="preserve">
<g id="Layer_1">
</g>
<g id="Layer_4">
	<path fill="none" stroke="#464646" stroke-width="2" stroke-linecap="round" stroke-linejoin="round" stroke-miterlimit="10" d="
		M116.201,125.326c0,0,6.824,5.46,8.189-3.071c0.679-4.242,3.296-6.414,6.824-9.213c12.625-10.534-2.602-17.955-2.602-17.955
		l-15.482-6.27l-4.094-6.142c19.107-11.942,4.094-30.027,4.094-30.027s11.26-17.402-3.098-36.85
		c-4.409-5.118-5.432,2.731-5.432,2.731s-8.514,14.331-4.087,22.52l-7.855,2.047l-8.871-22.18c0,0-7.848-22.52-9.895-1.363
		c0,0-2.388,25.248,7.848,35.143c4.435,7.849-7.507,19.109,2.388,26.274c11.26,3.411,0.341,6.142,0.341,6.142L71.503,98
		c-8.53,2.419-5.459,14.361-5.459,14.361s-1.024,3.413,0,9.894c1.024,6.484,8.189,9.896,8.189,9.896l1.024,10.236
		c-18.425,16.036,2.047,31.732,2.047,31.732s-18.766,3.411-8.189,10.576c0,0,15.354,1.024,17.06-6.482
		c1.706-7.507,2.389-5.802,2.389-5.802s17.007,0.684,21.469-0.34c4.463-1.024,1.733,8.189,1.733,8.189s19.79,4.776,27.297,2.387
		c7.506-2.387-2.389-8.529-2.389-8.529l-14.331-1.024c0,0,19.107-18.085-1.706-33.098L116.201,125.326z"/>
	
		<polygon fill="none" stroke="#464646" stroke-width="2" stroke-linecap="round" stroke-linejoin="round" stroke-miterlimit="10" points="
		78.839,116.03 76.839,107.364 80.089,105.696 	"/>
</g>
</svg>
