<?xml version="1.0" encoding="utf-8"?>
<!-- Generator: Adobe Illustrator 17.0.0, SVG Export Plug-In . SVG Version: 6.00 Build 0)  -->
<svg version="1.2" baseProfile="tiny" xmlns="http://www.w3.org/2000/svg" xmlns:xlink="http://www.w3.org/1999/xlink" x="0px"
	 y="0px" width="200px" height="200px" viewBox="0 0 200 200" xml:space="preserve">
<g id="Layer_1">
</g>
<g id="Layer_4">
	<path fill="none" stroke="#464646" stroke-width="2" stroke-linecap="round" stroke-linejoin="round" stroke-miterlimit="10" d="
		M123.97,32.005c-14.42-18.426-28.439-17.624-28.439-17.624c-9.613,35.247,10.815,36.85,10.815,36.85s-8.412,8.813-52.472,15.22
		c-50.47,12.418-29.241,70.098-29.241,70.098s9.764,35.25,11.692,38.855c1.927,3.605,9.538,4.807,14.745,3.204
		c5.207-1.603-8.812-37.252,6.409-41.657c15.221-4.408,1.202,16.455,3.605,22.029c2.403,5.577,4.807,20.428,10.014,23.233
		c5.207,2.805,8.412,2.403,11.216,0s-2.403-13.62-1.602-20.428c0.801-6.809,10.014-20.027,10.014-20.027s18.025,22.43,15.622,35.247
		c-1.602,15.622,4.807,13.62,11.616,14.021c12.417,0.399,2.403-22.832,2.403-22.832s-1.841-26.038-9.332-33.647l12.937-7.21
		l6.85,2.283l-5.247,45.383c0,0,0.801,14.821,12.817,8.412c-2.403-27.237,6.81-42.859,6.81-42.859l7.61-23.634
		c0,0,11.508-12.754,6.409-30.44c4.807-23.233,0-32.445,0-32.445s20.829-2.403,16.423-37.252
		c-4.406-2.805-26.036,12.817-26.036,12.817C136.788,25.595,123.97,32.005,123.97,32.005z"/>
</g>
</svg>
