<?xml version="1.0" encoding="utf-8"?>
<!-- Generator: Adobe Illustrator 17.0.0, SVG Export Plug-In . SVG Version: 6.00 Build 0)  -->
<svg version="1.2" baseProfile="tiny" xmlns="http://www.w3.org/2000/svg" xmlns:xlink="http://www.w3.org/1999/xlink" x="0px"
	 y="0px" width="200px" height="200px" viewBox="0 0 200 200" xml:space="preserve">
<g id="Layer_1">
</g>
<g id="Layer_4">
	<path fill="none" stroke="#464646" stroke-width="2" stroke-linecap="round" stroke-linejoin="round" stroke-miterlimit="10" d="
		M92.449,132.723c0,0,4.78-16.688,10.54-18.767c7.011-4.954,1.543-22.109,1.543-22.109s-4.551,1.563-6.042-2.827
		C97,84.627,88.382,77.143,89.878,72.822c1.497-3.07,12.622,0.805,12.622,0.805l-3.881-5.689
		c-2.869,3.189-11.494-4.436-12.494-6.561s3.125-6.75,3.125-6.75s-8.5-6.625-8.625-8.5s6.5,0.75,6.5,0.75s-3.5-8.375-2.375-10
		c-5.5-2.25-6.25-13.5-6.25-13.5s-2.75-3.25-4-5.75s0-5.5,0-5.5c4.125-6.25,26.875-19.625,25.559-2.75
		c0,0-2.434,12.375,0.691,14.875c3.375,4.125,1.875,11.375,1.875,11.375s9.75-1.125,7.125,4.75s3-3.875,3.625-1
		S109,47.252,109,47.252v2.75c12.125,3.875,1.125,15.375,1.125,15.375l-0.875,5.673l1.375,1.827H115l10.5-8.25
		c0,0-4.375-1.75-4.75-7c0-7,6.5,1.5,6.5,1.5s1.125-7.75,2.625-8c-0.375-15.75,5.5-7.875,5.5-7.875s3.25-7.375,4.625,3.875
		c6.75,4.625-3,17.875-3,17.875s3.125,4.096-0.125,6.048C146.75,94.002,125.5,95.877,125.5,95.877l11.375,9.25
		c0,0,5-2.625,4.875,2.625c14.5-3.5,12.25,3.5,12.25,3.5s10.625,1.625,1.25,7.75c0,0,0.625,4.75-6.625,5.125
		c-3.375,3.625-11.125-8.75-11.125-8.75s-5-0.25-4.25-5.625l-6.125-5.25c0,0,0,26.25-12.25,34c0,0-7.75,15-10,22.625
		s-1.25,9.125-1.25,9.125s18.5-5.125,26.25,7.75c0.875,4.625-5.875,2.25-5.875,2.25s-14.875-6.5-24.5-4.375
		c-2.75,0-2.25-5.625-2.25-5.625s7.375-21.875,5.125-23.375s-10.625,22.375-10,29c-3.375,3.625-29,13.625-32.75,12.25
		C61.375,171.377,87,172.252,87,172.252s7.75-20.75,6.25-32.125c-12.75,1.625-19.625,4.125-15-23.625
		c4.25-21.5-17.625-32.75-14.875,6.625c-0.75,5.125-4.125,3.5-5-0.75c-8.875-33.375,23.875-48.5,27.25-13.25
		C74.75,148.877,92.449,132.723,92.449,132.723z"/>
</g>
</svg>
