<?xml version="1.0" encoding="utf-8"?>
<!-- Generator: Adobe Illustrator 17.0.0, SVG Export Plug-In . SVG Version: 6.00 Build 0)  -->
<svg version="1.2" baseProfile="tiny" xmlns="http://www.w3.org/2000/svg" xmlns:xlink="http://www.w3.org/1999/xlink" x="0px"
	 y="0px" width="200px" height="200px" viewBox="0 0 200 200" xml:space="preserve">
<g id="Layer_1">
</g>
<g id="Layer_4">
	<path fill="none" stroke="#464646" stroke-width="2" stroke-linecap="round" stroke-linejoin="round" stroke-miterlimit="10" d="
		M116.608,89.052c5.579-0.259,27.115,10.249,27.115,10.249c5.708-0.13,5.838,1.816,5.838,1.816
		c13.882-2.724,10.768,2.984,10.768,2.984c6.778,1.816,2.465,6.357,2.465,6.357c4.313,4.411-1.427,4.93-1.427,4.93
		c0.778,7.265-4.93,4.411-4.93,4.411c-4.411,4.93-5.449-3.762-7.265-4.8c-1.816-1.038-3.373-0.13-3.373-0.13
		c-5.968-4.8-23.742-12.974-23.742-12.974c3.114,4.152,4.411,25.688,3.633,26.466c-0.778,0.778-1.168-0.519-2.076,0
		c-0.908,0.519,3.892,24.391,3.243,25.169c-0.649,0.778-8.174-1.168-8.692,0c-0.519,1.168,7.525,11.806,11.417,19.461
		c3.633,15.049-14.531,13.752-14.531,13.752c-12.195,0.519-14.401-8.822-14.401-8.822c-7.395,12.949-22.445,8.822-22.445,8.822
		c-11.287-3.114-8.044-12.974-6.227-16.087s5.968-6.487,5.968-6.487s7.654-9.73,6.876-11.028c-0.778-1.297-8.433-1.427-9.601-2.854
		c-1.168-1.427,7.655-22.055,7.655-23.612c0-1.557-0.519,0.13-1.168-1.427c-0.649-1.557,5.189-23.223,5.189-23.223
		c-16.736,4.152-29.191,18.163-29.191,18.163c-4.152,1.427-4.8-1.168-4.8-1.168c-4.541,1.297-4.152-4.93-4.152-4.93
		c-4.022-0.13-1.427-5.189-1.427-5.189c-5.091-4.541,2.206-4.281,2.206-4.281c-0.908-7.525,5.449-4.411,5.449-4.411
		c3.633-2.984,7.136-0.778,7.136-0.778c23.223-13.104,31.007-11.028,31.786-11.806c0.778-0.778,0.856-3.229-0.259-3.373
		c-1.115-0.144-6.746-1.946-8.044-1.038c-1.297,0.908-5.449,0.779-7.525,1.038c-2.076,0.259-8.044-2.076-8.044-2.076
		c-4.671-33.602,10.768-38.791,10.768-38.791c-7.136-7.006,0.649-13.622,0.649-13.622c3.114-9.341,17.644-10.249,17.644-10.249
		c-5.708-7.525,1.946-8.692,1.946-8.692c8.303-3.503,15.958,0,15.958,0c7.265,4.541-0.13,9.86-0.13,9.86
		c15.439,0.908,20.239,16.217,20.239,16.217c2.076,8.303-3.633,8.174-3.633,8.174c15.698,14.271,8.692,33.342,8.692,33.342
		c5.189,6.098-2.595,7.525-2.595,7.525s-3.114,1.816-4.93,1.297c-1.816-0.519-0.649-2.725-2.725-2.206
		c-2.076,0.519-3.373,1.168-5.708,1.427c-2.335,0.259-4.977-3.842-6.487-3.633c-1.51,0.21-4.671,0.649-4.671,0.649
		C121.149,88.663,111.029,89.312,116.608,89.052z"/>
</g>
</svg>
