<?xml version="1.0" encoding="utf-8"?>
<!-- Generator: Adobe Illustrator 17.0.0, SVG Export Plug-In . SVG Version: 6.00 Build 0)  -->
<svg version="1.2" baseProfile="tiny" xmlns="http://www.w3.org/2000/svg" xmlns:xlink="http://www.w3.org/1999/xlink" x="0px"
	 y="0px" width="200px" height="200px" viewBox="0 0 200 200" overflow="visible" xml:space="preserve">
<g id="Layer_1">
</g>
<g id="Layer_4">
	<path fill="none" stroke="#464646" stroke-width="2" stroke-linecap="round" stroke-linejoin="round" stroke-miterlimit="10" d="
		M85.189,154.097l4.957,10.992c19.612,6.897-7.543,22.198-19.612,22.198c-6.681-3.879-12.715-2.802-16.164-3.879
		c-4.957-7.328-8.405-5.604-10.561-10.776c2.802-7.759,33.405-9.267,33.405-9.267l-3.233-12.285
		c-6.896-1.078-14.871-20.689-13.362-26.939c-0.215-3.448-2.801-4.742-3.017-6.035c-0.216-1.293,2.371,1.078,2.371,1.078
		c0.862-4.526,3.845-10.446,4.741-9.052c-0.431,4.957,5.819,9.052,5.819,9.052c1.078-2.155,3.879-1.939,3.879-1.939
		c-7.112-9.052-0.431-12.285,12.285-19.612c9.482-4.741,15.086-15.517,12.5-17.672c-2.587-2.155-1.077-5.172-2.371-12.5
		c-1.294-7.328-4.742-17.457-1.078-21.121c0.216-2.155,3.449-7.113,0.431-4.311c-3.018,2.802-1.508-2.586-4.526,0
		c-3.018,2.586-2.354,10.433-4.311,10.561c-2.954-7.128-5.388-1.724-7.759-0.862C80.879,41.382,89.5,38.795,89.5,38.795
		c0.431-4.525,5.172-7.758,5.172-7.758c17.672-25,25.646-15.263,25.646-15.263c8.19,9.443-1.293,16.125-1.293,16.125
		s-2.802,1.293,0.215,1.724c3.017,0.431,1.733-0.245,3.017-1.508c1.94,0,0,3.232,0,3.232s3.879,0.646,3.879,1.724
		c0,1.078-4.526,0-4.526,0s4.31,2.155,4.526,3.448c0.216,1.293-3.879,0-3.879,0l1.94,1.509c8.836-1.724,3.233,6.896,3.233,6.896
		c1.078,5.172-4.095,11.207-4.095,11.207c3.879,1.724-0.862,4.526-0.862,4.526l0.215,1.078c14.009,0.862,12.285,4.095,12.285,4.095
		c-2.371,4.526-12.285,0.215-12.285,0.215h-3.017c-2.29,3.511-4.095,8.621-6.465,9.914c4.31,3.879,2.535,4.526,4.31,6.035
		c1.775,1.509,4.311,3.664,4.311,3.664c3.233-0.646,3.663,2.155,3.663,2.155c9.052,3.664,24.569,11.638,17.888,17.026
		c0,4.741-5.819,6.896-5.819,6.896c3.879,1.078,1.078,3.017,1.078,3.017c10.345,4.095-1.293,17.026-8.836,12.5
		c-1.94,3.664-9.914,5.604-9.914,5.604c-0.215,3.879-8.836,8.836-8.836,8.836c2.802,5.172,15.302,13.362,15.302,13.362
		c33.621-5.388,36.422,1.724,36.422,1.724c-4.957,17.457-17.672,15.086-22.198,15.517c-12.069,10.992-37.5-8.189-28.664-13.793
		c-2.801-1.724-8.621-11.854-8.621-11.854C97.689,153.666,85.189,154.097,85.189,154.097z"/>
</g>
</svg>
