<?xml version="1.0" encoding="utf-8"?>
<!-- Generator: Adobe Illustrator 17.0.0, SVG Export Plug-In . SVG Version: 6.00 Build 0)  -->
<svg version="1.2" baseProfile="tiny" xmlns="http://www.w3.org/2000/svg" xmlns:xlink="http://www.w3.org/1999/xlink" x="0px"
	 y="0px" width="200px" height="200px" viewBox="0 0 200 200" xml:space="preserve">
<g id="Layer_1">
</g>
<g id="Layer_4">
	<path fill="none" stroke="#464646" stroke-width="2" stroke-linecap="round" stroke-linejoin="round" stroke-miterlimit="10" d="
		M111.539,101.771l1,2.003c0,0,17.25-4.556,22.5-6.778c5.25-2.222,6.5,0.899,6.5,0.899s8.632,4.13,5.191,12.13
		c-46.941,4.25-41.191,31-41.191,31s9.75,48.5,0,48.75s-10-16.25-18.5-17.25c-14.5,16.25-16.75-0.5-17.25-9s-17.25-11.25-7.75-46
		c0-15.75-6.309-20.75-13.75-37.25c-7.441-16.5,3.75-12,3.75-12l4.75,1.75c6-1,5.25,6.75,5.25,6.75s10.25-12,20-14.5l5-12.25
		c0,0-4.5-22.024,2.75-32.25c7.25-10.226,10.75-6,10.75-6s1.75,1.75,5,0s10.75-1,11.5,2c0,0,13,4.5,15.5,11.5
		c6,0.5,8.25,3.75,8.5,8.25c-2.75,14.5-21,28.25-21,28.25l-4,14.25C116.039,76.024,122.539,89.018,111.539,101.771z"/>
</g>
</svg>
