<?xml version="1.0" encoding="utf-8"?>
<!-- Generator: Adobe Illustrator 17.0.0, SVG Export Plug-In . SVG Version: 6.00 Build 0)  -->
<svg version="1.2" baseProfile="tiny" xmlns="http://www.w3.org/2000/svg" xmlns:xlink="http://www.w3.org/1999/xlink" x="0px"
	 y="0px" width="200px" height="200px" viewBox="0 0 200 200" xml:space="preserve">
<g id="Layer_1">
</g>
<g id="Layer_4">
	<path fill="none" stroke="#464646" stroke-width="2" stroke-linecap="round" stroke-linejoin="round" stroke-miterlimit="10" d="
		M55.159,131.145c0,0-16.818,9.993-13.893,17.305c10.968,16.086,2.194,18.28,2.194,18.28s-4.631,1.95-14.624,1.219
		c-9.993-0.731-4.143-12.187-4.143-12.187s0.487-24.373,6.093-26.323c1.219-5.85,6.581-14.38,6.581-14.38S24.693,71.187,67.102,66.8
		c2.925-9.506,13.893-12.674,13.893-12.674s-25.836-21.936,3.169-24.13c10.724,0.975,24.861-8.043,34.366-2.681
		c26.567-10.494,43.385,17.061,43.385,17.061s4.631,13.893-1.462,16.574c10.237,10.237,6.825,22.424,6.825,22.424
		s-3.412,14.868-12.918,14.258c-6.093,13.284-16.086,7.012-16.086,7.012l-5.606,8.952c0,0,5.118,5.606,5.362,11.456
		c9.262,3.169,6.825,17.793,6.825,17.793s5.606,20.23-3.656,15.599c-4.631,5.118-8.043-0.244-11.456,0.731
		c-3.412,0.975-3.9-0.975-6.581-5.606c-8.531-0.244,0.487-15.599,0.487-15.599s-17.061-5.85-16.574-14.38
		c-13.649,7.312-24.617,0.731-24.617,0.731s-0.244,29.979-3.412,30.467c10.968,12.674,2.681,16.086,2.681,16.086
		s-2.681,11.699-7.312,7.556c-7.068,5.362-12.187-2.194-12.187-2.194s-11.943-0.244-1.706-25.836
		C60.547,141.786,55.159,131.145,55.159,131.145z"/>
</g>
</svg>
