<?xml version="1.0" encoding="utf-8"?>
<!-- Generator: Adobe Illustrator 17.0.0, SVG Export Plug-In . SVG Version: 6.00 Build 0)  -->
<svg version="1.2" baseProfile="tiny" xmlns="http://www.w3.org/2000/svg" xmlns:xlink="http://www.w3.org/1999/xlink" x="0px"
	 y="0px" width="200px" height="200px" viewBox="0 0 200 200" xml:space="preserve">
<g id="Layer_1">
</g>
<g id="Layer_4">
	<path fill="none" stroke="#464646" stroke-width="2" stroke-linecap="round" stroke-linejoin="round" stroke-miterlimit="10" d="
		M142.05,72.91c3.778-11.556,24.889-16.889,24.889-16.889c14.889-7.778,16.889-29.778,16.889-29.778
		c20.444,31.333-19.333,46.667-19.333,46.667c-9.556-0.222-17.778,6.222-17.778,6.222c19.111,16.889,6,34,8,37.334
		c3.111,4.222,13.111,2.666,13.111,2.666c17.111,20.445,4.222,44.889,4.222,44.889c-3.778,5.333-9.111,4-9.111,4
		c-5.778,2.222-6.889-2.444-6.889-2.444c-7.333-2.889,3.111-18.667,3.111-18.667c1.555-18.889-8.889-16.889-8.889-16.889
		c12.222,9.111-2.889,30.889-2.889,30.889c-5.334,19.071-19.334,12.667-19.334,12.667c-4.667,2.889-4.889-2-4.889-2
		c-7.778,0.222-2.667-8.889-2.667-8.889c21.556-19.111,18-23.333,16-25.556s-9.556-2.889-9.556-2.889
		c-7.333,0.222-12.889-11.685-12.889-11.685c-19.111,10.795-29.333,8.795-29.333,8.795c6,48.627-10.667,47.111-10.667,47.111
		c-4.445,3.111-8.667-1.111-8.667-1.111c-4.889,2.627-6.666-3.111-6.666-3.111c-11.333-10.222,8.444-14.889,8.444-14.889
		c3.556-8.222,0-28.889,0-28.889l-4.889-0.444c-16.889,8.444-14.444,20-14.444,20c-3.333,8.889-12.223,4.889-12.223,4.889
		c-7.111,2.889-4.889-4.444-4.889-4.444c-16.889-4,19.111-27.907,19.111-27.907c-7.556-6.76-7.778-17.649-7.778-17.649
		c-12-0.666-2.889-7.333-2.889-7.333c1.333-2-4.667-16-4.667-16C23.605,98.466,11.828,88.91,11.828,88.91
		c-9.778-10,14.667-28.889,14.667-28.889c4.667-43.556,47.333-19.111,44.889-11.778c32,8.889,23.556,19.333,23.556,19.333
		c-2.191,5.628-9.778,5.111-9.778,5.111l0.222,2.889c22.889-2.223,20.101-7.149,28.778-7.556
		C138.383,64.689,142.05,72.91,142.05,72.91z"/>
</g>
</svg>
