<?xml version="1.0" encoding="utf-8"?>
<!-- Generator: Adobe Illustrator 17.0.0, SVG Export Plug-In . SVG Version: 6.00 Build 0)  -->
<svg version="1.2" baseProfile="tiny" xmlns="http://www.w3.org/2000/svg" xmlns:xlink="http://www.w3.org/1999/xlink" x="0px"
	 y="0px" width="200px" height="200px" viewBox="0 0 200 200" xml:space="preserve">
<g id="Layer_1">
</g>
<g id="Layer_4">
	<path fill="none" stroke="#464646" stroke-width="2" stroke-linecap="round" stroke-linejoin="round" stroke-miterlimit="10" d="
		M52.085,33.661c0,0-17.969-2.907-22.726,6.871c-0.793,3.435,14.798,13.741,14.798,13.741s6.606,18.762,8.456,19.026
		c0,0-10.57,8.72,6.342,10.042c-1.85,13.213,20.083,9.91,20.083,9.91v19.159l-15.327-2.183c0,0-4.492-6.537-9.513,0
		c-20.083-8.387-21.669,6.94-21.669,6.94s-2.378,22.726,13.741,11.627c4.492,0.793,7.853,2.742,14.27,0
		c8.721,7.135,18.498-4.228,18.498-4.228s5.814-0.793,9.513-2.643c3.171,5.549,6.606,4.492,12.156,6.871
		c5.549,2.378,7.928,34.618,25.897,29.597c12.949-1.85,5.285,11.363,12.949,17.177c16.912,17.969,25.897-5.549,25.897-5.549
		s11.099-61.175-28.672-61.968c-8.06-0.132-2.378,9.513-17.837,22.33c-3.039,0.264-4.228-9.513-4.228-9.513
		s12.156-7.003,11.891-8.456c-0.264-1.453-13.793-0.793-13.793-0.793s-4.309-5.681-3.12-7.003c4.889-5.549,13.081-3.435,17.441-2.51
		c4.36,0.925,18.498-1.586,18.498-1.586c37.524,9.381,27.879-23.519,14.534-21.405c-12.552-22.197-39.11-32.239-39.11-32.239
		s17.441-12.684,30.125-11.627s0.529-10.306,0.529-10.306s-22.726-12.288-37.525-12.156c-24.179-7.663-39.11,1.586-39.11,1.586
		s-21.537-5.549-14.798,8.985C54.596,27.319,52.085,33.661,52.085,33.661z"/>
	<path fill="none" stroke="#464646" stroke-width="2" stroke-linecap="round" stroke-linejoin="round" stroke-miterlimit="10" d="
		M114.275,85.28c0,0-3.346-2.292-2.467-3.349c0.882-1.057,15.152-1.761,15.152-1.761v3.7L114.275,85.28z"/>
</g>
</svg>
