<?xml version="1.0" encoding="utf-8"?>
<!-- Generator: Adobe Illustrator 17.0.0, SVG Export Plug-In . SVG Version: 6.00 Build 0)  -->
<svg version="1.2" baseProfile="tiny" xmlns="http://www.w3.org/2000/svg" xmlns:xlink="http://www.w3.org/1999/xlink" x="0px"
	 y="0px" width="200px" height="200px" viewBox="0 0 200 200" xml:space="preserve">
<g id="Layer_1">
</g>
<g id="Layer_4">
	<path fill="none" stroke="#464646" stroke-width="2" stroke-linecap="round" stroke-linejoin="round" stroke-miterlimit="10" d="
		M92.328,104.598l4.5,2.75c17.75-7.417,30.5,5.833,30.5,5.833s8.916-19.833,24.5-11.083c17.5,11.166-6.5,32-6.5,32
		s-14.334,13.833-26.75,5.666c-8.666-6.5-1.5-12.416-1.5-12.416s-4.666-10.334-17.5-3c-3.334,10.333-10.75,14.75-10.75,14.75
		s6.916,7.5,15,6.75c12.916-9.584,18,4.5,18,4.5c13.75,26.666,0.5,35.5,0.5,35.5s-18.166,15.083-25.25-5.25
		c-2.084-4.917,0.25-16,0.25-16s-18.084-6.084-24.699-18.75c0,0-0.467,4.583-6.301,4c2.834,9.083-5.25,8.75-5.25,8.75
		s-0.5,6.916-6.5,5.5c0,0-7.834,12.333-9.25,12.5c-1.416,0.166-4.084-1.5-4.75-2.75s7.5-12.25,7.5-12.25s-1.834-1.167-3.25-2.75
		c-4.084-10.084-0.5-22.25-0.5-22.25s-3.084-21-1.334-26.084c-18.916,0.5-19.416-11.916-19.416-11.916s-4.916-7.75,0-12
		c-1.334-14.834,7.75-16.5,7.75-16.5l0.25-4.25c0,0-2.084-13.334,4-15.5c4.084-11-6-18.75-6-18.75
		c-11.25-22.417,13.25-22.834,18.75-21.25c34.584,7.333,49.834,44.083,49.834,44.083c5.166-3.75,7.916,10.167,7.916,10.167
		c4.334,1.583,8-4.084,8-4.084c8.5-7.916,8.5,2.334,8.5,2.334c9.916-10.084,9,3.25,9,3.25c2.916-1.917,11.25,2.166,1.75,7.5
		c-2.416,2.666-17.916,14.833-24.25,13l-16.75,11.5C92.328,98.098,93.162,104.014,92.328,104.598z"/>
</g>
</svg>
