<?xml version="1.0" encoding="utf-8"?>
<!-- Generator: Adobe Illustrator 17.0.0, SVG Export Plug-In . SVG Version: 6.00 Build 0)  -->
<svg version="1.2" baseProfile="tiny" xmlns="http://www.w3.org/2000/svg" xmlns:xlink="http://www.w3.org/1999/xlink" x="0px"
	 y="0px" width="200px" height="200px" viewBox="0 0 200 200" xml:space="preserve">
<g id="Layer_1">
</g>
<g id="Layer_4">
	<path fill="none" stroke="#464646" stroke-width="2" stroke-linecap="round" stroke-linejoin="round" stroke-miterlimit="10" d="
		M122.368,44.113c20.889-1.333,24.223,39.111,24.223,39.111c6.444,26.444,11.828,44.444,5.777,55.556
		c-5.652,4.97-11.11,10.667-12.889,11.333c-1.778,0.667,2.666-38.667,2.666-38.667c-2.666-8.444-9.11-9.111-9.11-9.111
		c0,2.444-2.444,3.111-2.444,3.111s0.445,1.111,0,2.222c-0.445,1.111-2,0-2,0s0.889,1.556-1.111,2.667
		c-2,1.111-1.778-1.111-1.778-1.111l-2.222,1.111c-8.444-5.111-1.111-8-2.444-10.336c-6.667-7.886-14.444-11.664-14.444-11.664
		c1.881,13.663,7.777,20.889,4.222,30.667c4.444,4,0,8.889,0,8.889c6.223,18.223-4.222,20.223-4.222,20.223
		c-4.223-2.667-2.445-14.223-2.445-14.223c-3.333-0.889-6-1.777-8.777-8.667c-1.444-3.751-6.111-19.556-7.444-19.334
		c-2.667,6.889-0.889,23.556,1.111,24.889c1.333,4.666,10.222,17.111,6.333,25.556c1.357,1.46,4.333,5.999,7.444,8
		c0.889,4.889,8,12.889,8,12.889c7.333,16.222-6.889,6.889-6.889,6.889c-3.778-11.556-4.444-14.445-21.778-30.26
		c-3.204-4.089-4.444-9.296-4.666-17.074c-3.457-8.026-10.901-16.44-12-22.666c-2-2.889,1.008-21.014,0-22.223
		c-2.889,1.334-6.667-2.222-6.667-2.222c-9.111,2.444-7.11,4-3.333,13.778c3.777,9.778,0,24.667,0,24.667
		c-14.889-15.778-20.444-16-17.556-46c5.777-13.556-3.333-24.445,23.333-44.889c-2.434-2.809-0.762-4.207-3.4-5.364
		c-2.639-1.157-1.256-2.988-0.58-4.675c0.444-1.11,1.787-1.89,1.98-4.183c9.486-10.75,15.111-8,15.111-8s0.445-2.222,2.667-2.222
		c2.222,0,2.222,0,2.222,0s0.986-0.083,2.986-0.528s2.792,0.972,2.792,0.972s0.958-0.708,2.958,0.403s0.374,2.931,1.708,4.486
		c-1.333,6.889,1.792,5.014,0.667,8.444c0,2.444-2.667,3.333-2.667,3.333l3.111,1.333c4.223-0.667,6.889,4,6.889,4h2.444
		c0.348-4.222,4.348-3.222,3.111-7.778c-0.014-3.069,1.111,0.556,3.111-6.444c2.625-1.25,6.667-0.667,6.667-0.667
		c10.958-0.208,10.889,9.111,10.889,9.111c1.194,4.181-4.896,11.326-4.223,12C120.375,42.12,122.368,44.113,122.368,44.113z"/>
</g>
</svg>
