<?xml version="1.0" encoding="utf-8"?>
<!-- Generator: Adobe Illustrator 17.0.0, SVG Export Plug-In . SVG Version: 6.00 Build 0)  -->
<svg version="1.2" baseProfile="tiny" xmlns="http://www.w3.org/2000/svg" xmlns:xlink="http://www.w3.org/1999/xlink" x="0px"
	 y="0px" width="200px" height="200px" viewBox="0 0 200 200" overflow="visible" xml:space="preserve">
<g id="Layer_1">
</g>
<g id="Layer_4">
	<path fill="none" stroke="#464646" stroke-width="2" stroke-linecap="round" stroke-linejoin="round" stroke-miterlimit="10" d="
		M102.091,107.42c-0.224,5.568-12.667,12-12.667,12l7.334,20.667l1.894,0.889h4.55c3.556-2.222,13.111-2.444,13.111-2.444v-2
		c-5.04-5.517,1.111-14,1.111-14S105.536,118.781,102.091,107.42z"/>
	<path fill="none" stroke="#464646" stroke-width="2" stroke-linecap="round" stroke-linejoin="round" stroke-miterlimit="10" d="
		M101.424,75.642c-0.222-6.889,9.111-16.667,9.111-16.667c5.778-11.111,6.889-4.889,6.889-4.889
		C140.98,53.864,148.98,81.42,148.98,81.42c8.667-0.222,13.556-6.222,13.556-6.222c-1.556-3.111,1.935-5.111,1.935-5.111
		c1.177-4.889-6.272-7.524-6.157-10.444c0.115-2.921,6.191,0.054,9.556,2.667c1.555-0.222,1.334-9.111,4.444-9.111
		c3.111,0-1.778,9.778,0,10.445c1.778,0.667,5.556-9.111,8-7.556c2.444,1.556-6.001,8.223-5.111,9.778
		c0.889,1.555,7.304-6.514,8.667-3.778c1.363,2.736-5.884,6.977-5.884,6.977c-1.107,5.316-4.338,6.579-4.338,6.579
		c0.444,6.444-3.556,4.444-3.556,4.444c-3.334,6.666-18.444,9.111-18.444,9.111c4.667,19.556-7.333,27.333-7.333,27.333
		c12.444,8.222,15.556,20.222,15.556,20.222c2.444,0.222,2.444,1.778,2.444,1.778c2.917,0.648,6,1.333,6,1.333
		c10.444,0.667,8.444,10.889,8.444,10.889c2.889,2.222-1.333,3.333-1.333,3.333c-16.444,0.444-28.667-4-28.667-4l1.111-1.111
		c-2-1.778,1.555-3.333,0.889-5.556c-0.666-2.222,2.222-4,2.222-4c-2.444-13.777-12.667-18-12.667-18
		c-0.889,2-6.223-5.778-13.333,2.778c-7.111,8.556,2,11.222,3.333,14.556c2.444,0.222,1.556,3.111,1.556,3.111
		c5.333,6.222,1.555,6.444,1.555,6.444c2.667,1.111,0.889,2.222,0.889,2.222c-2.889,1.333-16.444,1.778-16.444,1.778l-0.222,1.778
		c2.222,1.778-0.445,2.667-0.445,2.667c-5.555,3.556-31.778-2.667-31.778-2.667v-2c-0.666-3.111,2.667-6.889,2.667-6.889
		c-1.333-2,1.111-2.222,1.111-2.222l-3.778-20.444c-9.111,1.334-17.111-1.778-17.111-1.778c-2.444,6.667,4.222,17.111,4.222,21.111
		c2.667,1.555,0.889,3.333,0.889,3.333c4.445,2.889,1.334,5.778,1.334,5.778c3.333,1.778-0.889,2.444-0.889,2.444
		c-19.111,5.778-27.112,4-28.667,3.334c-1.555-0.667,0-2.667,0-2.667c-0.667-10.444,6.889-9.778,8.889-11.333
		c2-1.556,4-0.222,5.778-1.778c1.778-1.556,1.778-1.556,1.778-1.556c-4.667-7.555-1.111-23.333-1.111-23.333
		c-4-1.778-10.222-15.111-10.222-15.111c-4.667,8.667-14.444,0.667-16.444,1.556s-4.222-5-4.222-5
		c-4.223-2.111-14.702,3.468-15.556,0c-0.854-3.468,7.555-3.666,8.667-5c1.111-1.333-10.444,0.889-11.111-2.222
		c-0.667-3.111,9.111-1.191,10.667-2.484c1.556-1.294-10.222-3.961-8-6.405c2.222-2.444,8,1.112,10,2.445s5.477,2.095,5.111-0.222
		c-0.366-2.317-5.333-8.667-1.333-8.445c4,0.222,2.889,7.111,6,8.889c3.111,1.778,3.556,6,3.556,6
		c5.111,0.444,3.333,6.222,3.333,6.222l2.222,0.222c2.889,0.222,6.222-5.556,6.222-5.556c3.556-31.556,31.111-29.111,31.111-29.111
		c2.444-4.445-0.222-0.667,6-2.889c6.222-2.222,13.497,6.406,9.334,3.111c-4.163-3.294-8.445,0.222-8.445,0.222
		C94.314,64.753,101.424,75.642,101.424,75.642z"/>
</g>
</svg>
