<?xml version="1.0" encoding="utf-8"?>
<!-- Generator: Adobe Illustrator 17.0.0, SVG Export Plug-In . SVG Version: 6.00 Build 0)  -->
<svg version="1.2" baseProfile="tiny" xmlns="http://www.w3.org/2000/svg" xmlns:xlink="http://www.w3.org/1999/xlink" x="0px"
	 y="0px" width="200px" height="200px" viewBox="0 0 200 200" xml:space="preserve">
<g id="Layer_1">
</g>
<g id="Layer_4">
	<path fill="none" stroke="#464646" stroke-width="2" stroke-linecap="round" stroke-linejoin="round" stroke-miterlimit="10" d="
		M63.468,42.884c1.904-8.161,7.889-12.786,7.889-12.786c26.387,13.33,19.859,25.299,17.954,27.203
		c10.065,12.242,22.851,6.257,28.292,10.337c5.441,4.08-7.345,13.33-7.345,13.33c24.483,3.265,73.177,33.46,73.449,37.541
		c-19.587-2.992-21.722,15.117-28.836,28.836c-9.521,12.242-23.123,1.904-31.284,22.579c-3.264-6.257-8.705-11.697-8.705-11.697
		c-11.97,16.866-5.441-10.881-5.441-10.881l-16.866-23.939l-2.176-1.088c-14.962,11.153-21.219-27.203-21.219-27.203
		c-16.594-0.816-8.705-10.065-8.705-10.065c-4.08-4.353-24.483-7.617-24.483-7.617c-4.081-0.816-3.536-10.609-3.536-10.609
		l-8.433-6.257c-2.448,2.992-5.985,1.632-5.985,1.632c-2.448,3.808-6.529,0.272-6.529,0.272c-3.264-2.448,0-6.801,0-6.801
		c-2.448-2.72,0-5.713,0-5.713c-1.904-11.153,8.161-5.441,8.161-5.441c8.977-0.816,5.441,9.793,5.441,9.793l11.153,7.617
		c-6.257-26.115,14.418-27.476,21.219-11.697c2.176-3.808,5.985-3.264,5.985-3.264l-2.176-4.081l1.36-2.448
		C62.652,40.436,61.564,51.046,63.468,42.884z"/>
</g>
</svg>
