<?xml version="1.0" encoding="utf-8"?>
<!-- Generator: Adobe Illustrator 17.0.0, SVG Export Plug-In . SVG Version: 6.00 Build 0)  -->
<svg version="1.2" baseProfile="tiny" xmlns="http://www.w3.org/2000/svg" xmlns:xlink="http://www.w3.org/1999/xlink" x="0px"
	 y="0px" width="200px" height="200px" viewBox="0 0 200 200" xml:space="preserve">
<g id="Layer_1">
</g>
<g id="Layer_4">
	<path fill="none" stroke="#464646" stroke-width="2" stroke-linecap="round" stroke-linejoin="round" stroke-miterlimit="10" d="
		M89.644,142.871c0,0-5.875,9.75-3.25,21.5c2.125,10.625-8.25,11.25-8.25,11.25s-13,7.625-19.75,6.5l1.75-3.5l-5,1.5v-3.75h-4.25
		l2.25-4.25h-4.25c0,0,13.25-9.875,18-9.625l-3-7.375l-6.5-4.25c0,0,1.025,5.069-0.35,5.569s-1.525-3.444-4.9-7.319
		s-3.25-15.5-3.25-15.5s-6.125-36.375,7.25-49.75c-19.125-28.125,4-50.75,4-50.75s-4.875-20.5-2.75-23.5c1.625,5.125,9,18,9,18
		c29.125-17.625,51.5,0.25,51.5,0.25s8-12.75,9-18.25c4.875,6.25-2.5,22.75-2.5,22.75s25.5,22.5,4.5,50
		c5.25,12.25,16,38.375,7.75,49.5c3.625,7.375-2.25,16.75-2.25,16.75s10.334,1.688,21-10.75c2.375,12.125-6.875,28.375-23.75,30.25
		c-0.25,1.625,4.5,3.5,4.5,3.5l-3.5,0.5l2,3.25l-5.5,0.75l2.5,3.75l-5.75-1c0,0,3,2.25,1.25,3.25c-3.125,1.125-9.25-2.25-16.25-4
		s-11.875-7-11.875-7s1.625-7.25,0.875-10.75C94.269,158.246,89.644,142.871,89.644,142.871z"/>
</g>
</svg>
