<?xml version="1.0" encoding="utf-8"?>
<!-- Generator: Adobe Illustrator 17.0.0, SVG Export Plug-In . SVG Version: 6.00 Build 0)  -->
<svg version="1.2" baseProfile="tiny" xmlns="http://www.w3.org/2000/svg" xmlns:xlink="http://www.w3.org/1999/xlink" x="0px"
	 y="0px" width="200px" height="200px" viewBox="0 0 200 200" xml:space="preserve">
<g id="Layer_1">
</g>
<g id="Layer_4">
	<path fill="none" stroke="#464646" stroke-width="2" stroke-linecap="round" stroke-linejoin="round" stroke-miterlimit="10" d="
		M94.481,119.906v14.333c0,0-8.666,4.459-3.333,14.667c0.792,22.542-34.333,27-34.333,27s-15,8.583,0,11
		c3.625,11.667,10.916,2.75,16.333-2.667c5.417-5.416,21.333-8.666,21.333-8.666s25.5,5.791,31.666,11.333c5.292,4.417,9-5,9-5
		s11.625-10.083-11.666-10.333c-30.166,3.25-19-25.334-19-25.334s6.167-2.875,2-11.333c2.584-8.958,4.667-15,4.667-15
		c19.292-4.833,9-29.667,9-29.667s18.792-7.041,8.667-14.666c0.125-6-3.667-6-3.667-6s-0.958-4.25-4.333-3
		c2.125-4.25-6.875,1-6.875,1c-3.625-3.875-7.875-10-12-4.25c-2.334,3.125-4.042-10.792-2.459-12.084
		c1.584-1.291,5.834-0.791,7.334-2.333c13.75,1.542,3.666-6.667,3.666-6.667l-0.166-4.791c24.25,3.125,44,2.5,38.833-16.542
		c-11.583-23.083-16.958-2.333-15.667-2.333c2.584,9.875-0.208,10-4,5c-3.791-5-6,1.666-6,1.666
		c-1.291,10.459-5.666,2.667-5.666,2.667c-3.625-5.458-5.125,6.292-9,3.667c-4.75-17.75-20.75-8.375-19.667-5.334
		c-3.708,1.959-2.667,6-2.667,6c-5.166,0.584-1.291-10.666-8.666-4c-2.375-0.291-1.375-12.791-8-2
		c-5.125-0.541-0.5-6.416-2.25-11.666c-11.125-10.25-12,13-8.75,16.75c-29.625,21.125,4.375,41.25,8,33.916c0,0,6.125,5.334,9,0
		c7.5-17.166,17-14.333,17-14.333s4.958,15.708-4.334,14c-9.291-1.708,0.667,15.333,0.667,15.333s-1.75,4.201,1.333,4.455
		c0.084,3.129,2.667,4.212,2.667,4.212S80.314,115.823,94.481,119.906z"/>
</g>
</svg>
