<?xml version="1.0" encoding="utf-8"?>
<!-- Generator: Adobe Illustrator 17.0.0, SVG Export Plug-In . SVG Version: 6.00 Build 0)  -->
<svg version="1.2" baseProfile="tiny" xmlns="http://www.w3.org/2000/svg" xmlns:xlink="http://www.w3.org/1999/xlink" x="0px"
	 y="0px" width="200px" height="200px" viewBox="0 0 200 200" overflow="visible" xml:space="preserve">
<g id="Layer_1">
</g>
<g id="Layer_4">
	<path fill="none" stroke="#464646" stroke-width="2" stroke-linecap="round" stroke-linejoin="round" stroke-miterlimit="10" d="
		M144.482,125.646c1.98-17.458,22.857-3.24,22.857-3.24c15.838,1.304,4.499,9.899,4.499,9.899c4.319,7.468-2.879,7.738-2.879,7.738
		c-3.6,10.529-8.968,0.945-10.799,0c-1.831-0.945-5.579-2.879-5.579-2.879c-6.119,5.984-18.717,5.039-18.717,5.039
		c4.634,8.234-3.24,9.179-3.24,9.179c7.199,2.835,10.078,0,10.078,0c12.373-0.54,11.698,16.378,11.698,16.378
		c9.044,8.593-2.16,10.078-2.16,10.078c0.54,7.424-7.739,4.319-7.739,4.319c-6.299,6.209-9.719-1.439-9.719-1.439
		c1.125-9.629-2.16-16.918-2.16-16.918c-9.269-0.675-14.218-5.939-14.218-5.939c-0.99-2.43-3.824-1.799-5.039-0.36
		c-1.215,1.439-0.001,6.479-0.001,6.479c-13.497,3.329-18.177-9.179-18.177-9.179c-13.138-10.034-10.798-24.656-10.798-24.656
		c-10.438-0.361-15.118-1.62-15.118-1.62c-13.273,6.793-9.179-3.78-9.179-3.78c-9.628-2.52,0-7.739,0-7.739
		c-7.064-4.365-2.7-7.379-2.7-7.379c2.925-4.275,19.527,6.344,20.337,7.919s2.7-0.54,2.7-0.54s1.035-1.439,1.8-3.78
		c0.765-2.34-0.54-5.04-0.54-5.04c-22.182,1.485-29.471-16.017-32.575-14.217c-3.104,1.799-8.819,2.16-8.819,2.16
		c-10.079,3.959-8.639-4.5-8.639-4.5c-6.164-1.8-1.44-6.659-1.44-6.659c-3.24-4.724,3.959-6.479,3.959-6.479
		c10.484,1.89,10.439-1.979,10.439-1.979c2.34-7.469,6.119-5.939,6.119-5.939c3.375,1.035,0.18,3.779,1.44,5.58
		c1.26,1.799,1.439,8.278,1.439,8.278c8.189,12.148,18.178,11.699,18.178,11.699l3.419-0.897
		C52.786,79.707,56.295,70.574,56.295,70.574c-6.856,0.29-6.299-8.639-6.299-8.639c0.9-4.77,3.42-7.379,3.42-7.379
		c2.879-1.036,2.879,3.194,4.499,2.7c1.62-0.496,1.08-5.04,1.08-5.04l-1.62-2.7c-4.049-0.315-6.659,2.34-6.659,2.34
		s0.855,2.295-0.9,3.599c-1.755,1.304-6.853-3.795-5.759-7.199c1.094-3.404,3.824-4.544,1.62-5.039
		c-4.499-0.226-1.575,5.669-4.319,6.839c-2.744,1.169-6.794-12.283-4.499-17.097c2.295-4.815,8.099-4.005,10.258-5.22
		c2.16-1.215-3.781-4.102-6.839-3.24c-3.058,0.863-4.545,3.96-7.019,1.98C30.784,24.5,44.687,9.698,55.216,9.203
		c10.529-0.496,4.949,4.499,7.739,5.039c2.79,0.54,20.113-4.454,23.397-2.16c3.284,2.295-8.864,4.859-9.539,8.099
		c-0.675,3.24,8.144,10.124,6.839,12.418c-1.305,2.295-9.898,2.79-10.258,3.96c-0.36,1.169,2.34,2.16,2.34,2.16
		c11.338-5.31,8.369,1.574,11.338,0.9c2.969-0.675-2.565-6.884,0-7.019c2.565-0.135,4.274,5.804,6.119,5.399
		c1.845-0.405-3.014-6.434-0.18-6.658c2.835-0.226,3.06,5.399,3.06,5.399c4.904-1.575,11.338,7.379,11.338,7.379
		c3.284-2.88-3.375-7.289-2.34-7.918c1.035-0.631,4.634,1.844,5.399,0.54c0.765-1.306-5.579-3.24-5.579-3.24
		s-7.694,6.974-4.859,0.54c2.835-6.435,11.338-12.958,11.338-12.958c8.504-1.441,10.619,9.943,17.998,7.559
		c7.379-2.385,11.609-1.935,14.218-1.08c2.609,0.854-5.582,4.697-4.5,7.559c1.082,2.861,11.113,8.728,7.559,19.977
		c-3.554,11.248-4.049-5.129-5.759-5.04c-1.71,0.09-5.489,13.903-3.6,17.458c1.89,3.554-2.494-3.986-3.959-2.7
		c-1.465,1.286-6.704,10.753-7.379,6.479c-0.675-4.275-3.555-10.034-5.219-9.179c-1.664,0.854-0.36,2.7-0.36,2.7
		c3.419,16.107-6.839,15.477-6.839,15.477c-2.835,7.919-13.903,10.439-11.338,11.338c2.565,0.899,2.7,2.34,2.7,2.34
		c29.831-23.172,37.615-18.357,37.615-18.357c7.064,2.204,1.8,8.278,1.8,8.278c-5.939,10.258-13.318,13.139-13.318,13.139
		c19.662,4.679-7.019,13.498-7.019,13.498c13.453,0.36,14.218-1.8,14.218-1.8c11.518,4.049,1.439,11.878,1.439,11.878
		c3.48,6.074-2.339,3.78-2.339,5.399c0,1.62-0.135,3.195,2.16,3.42C141.738,129.65,144.482,125.646,144.482,125.646z"/>
</g>
</svg>
