<?xml version="1.0" encoding="utf-8"?>
<!-- Generator: Adobe Illustrator 17.0.0, SVG Export Plug-In . SVG Version: 6.00 Build 0)  -->
<svg version="1.2" baseProfile="tiny" xmlns="http://www.w3.org/2000/svg" xmlns:xlink="http://www.w3.org/1999/xlink" x="0px"
	 y="0px" width="200px" height="200px" viewBox="0 0 200 200" xml:space="preserve">
<g id="Layer_1">
</g>
<g id="Layer_4">
	<path fill="none" stroke="#464646" stroke-width="2" stroke-linecap="round" stroke-linejoin="round" stroke-miterlimit="10" d="
		M25.354,73.926c20.155-52.402,76.907-41.495,76.907-41.495c30.743-22.289,41.176-7.825,41.176-7.825
		c4.506,7.113-5.453,11.619-5.453,11.619l-2.372,7.587c40.073,22.051,33.908,63.547,33.908,63.547
		c12.092,12.093-1.186,11.618-1.186,11.618c-15.65,16.124,5.454,16.124,9.959,28.928c8.062,12.33,0,19.918,0,19.918
		c-3.32,0.474-8.536-6.402-8.536-6.402c-23-1.422-16.598-4.031-19.443-6.639c-9.486,2.371-12.33-2.608-17.548-2.845
		c-9.959,6.639-8.299,5.691-10.907,2.134c-1.186-17.072,22.763-21.577,22.763-21.577c16.362-16.835-6.876-23-6.876-23
		c-23-2.845-23.949,2.608-35.486,1.897c6.557,7.35,0,10.196,0,10.196c-6.721,4.979-21.896-5.928-21.896-5.928s-3.794-7.114-4.031,0
		c0.712,7.587-4.505,7.587-4.505,7.587c-4.98,1.186-10.908-9.484-10.908-9.484c-27.505-7.825-37.227-24.779-37.227-24.779
		C10.653,80.802,25.354,73.926,25.354,73.926z"/>
</g>
</svg>
