<?xml version="1.0" encoding="utf-8"?>
<!-- Generator: Adobe Illustrator 17.0.0, SVG Export Plug-In . SVG Version: 6.00 Build 0)  -->
<svg version="1.2" baseProfile="tiny" xmlns="http://www.w3.org/2000/svg" xmlns:xlink="http://www.w3.org/1999/xlink" x="0px"
	 y="0px" width="200px" height="200px" viewBox="0 0 200 200" overflow="visible" xml:space="preserve">
<g id="Layer_1">
</g>
<g id="Layer_4">
	<path fill="none" stroke="#464646" stroke-width="2" stroke-linecap="round" stroke-linejoin="round" stroke-miterlimit="10" d="
		M151.898,59.061c0,0-4-7.25,18.25-8.75s23,10,23,10c0,18.75-16.75,16-16.75,16c-2.5,11-18.75,6-21,7.5s-3.5,7.25-3.5,7.25l1.5,1.75
		c13-3.75,15,8.25,15,8.25c25.25,14,13.75,25.75,13.75,25.75c-9,15.25-27,0-27,0l-10.75-11.5c-8.5,4.5-10.465-2.136-12.75-1.063
		c-3.75,3.063-11,4.563-11,4.563c-3,9.25-10,18.25-10,18.25c4.25,15.75-1.25,24.75-1.25,24.75c-19,5-28.5-4.25-28.5-4.25
		c-28.75,14-45.25-28.5-47.5-26.25c-0.625,1.875-2.25,2.25-2.25,2.25c4.75,11.875,3.25,18.25,3.25,19.5s-2,1.25-2,1.25
		c0.691-14.996-5.25-17.75-5.25-17.75c-10.5,2.5-7.5-7.75-7.5-7.75c-11-2.75-4.5-11.75-4.5-11.75c7.75-5.875,10.25,4.25,10.25,4.25
		c6.75-14.125,14-8.75,14-8.75c14.5,25.375,24.25,24,24.25,24c4.75-2.75-9.625-27.875-9.5-32.25s3-12.625,2.5-13.75
		s-8.375-5.875-10.25-5.75s-11.125,8.625-8.75,4.75s4.5-14.25,4.5-14.25c8.875-20.875,6-22.25,6-22.25
		c6.875-7.875,10.75-2.75,10.75-2.75s9.625,11.75,10.75,11.75c0.75-13.5,4-9.5,4-9.5c2.5-6.75,5.625-7.125,6.5-6.25
		s-0.5,3.5-0.5,3.5c16.125-22.125,33.75-19.5,33.75-19.5c11.25-6.25,13,1.5,13,1.5c2.125,0.125,2.5,2.75,2.5,2.75
		C137.148,39.311,151.898,59.061,151.898,59.061z"/>
</g>
</svg>
