<?xml version="1.0" encoding="utf-8"?>
<!-- Generator: Adobe Illustrator 17.0.0, SVG Export Plug-In . SVG Version: 6.00 Build 0)  -->
<svg version="1.2" baseProfile="tiny" xmlns="http://www.w3.org/2000/svg" xmlns:xlink="http://www.w3.org/1999/xlink" x="0px"
	 y="0px" width="200px" height="200px" viewBox="0 0 200 200" xml:space="preserve">
<g id="Layer_1">
</g>
<g id="Layer_4">
	<path fill="none" stroke="#464646" stroke-width="2" stroke-linecap="round" stroke-linejoin="round" stroke-miterlimit="10" d="
		M51.615,178.086c-25.002,17.172-26.372-6.783-24.916-10.662c1.455-3.877,36.373-50.344,42.834-57.333
		c6.459-6.987,8.454-27.216,8.454-27.216s-45.954,10.383-19.179-23.29c3.359-3.359,2.788,1.841,2.725,3.006
		c-4.833,19,19.661,6.501,25.058,5.349c0,0-0.225-10.182,7.108-13.349c1.834-1,1.692-10.003,5.179-10.417
		c0.321-13.583,5.822-13.357,5.822-13.357s8.165-9.559,16.097-14.385c16.401-32.341,34.735,13.326,4.453,4.795
		c0,0-15.837,5.379-13.7,10.274c6.982,4.59,0.685,13.7,0.685,13.7c5.297,2.223,2.397,11.302,2.397,11.302
		c6.507,5.822,3.425,13.356,3.425,13.356l16.782,5.822c0,0,13.015,5.822,7.192-11.645c22.605,9.59,2.055,26.029,2.055,26.029
		l-22.262-5.479c0,0,1.37,12.672-3.767,20.892c5.141,21.112,29.765,42.098,32.537,50.688c3.605,3.591,13.357,12.33,2.397,21.919
		c-9.589,7.535-19.179,0-19.179,0l-5.822,4.795c0,0-2.965,8.377-4.795,8.377s-2.397-3.239-2.397-3.239s-3.176,4.072-5.137,3.239
		c-1.961-0.834,2.055-6.664,2.055-6.664s-7.877-3.082-5.822-15.412c-18.837,8.904-36.646,1.37-36.646,1.37
		S68.74,191.258,51.615,178.086z"/>
</g>
</svg>
