<?xml version="1.0" encoding="utf-8"?>
<!-- Generator: Adobe Illustrator 17.0.0, SVG Export Plug-In . SVG Version: 6.00 Build 0)  -->
<svg version="1.2" baseProfile="tiny" xmlns="http://www.w3.org/2000/svg" xmlns:xlink="http://www.w3.org/1999/xlink" x="0px"
	 y="0px" width="200px" height="200px" viewBox="0 0 200 200" xml:space="preserve">
<g id="Layer_1">
</g>
<g id="Layer_4">
	<path fill="none" stroke="#464646" stroke-width="2" stroke-linecap="round" stroke-linejoin="round" stroke-miterlimit="10" d="
		M70.833,105.341c-40.445,27.111-48.444,9.778-48.444,9.778c-10.667-19.333,7.11-33.333,9.778-49.778
		c-17.112-17.334,1.778-17.334,1.778-17.334c2-6.444,5.111-4.444,5.111-4.444c4.444-3.556,7.556-3.111,7.556-3.111
		c20.888-10.445,40.444-14.445,40.444-14.445c-0.445-13.333,8-8.889,8-8.889c11.555,5.333,3.334,13.333,3.334,13.333
		c17.11,9.333,9.111,51.555,9.111,51.555c4.888,1.556,19.112-8.444,21.778-4.889c2.666,3.556-3.777,10.445-0.889,11.556
		c27.999-20.889,29.334-16.223,32-14.889c2.666,1.333,2.442,0.444,2,6.222c-0.442,5.778-33.334,22.444-33.111,42.667
		c1.124,0.492,4.888-1.779,7.555-3.334s5.111,0,5.111,0c32.222,18.222,26,25.334,26.001,25.334
		c-4.89,3.555-15.333-0.889-15.333-0.889c-4.223,31.333-10.444,22.222-10.444,22.222c-7.112-1.111-8.222-27.111-8.222-27.111
		C78.611,146.008,70.833,105.341,70.833,105.341z"/>
</g>
</svg>
