<?xml version="1.0" encoding="utf-8"?>
<!-- Generator: Adobe Illustrator 17.0.0, SVG Export Plug-In . SVG Version: 6.00 Build 0)  -->
<svg version="1.2" baseProfile="tiny" xmlns="http://www.w3.org/2000/svg" xmlns:xlink="http://www.w3.org/1999/xlink" x="0px"
	 y="0px" width="200px" height="200px" viewBox="0 0 200 200" xml:space="preserve">
<g id="Layer_1">
</g>
<g id="Layer_4">
	<path fill="none" stroke="#464646" stroke-width="2" stroke-linecap="round" stroke-linejoin="round" stroke-miterlimit="10" d="
		M111.098,134.324c0,0,0.168-14,2.834-15.667s10.834,11.167,15.334,11.154c9.832,10.513,15.332,7.179,21.5,7.513
		c20.5,24,21.832,1.833,21.832,1.833s-3-26-20-20.5c-3.166,0.167-4.332,8.333-4.332,8.333s-12.334,0.667-11.668-3.833
		c0.668-4.5-10.832-19.833-10.832-19.833s2.166-5.334-0.668-8.834c9.668-9.333-1.5-21.833-1.5-21.833s-9.166-17.5-22.166-15.333
		c0.666-3,1.334-3.334,0-5.834c15.334-0.833,7.334-17.5,0-13.5c0,0-3.5-7.833-12.834-13.666c3-1.834,5.168-11.334-5.332-2
		l-6.834-1.167c0,0-4-6.833-5.666,0C55.098,26.49,50.932,41.49,50.932,41.49s-19.332,2-14.5,27.167
		c7.834,20.167,33.109,20.234,33.109,20.234l0.557,4.599l3.334,4.334c0,0-7.666,2.166-2,6.833c2.115,1.638,4.166,1.772,4.166,1.772
		s-1.832,4.228,3.334,4.938c1.834,4.29,5.334,3.623,5.334,3.623s1.666,2.334,3.332-0.5c3,4.167,10,5,10,5
		s-0.166,11.167,0.834,13.834c1,2.666,3.834,1.333,3.834,1.333c-1.5,15,13.332,31,13.332,31s-14.166,15.5-6.5,23.667
		c14.668,9.833,30.668-17.5,28.5-22.834c0,0,0.168-6.666-10.832-6.833C113.266,154.49,111.098,134.324,111.098,134.324z"/>
</g>
</svg>
