<?xml version="1.0" encoding="utf-8"?>
<!-- Generator: Adobe Illustrator 17.0.0, SVG Export Plug-In . SVG Version: 6.00 Build 0)  -->
<svg version="1.2" baseProfile="tiny" xmlns="http://www.w3.org/2000/svg" xmlns:xlink="http://www.w3.org/1999/xlink" x="0px"
	 y="0px" width="200px" height="200px" viewBox="0 0 200 200" xml:space="preserve">
<g id="Layer_1">
</g>
<g id="Layer_4">
	<path fill="none" stroke="#464646" stroke-width="2" stroke-linecap="round" stroke-linejoin="round" stroke-miterlimit="10" d="
		M128.477,69.77c5.928,6.959,11.598,5.412,23.712,13.66c12.114,8.248,2.32,16.756,2.32,16.756
		c16.495,28.864,28.094,34.534,18.557,46.648c-9.536,12.114-15.464-18.815-21.135-20.104s-12.372,4.639-12.372,4.639
		c-7.475-5.412-10.567-8.505-15.98-6.443c8.505,4.124,6.444,15.207,6.444,15.207c12.629-2.835,13.66,13.66,20.104,18.299
		c2.062,4.897,0,12.114,0,12.114s14.691,13.858,14.176,15.692c-0.516,1.834-13.145-15.95-15.98-13.888
		c-2.835,2.062-10.052-1.546-10.052-1.546c10.567,14.176,3.093,18.815,3.093,18.815c-17.784,3.661-20.361-15.464-20.361-15.464
		c-25.516-9.794-30.156-36.857-30.156-36.857l-4.124-6.186c-11.341,10.31,3.094,20.034,3.866,23.197
		c-5.67,11.856-13.66,3.118-14.691-1.031c-4.639-3.866-10.052-28.609-11.34-40.465c-10.825-5.928-7.474-25.258-7.474-25.258
		c-7.732-3.351-17.269-25.516-17.269-25.516c-7.217-3.093-9.536-17.269-9.536-17.269c-3.866,0-2.835-1.289-3.093-5.413
		c-0.258-4.124-8.763-6.701-8.763-6.701c-4.639-9.794,1.804-13.145,1.804-13.145c0.258-8.248,9.279-6.444,9.279-6.444
		c9.021-9.794,12.887,8.248,12.887,8.248c11.341,2.062-3.093,14.433-3.093,14.433c3.093,1.546,1.546,4.639,1.546,4.639
		c4.639,0,12.372,9.536,12.372,9.536c3.093-0.773,8.505,4.124,8.505,4.124c-1.804-9.536,3.866-17.011,3.866-17.011
		c0.258-15.464,7.217-7.475,7.217-7.475c2.835-3.866,6.959-3.608,6.959-3.608c20.104-15.464,26.805,3.093,26.805,3.093
		c3.351-0.773,6.443,3.866,6.443,3.866C157.859-2.912,147.034,63.327,128.477,69.77z"/>
</g>
</svg>
