<?xml version="1.0" encoding="utf-8"?>
<!-- Generator: Adobe Illustrator 17.0.0, SVG Export Plug-In . SVG Version: 6.00 Build 0)  -->
<svg version="1.2" baseProfile="tiny" xmlns="http://www.w3.org/2000/svg" xmlns:xlink="http://www.w3.org/1999/xlink" x="0px"
	 y="0px" width="200px" height="200px" viewBox="0 0 200 200" xml:space="preserve">
<g id="Layer_1">
</g>
<g id="Layer_4">
	<path fill="none" stroke="#464646" stroke-width="2" stroke-linecap="round" stroke-linejoin="round" stroke-miterlimit="10" d="
		M159.707,41.621c5.854,2.8,3.055,8.399,7.89,17.307c21.38,15.525,8.909,33.596,8.909,33.596c16.544,11.708-2.037,23.161-8.4,10.69
		c-17.052,15.017-44.795-9.417-55.739-10.69c4.071,17.816,0.254,12.726-7.636,14.253c-1.527,5.599,2.799,8.908,2.799,8.908
		c8.908-2.291,12.726,1.527,13.235,3.818c0.509,2.291-2.8,2.799-2.8,2.799c7.126,9.672-6.625,12.217-6.625,12.217
		s-3.302,11.454-6.61,13.489c-3.309,2.036-10.437-7.636-13.49-6.109c-3.053,1.527,0,17.562,0,17.562
		c36.397,9.926,14.763,22.397,14.763,22.397c-41.996,13.489-49.013-14.091-47.85-16.289c3.563-8.144,11.453-4.836,9.163-17.307
		c-0.254-1.782-7.635-2.8-7.635-2.8c-27.234,4.072-7.891,10.69-17.054,25.197c-18.579,26.725-34.36-27.742-16.035-44.54
		c7.636-8.908,15.781,1.782,15.781,1.782l3.308-0.764l-0.255-4.836c-19.343-7.89-12.471-20.616-12.471-20.616
		c5.09-3.309,13.489,9.672,16.035,10.053c2.546,0.382,6.109-8.526,6.109-8.526c-20.362,7.89-11.708-11.708-11.708-11.708
		c-3.817-13.998,7.344-8.068,15.779-13.744C75.207,63.51,89.97,74.2,89.97,74.2c-19.598-35.123,5.853-52.176,5.853-52.176
		c16.799-17.053,40.214-6.618,40.214-6.618c21.125-3.309,19.598,16.543,19.598,16.543C160.98,35.258,159.707,41.621,159.707,41.621z
		"/>
</g>
</svg>
