<?xml version="1.0" encoding="utf-8"?>
<!-- Generator: Adobe Illustrator 17.0.0, SVG Export Plug-In . SVG Version: 6.00 Build 0)  -->
<svg version="1.2" baseProfile="tiny" xmlns="http://www.w3.org/2000/svg" xmlns:xlink="http://www.w3.org/1999/xlink" x="0px"
	 y="0px" width="200px" height="200px" viewBox="0 0 200 200" overflow="visible" xml:space="preserve">
<g id="Layer_1">
</g>
<g id="Layer_4">
	<path fill="none" stroke="#464646" stroke-width="2" stroke-linecap="round" stroke-linejoin="round" stroke-miterlimit="10" d="
		M115.407,43.257c22.5,16.5,15.25,44.75,15.25,44.75s6.5,5.75,6.25,8.25s-1.944,4.326-3.25,1.5c-1.306-2.826-3.75-7.5-3.75-7.5
		c-3,21-32.75,24-32.75,24l2,4.25c7.25,0.75,25,10.5,25,10.5c11-1.5,8,12.25,8,12.25c0.25,2.75-3.25,2.25-3.25,2.25
		s1.75,2.25-0.5,2.25c-1.416,0.75-1.501,0.583-2.25,0c-0.749-0.583,0.999-1.334,0-2c-0.999-0.666-2.75,0-2.75,0
		c1.917-11.416-11.009-14.104-11.25-13.5c-0.241,0.604-0.334,1.75-1,2.5c-0.666,0.75-10-0.5-10-0.5
		c0.917,9.584,6.25,11.75,6.25,11.75c5.417-11.333,14.5-7.25,14.5-7.25c3.238,6.709,3.499,12.5,1,10.25
		c-2.499-2.25-10.348-5.338-9.25-4c1.098,1.338,11.083,2.916,8,9.75c0,0-0.751,0.333-2.75,0c-1.999-0.333-8.084-6.834-9-6.25
		c-0.916,0.584,5.166,6.75,5.75,10.5c0.584,3.75-6.75-7.75-6.75-7.75c8.334,13.75,3,25.75,3,25.75c8.251,8.084,4.916,4.75,4,7.25
		c-0.916,2.5-5.751,5.333-8,6c-2.249,0.667-2.668,0.916-3.25,0c-0.582-0.916,0.5-2.75,0.5-2.75c-3.166,2-8.001,3-8,1
		c0.001-2,1.5-2.75,1.5-2.75c1.084-2.25,2-1.75,2-1.75s14.499-2,9.5-2c-4.999,0-13.918-3.834-14.75-3.25
		c-0.832,0.584-6.25,18-6.25,18c-8.332,1.834-15.001-10.75-14.25-12c0.751-1.25,2.582,1,3.75,1c1.168,0-0.668-2.584,1-2.75
		c1.668-0.166,2.832,4.416,3.5,4.75c0.668,0.334,0.749-1.084,1.5-0.75c0.751,0.334-0.148,3.666,1.26,3.5
		c1.408-0.166,5.74-13.5,5.74-13.5c-17.499,1.584-12.249-22.833-11-24.5c-1.166-3.333-2.75-25.25-2.75-25.25
		c-2.999-0.333-6.25,3.75-6.25,3.75c-0.832,2.417-3.5,2.25-3.5,2.25c-2.582,4.334-4.25,1.75-4.25,1.75
		c-9.416-0.166-1.25-9.75-1.25-9.75c2.334-5.333,5.75-4.25,5.75-4.25c6.001-6.666,14.75-3.5,14.75-3.5c5.251-5-5-9.25-5-9.25
		c-23.332-14-18-22-18-22c-2.082-1.583-1.5-10.25-1.5-10.25s-2.25-0.75-2.25-1.5s-1.001-1.5,0-2c1.001-0.5,3.5,0.75,3.5,0.75
		c2.751-2.666,8.25-3.25,8.25-3.25c8.251-27,29.75-24.75,29.75-24.75c0.73-14.838-22.25-5-22.25-5
		c-8.082,1.334-1.75-13.75-1.75-13.75c2.668-7.333,9.25-8.833,9.25-8.833c15.834,3.333,20.75,17.083,20.75,17.083
		c2.918-9.25-8.584-15.917-9-21.75c-0.416-5.833,8.5-8.5,8.5-8.5c11.584,3.5,8.166,26.5,9.5,26.5c1.334,0,1.749-13.25,5-13.333
		C128.491,22.924,115.407,43.257,115.407,43.257z"/>
</g>
</svg>
