<?xml version="1.0" encoding="utf-8"?>
<!-- Generator: Adobe Illustrator 17.0.0, SVG Export Plug-In . SVG Version: 6.00 Build 0)  -->
<svg version="1.2" baseProfile="tiny" xmlns="http://www.w3.org/2000/svg" xmlns:xlink="http://www.w3.org/1999/xlink" x="0px"
	 y="0px" width="200px" height="200px" viewBox="0 0 200 200" xml:space="preserve">
<g id="Layer_1">
</g>
<g id="Layer_4">
	<path fill="none" stroke="#464646" stroke-width="2" stroke-linecap="round" stroke-linejoin="round" stroke-miterlimit="10" d="
		M137.73,74.211c13.11-8.667,16,8.444,16,8.444c2.222,11.111-8,13.404-8,13.404c5.11,7.04-10.223,17.326-10.223,17.326
		c-6.223,7.714-17.776,37.27-14.666,36.604c3.11-0.667,3.333,2.444,3.333,2.444c33.11-8.444,32,8,32,8l-1.556,1.556
		c1.111,9.556-10,9.111-10,9.111c-8.223,6.667-14.444-3.111-14.444-3.111c-11.334,7.556-14.444-2.645-14.444-2.645l-7.556,2.423
		c-0.667,3.333,0.001,0.666-2.889,3.333c-2.89,2.667-17.778,3.778-17.778,3.778c0.444,7.556-15.556,4.222-15.556,4.222
		c-5.556,7.778-14.889,2-14.889,2c-10.444,2.834-9.556-9.555-9.556-9.555c-5.556-15.111,17.778-12.667,17.778-12.667
		c24.666,3.556,20.869-12.21,28.444-37.778c-1.395-1.232-2.223,0-2.223,0c-4.667,9.334-15.333,9.111-15.333,9.111
		c-11.761,2.166-16-1.778-13.777,16.667c-4.001,9.778-11.778,8-11.778,8c-22-12.667-1.111-33.778-1.111-33.778
		c7.333-6.889,25.821-2.444,27.778-3.333c1.957-0.889,4.889-2.222,4.889-2.222c-8.89-9.778-0.667-27.111-0.667-27.111
		c-3.111-2.445-1.333-12-1.333-12c-36.667-9.11-22.223-45.11-9.556-49.658C79.951-1.788,100.84,4.696,101.84,10.433
		c37.223-13.332,17.89,14,17.89,14c6.444,2.446,9.777,10.667,9.777,10.667c11.556,3.779,5.334,10.223,5.334,10.223
		c5.777,15.779-8.444,23.555-8.444,23.555C132.618,67.766,137.73,74.211,137.73,74.211z"/>
	<path fill="none" stroke="#464646" stroke-width="2" stroke-linecap="round" stroke-linejoin="round" stroke-miterlimit="10" d="
		M98.361,153.323c-1.077-2.889,5.291-31.261,7.813-32c2.889,0.444,10.444-0.889,13.333-2.222
		C110.396,140.212,99.439,156.212,98.361,153.323z"/>
</g>
</svg>
