<?xml version="1.0" encoding="utf-8"?>
<!-- Generator: Adobe Illustrator 17.0.0, SVG Export Plug-In . SVG Version: 6.00 Build 0)  -->
<svg version="1.2" baseProfile="tiny" xmlns="http://www.w3.org/2000/svg" xmlns:xlink="http://www.w3.org/1999/xlink" x="0px"
	 y="0px" width="200px" height="200px" viewBox="0 0 200 200" xml:space="preserve">
<g id="Layer_1">
</g>
<g id="Layer_4">
	<path fill="none" stroke="#464646" stroke-width="2" stroke-linecap="round" stroke-linejoin="round" stroke-miterlimit="10" d="
		M97.664,143.951l-8.86-1.772c0,0,8.606,13.416-1.772,18.985c-10.378,5.569-22.275,2.784-22.275,2.784s-10.125-3.544,7.341-16.453
		l0.253-11.138c0,0-19.491-16.96-7.594-49.866c-5.569,5.063-10.125-2.784-10.125-2.784l-2.278-10.631c0,0-10.631-2.531-7.847-6.328
		c-3.291-3.797,0-6.581,0-6.581s1.639-6.765,7.341-4.809c2.278-13.669,7.847-5.569,4.809-3.037
		c-0.949,3.279,1.266,7.087,1.266,7.087l-0.253,6.581l5.062,11.897L77.92,65.481l5.569-6.834c-5.063-0.253-5.063-6.328-5.063-6.328
		s-10.125-7.341-7.341-17.466c-4.05-12.91,16.453-11.391,16.453-11.391s0.759-4.05,4.05-8.1c6.075-6.328,12.403,0,12.403,0
		s2.025,12.15,6.581,12.403c10.884,7.088-6.328,25.06-6.328,25.06s-3.544,15.188,4.556,24.807
		c7.088,7.341,5.316,21.769,5.316,21.769s2.784-7.088,8.1-5.822c0.506-7.088,7.341-6.075,7.341-6.075s0.506-6.328,7.341-3.037
		c4.303-5.316,7.847,0.253,7.847,0.253s10.631,3.291-4.303,6.075c-10.125,2.278-10.125,26.831-28.857,43.032
		c-3.797,10.885,10.884,30.122,10.884,30.122s12.91,13.922,2.784,20.503c-5.063,4.303-11.897,2.531-11.897,2.531
		s-20.25-2.025-15.947-20.25C101.714,148.507,97.664,143.951,97.664,143.951z"/>
</g>
</svg>
