<?xml version="1.0" encoding="utf-8"?>
<!-- Generator: Adobe Illustrator 17.0.0, SVG Export Plug-In . SVG Version: 6.00 Build 0)  -->
<svg version="1.2" baseProfile="tiny" xmlns="http://www.w3.org/2000/svg" xmlns:xlink="http://www.w3.org/1999/xlink" x="0px"
	 y="0px" width="200px" height="200px" viewBox="0 0 200 200" overflow="visible" xml:space="preserve">
<g id="Layer_1">
</g>
<g id="Layer_4">
	<path fill="none" stroke="#464646" stroke-width="2" stroke-linecap="round" stroke-linejoin="round" stroke-miterlimit="10" d="
		M123.842,18.623c28.272-12.282,25.259,18.307,25.259,18.307c-3.244,13.209-21.32,29.199-21.32,29.199
		c33.371,12.745,10.891,42.872,10.66,46.116c-0.231,3.244,6.72,13.672,5.33,17.38c-1.39,3.708-7.3,6.952-7.3,6.952
		c-2.233,26.223-2.665,31.285-2.665,31.285c5.098,3.476,0.232,7.184,0.232,7.184c1.391,25.491-31.284,8.069-31.284,8.069
		c-49.591,3.518-29.199-11.545-29.199-11.545c2.781-10.892-5.33-37.541-5.33-37.541c-7.415-0.463-11.124-10.794-11.124-10.794
		c-9.269,0.134-14.599-9.135-14.599-9.135c-1.158-11.355,4.403-22.015,4.403-22.015c-13.672-18.076,2.318-8.111,2.318-8.111
		C59.42,67.056,73.092,66.361,73.092,66.361C55.48,36.467,61.042,26.502,61.042,26.502c7.88-14.368,17.844-9.038,17.844-9.038
		s-2.781-4.866-0.232-5.561c2.549-0.695,6.025,4.635,9.038,4.635c3.013,0,4.866-4.403,6.72-4.635
		c1.855-0.232,3.744,4.866,5.928,4.866c2.184,0,4.964-4.403,7.166-5.793c2.202-1.39,2.665,6.025,4.982,4.867
		c2.317-1.158,11.355-8.111,12.514-6.257C126.16,11.439,123.842,18.623,123.842,18.623z"/>
</g>
</svg>
